<?xml version="1.0" encoding="UTF-8" standalone="no"?>
<!-- Created with Inkscape (http://www.inkscape.org/) -->
<svg xmlns:dc="http://purl.org/dc/elements/1.1/" xmlns:cc="http://creativecommons.org/ns#" xmlns:rdf="http://www.w3.org/1999/02/22-rdf-syntax-ns#" xmlns:svg="http://www.w3.org/2000/svg" xmlns="http://www.w3.org/2000/svg" xmlns:sodipodi="http://sodipodi.sourceforge.net/DTD/sodipodi-0.dtd" xmlns:inkscape="http://www.inkscape.org/namespaces/inkscape" width="64px" height="64px" id="svg2985" version="1.1" inkscape:version="0.48.5 r10040" sodipodi:docname="social_youtube.svg">
  <defs id="defs2987"/>
  <sodipodi:namedview id="base" pagecolor="#ffffff" bordercolor="#666666" borderopacity="1.0" inkscape:pageopacity="0.0" inkscape:pageshadow="2" inkscape:zoom="4.9718446" inkscape:cx="7.3082755" inkscape:cy="26.281329" inkscape:current-layer="layer3" showgrid="true" inkscape:document-units="px" inkscape:grid-bbox="true" inkscape:snap-smooth-nodes="false" inkscape:object-nodes="false" inkscape:snap-midpoints="true" inkscape:snap-center="false" inkscape:snap-object-midpoints="false" inkscape:window-width="1920" inkscape:window-height="1044" inkscape:window-x="1280" inkscape:window-y="36" inkscape:window-maximized="1" inkscape:snap-global="true">
    <inkscape:grid type="xygrid" id="grid3769"/>
  </sodipodi:namedview>
  <metadata id="metadata2990">
    <rdf:RDF>
      <cc:Work rdf:about="">
        <dc:format>image/svg+xml</dc:format>
        <dc:type rdf:resource="http://purl.org/dc/dcmitype/StillImage"/>
        <dc:title/>
      </cc:Work>
    </rdf:RDF>
  </metadata>
  <g id="layer1" inkscape:label="Layer 1" inkscape:groupmode="layer" style="display:inline">
    <path sodipodi:type="arc" style="fill:#dc2a20;fill-opacity:1;stroke:none" id="path2993" sodipodi:cx="30.363636" sodipodi:cy="30" sodipodi:rx="32" sodipodi:ry="32" d="m 62.363636,30 a 32,32 0 1 1 -64,0 32,32 0 1 1 64,0 z" transform="translate(1.636364,2)"/>
  </g>
  <g inkscape:groupmode="layer" id="layer3" inkscape:label="Capa">
    <path style="fill:#ffffff;fill-opacity:1;stroke:none" d="m 28.63738,20.889071 c -3.200741,0.05397 -6.287456,0.241389 -9.015086,0.53555 -2.218069,0.239208 -3.069159,3.744819 -3.257928,5.846417 -0.32797,3.65132 -0.0035,9.915128 0,9.952299 0.368992,3.973878 2.134202,5.509565 4.64143,5.578644 6.948374,0.191426 14.766807,0.631238 23.028638,0 1.8795,-0.143602 3.322354,-1.67068 3.65959,-5.578644 0.005,-0.05871 0.195826,-6.636808 0,-9.952299 -0.13066,-2.212281 -1.364661,-5.645639 -3.65959,-5.846417 -4.467231,-0.390828 -10.062486,-0.625488 -15.397054,-0.53555 z m -0.847953,6.739001 8.434907,4.373655 -8.434907,4.418286 z" id="path3836" inkscape:connector-curvature="0" sodipodi:nodetypes="sssssssssscccc"/>
  </g>
</svg>