<?xml version="1.0" encoding="UTF-8"?>
<svg xmlns="http://www.w3.org/2000/svg" xmlns:xlink="http://www.w3.org/1999/xlink" width="459.7856pt" height="393.228pt" viewBox="0 0 459.7856 393.228" version="1.1">
<defs>
<clipPath id="clip1">
  <path d="M 0 187 L 459.785156 187 L 459.785156 264 L 0 264 Z M 0 187 "/>
</clipPath>
<clipPath id="clip2">
  <path d="M 0 141 L 459.785156 141 L 459.785156 207 L 0 207 Z M 0 141 "/>
</clipPath>
<clipPath id="clip3">
  <path d="M 226 308 L 231 308 L 231 393.226562 L 226 393.226562 Z M 226 308 "/>
</clipPath>
</defs>
<g id="surface1">
<path style=" stroke:none;fill-rule:evenodd;fill:rgb(82.699585%,82.699585%,82.699585%);fill-opacity:1;" d="M 211.347656 284.128906 C 204.46875 283.144531 196.195312 281.613281 187.792969 279.605469 C 179.390625 277.601562 170.859375 275.121094 162.054688 272.183594 C 153.25 269.246094 144.167969 265.851562 136.511719 262.757812 C 128.855469 259.664062 122.621094 256.875 115.472656 253.335938 C 108.324219 249.796875 100.257812 245.515625 93.324219 241.484375 C 86.386719 237.457031 80.582031 233.683594 74.304688 229.359375 C 68.023438 225.03125 61.269531 220.15625 55.320312 215.492188 C 49.375 210.828125 44.234375 206.382812 38.519531 201.167969 C 32.804688 195.957031 26.511719 189.976562 23.054688 186.386719 C 19.597656 182.792969 18.972656 181.585938 16.824219 182.515625 C 14.675781 183.449219 11 186.515625 8.394531 189.421875 C 5.789062 192.328125 4.253906 195.074219 3.570312 197.734375 C 2.882812 200.398438 3.046875 202.972656 4.664062 206.726562 C 6.28125 210.480469 9.347656 215.40625 12.261719 219.234375 C 15.175781 223.066406 17.933594 225.796875 21.121094 228.742188 C 24.308594 231.6875 27.917969 234.84375 31.4375 237.789062 C 34.957031 240.738281 38.382812 243.472656 42.207031 246.371094 C 46.03125 249.265625 50.246094 252.324219 55.753906 256.058594 C 61.261719 259.792969 68.058594 264.203125 74.871094 268.230469 C 81.679688 272.261719 88.507812 275.90625 95.410156 278.804688 C 102.3125 281.703125 109.292969 283.851562 114.511719 285.359375 C 119.730469 286.867188 123.191406 287.734375 127.539062 288.644531 C 131.890625 289.554688 137.136719 290.507812 142.601562 291.277344 C 148.066406 292.050781 153.753906 292.640625 159.941406 292.972656 C 166.128906 293.304688 172.816406 293.382812 180.042969 293.066406 C 187.265625 292.746094 195.027344 292.027344 203.039062 290.9375 C 211.054688 289.84375 219.324219 288.378906 223.722656 287.488281 C 228.121094 286.601562 228.652344 286.292969 226.175781 285.921875 C 223.703125 285.550781 218.222656 285.113281 211.347656 284.128906 Z M 211.347656 284.128906 "/>
<path style=" stroke:none;fill-rule:evenodd;fill:rgb(66.299438%,66.299438%,66.299438%);fill-opacity:1;" d="M 213.929688 275.117188 C 207.738281 270.152344 200.511719 263.921875 194.933594 258.667969 C 189.359375 253.414062 185.429688 249.136719 180.789062 243.71875 C 176.152344 238.304688 170.796875 231.746094 165.59375 224.925781 C 160.390625 218.101562 155.335938 211.011719 150.589844 203.699219 C 145.84375 196.386719 141.410156 188.851562 137.183594 181.210938 C 132.957031 173.574219 128.933594 165.832031 126.339844 160.816406 C 123.746094 155.800781 122.578125 153.511719 121.992188 152.367188 C 121.410156 151.226562 121.410156 151.226562 117.402344 151.726562 C 113.398438 152.226562 105.382812 153.230469 97.582031 154.546875 C 89.777344 155.859375 82.179688 157.492188 73.820312 159.621094 C 65.460938 161.753906 56.335938 164.386719 49.042969 166.804688 C 41.746094 169.226562 36.277344 171.429688 31.226562 173.710938 C 26.179688 175.988281 21.546875 178.34375 19.230469 179.523438 C 16.914062 180.699219 16.914062 180.699219 18.410156 182.1875 C 19.90625 183.675781 22.898438 186.65625 27.09375 190.699219 C 31.289062 194.742188 36.6875 199.847656 42.175781 204.679688 C 47.664062 209.511719 53.238281 214.0625 59.070312 218.535156 C 64.902344 223.007812 70.988281 227.394531 77.136719 231.503906 C 83.289062 235.609375 89.503906 239.433594 95.476562 242.863281 C 101.445312 246.296875 107.171875 249.335938 112.441406 251.980469 C 117.707031 254.628906 122.511719 256.878906 128.285156 259.378906 C 134.054688 261.875 140.792969 264.621094 148.449219 267.453125 C 156.101562 270.285156 164.675781 273.203125 173.089844 275.691406 C 181.5 278.179688 189.746094 280.230469 196.144531 281.628906 C 202.539062 283.027344 207.082031 283.773438 212.238281 284.5 C 217.390625 285.226562 223.15625 285.933594 226.289062 286.429688 C 229.425781 286.921875 229.929688 287.199219 227.605469 285.488281 C 225.277344 283.777344 220.121094 280.082031 213.929688 275.117188 Z M 213.929688 275.117188 "/>
<path style="fill-rule:evenodd;fill:rgb(82.699585%,82.699585%,82.699585%);fill-opacity:1;stroke-width:0.4;stroke-linecap:butt;stroke-linejoin:round;stroke:rgb(0%,0%,0%);stroke-opacity:1;stroke-miterlimit:10;" d="M 439.968556 338.02325 C 446.406056 339.624812 453.390431 341.476375 460.554494 343.6795 C 467.71465 345.878719 475.054494 348.425594 480.835744 350.6795 C 486.616994 352.933406 490.843556 354.894344 495.023244 357.214656 C 499.206838 359.531062 503.33965 362.21075 506.788869 365.234187 C 510.234181 368.261531 512.9959 371.632625 514.374806 373.316219 C 515.753713 375.003719 515.753713 375.003719 513.382619 377.347469 C 511.011525 379.691219 506.269338 384.382625 500.4334 389.808406 C 494.597463 395.230281 487.663869 401.382625 479.781056 407.702937 C 471.90215 414.02325 463.074025 420.511531 454.249806 426.351375 C 445.421681 432.195125 436.597463 437.394344 427.269338 442.308406 C 417.945119 447.222469 408.124806 451.847469 399.488088 455.58575 C 390.855275 459.324031 383.413869 462.175594 375.687306 464.855281 C 367.960744 467.538875 359.952931 470.0545 351.210744 472.300594 C 342.468556 474.542781 332.9959 476.511531 323.741994 478.015437 C 314.488088 479.515437 305.456838 480.550594 299.8709 480.921687 C 294.27715 481.292781 292.132619 480.999812 291.0584 480.855281 C 289.984181 480.71075 289.984181 480.71075 292.0584 479.851375 C 294.132619 478.992 298.27715 477.27325 301.894338 475.613094 C 305.511525 473.956844 308.597463 472.355281 312.878713 469.730281 C 317.156056 467.105281 322.628713 463.46075 327.917775 459.538875 C 333.202931 455.620906 338.3084 451.421687 343.054494 447.011531 C 347.796681 442.605281 352.1834 437.984187 357.374806 432.066219 C 362.566213 426.144344 368.562306 418.9295 374.023244 411.937312 C 379.480275 404.945125 384.398244 398.175594 388.531056 392.163875 C 392.663869 386.152156 396.015431 380.894344 399.577931 374.937312 C 403.140431 368.976375 406.917775 362.316219 410.101369 356.347469 C 413.288869 350.378719 415.882619 345.097469 417.6834 341.58575 C 419.488088 338.074031 420.503713 336.327937 421.050588 335.316219 C 421.593556 334.3045 421.675588 334.027156 424.659963 334.558406 C 427.644338 335.089656 433.531056 336.4295 439.968556 338.02325 Z M 439.968556 338.02325 " transform="matrix(1,0,0,-1,-58.8084,584.492)"/>
<path style="fill-rule:evenodd;fill:rgb(66.299438%,66.299438%,66.299438%);fill-opacity:1;stroke-width:0.4;stroke-linecap:butt;stroke-linejoin:round;stroke:rgb(0%,0%,0%);stroke-opacity:1;stroke-miterlimit:10;" d="M 402.894338 331.1795 C 394.531056 330.038875 383.093556 328.574031 371.113088 327.370906 C 359.132619 326.163875 346.609181 325.222469 335.784963 324.570125 C 324.960744 323.917781 315.835744 323.558406 306.3084 323.355281 C 296.781056 323.152156 286.851369 323.105281 277.847463 323.195125 C 268.843556 323.284969 260.761525 323.511531 253.456838 323.788875 C 246.15215 324.062312 239.624806 324.390437 236.359181 324.550594 C 233.097463 324.714656 233.097463 324.714656 233.667775 327.542781 C 234.238088 330.370906 235.378713 336.027156 236.695119 341.952937 C 238.015431 347.874812 239.511525 354.062312 241.445119 362.132625 C 243.382619 370.202937 245.753713 380.156062 248.062306 389.038875 C 250.3709 397.917781 252.609181 405.730281 254.945119 413.1795 C 257.27715 420.628719 259.702931 427.71075 261.960744 433.890437 C 264.21465 440.070125 266.304494 445.347469 268.718556 450.824031 C 271.132619 456.3045 273.874806 461.980281 276.46465 466.5545 C 279.054494 471.128719 281.4959 474.597469 283.3084 476.83575 C 285.1209 479.077937 286.304494 480.08575 286.898244 480.589656 C 287.491994 481.097469 287.491994 481.097469 290.417775 479.96075 C 293.343556 478.827937 299.195119 476.558406 304.449025 474.077937 C 309.699025 471.593562 314.347463 468.894344 320.249806 464.827937 C 326.148244 460.761531 333.300588 455.327937 339.281056 450.238094 C 345.265431 445.152156 350.070119 440.413875 355.226369 434.827937 C 360.382619 429.245906 365.882619 422.816219 372.081838 414.906062 C 378.281056 406.995906 385.179494 397.601375 390.898244 389.062312 C 396.616994 380.52325 401.159963 372.83575 406.077931 363.718562 C 410.991994 354.597469 416.284963 344.050594 418.980275 338.839656 C 421.671681 333.632625 421.765431 333.761531 421.8084 333.83575 C 421.851369 333.913875 421.843556 333.933406 419.195119 333.534969 C 416.546681 333.136531 411.257619 332.320125 402.894338 331.1795 Z M 402.894338 331.1795 " transform="matrix(1,0,0,-1,-58.8084,584.492)"/>
<path style="fill:none;stroke-width:4;stroke-linecap:butt;stroke-linejoin:round;stroke:rgb(0%,0%,0%);stroke-opacity:1;stroke-miterlimit:10;" d="M 64.08965 392.77325 C 181.659963 516.753719 377.472463 521.945125 501.452931 404.374812 C 505.199025 400.820125 508.859181 397.171687 512.425588 393.433406 " transform="matrix(1,0,0,-1,-58.8084,584.492)"/>
<path style="fill:none;stroke-width:4;stroke-linecap:butt;stroke-linejoin:round;stroke:rgb(0%,0%,0%);stroke-opacity:1;stroke-dasharray:12;stroke-miterlimit:10;" d="M 301.08965 488.999812 C 301.08965 488.999812 301.08965 488.999812 301.468556 488.999812 C 301.843556 488.999812 302.597463 488.999812 303.566213 488.851375 C 304.538869 488.706844 305.730275 488.417781 306.734181 488.031062 C 307.738088 487.64825 308.554494 487.167781 309.398244 486.605281 C 310.241994 486.038875 311.109181 485.386531 311.976369 484.663875 C 312.843556 483.941219 313.710744 483.152156 314.359181 482.519344 C 315.007619 481.886531 315.437306 481.413875 316.08965 480.542781 C 316.741994 479.671687 317.613088 478.402156 318.413869 477.105281 C 319.210744 475.8045 319.929494 474.472469 320.636525 473.097469 C 321.347463 471.726375 322.042775 470.312312 322.702931 468.913875 C 323.363088 467.511531 323.984181 466.128719 324.77715 464.159969 C 325.566213 462.191219 326.52715 459.644344 327.269338 457.558406 C 328.015431 455.476375 328.538869 453.859187 329.109181 452.089656 C 329.679494 450.312312 330.296681 448.386531 330.9334 446.386531 C 331.570119 444.390437 332.226369 442.324031 332.5584 441.288875 C 332.886525 440.257625 332.886525 440.257625 332.886525 440.257625 " transform="matrix(1,0,0,-1,-58.8084,584.492)"/>
<path style="fill:none;stroke-width:4;stroke-linecap:butt;stroke-linejoin:round;stroke:rgb(0%,0%,0%);stroke-opacity:1;stroke-miterlimit:10;" d="M 301.179494 489.027156 C 301.179494 489.027156 301.179494 489.027156 300.679494 489.011531 C 300.179494 488.999812 299.1834 488.968562 297.999806 488.64825 C 296.812306 488.331844 295.441213 487.722469 293.847463 486.769344 C 292.249806 485.816219 290.425588 484.519344 288.538869 482.831844 C 286.65215 481.14825 284.699025 479.070125 282.753713 476.632625 C 280.8084 474.195125 278.8709 471.394344 277.331838 468.863094 C 275.796681 466.331844 274.659963 464.070125 273.019338 460.636531 C 271.382619 457.202937 269.238088 452.601375 267.531056 448.675594 C 265.827931 444.749812 264.562306 441.499812 262.960744 437.097469 C 261.355275 432.691219 259.413869 427.136531 257.929494 422.800594 C 256.445119 418.46075 255.417775 415.343562 254.281056 411.753719 C 253.144338 408.163875 251.898244 404.101375 250.421681 398.753719 C 248.949025 393.406062 247.249806 386.77325 245.7459 380.550594 C 244.2459 374.327937 242.941213 368.515437 241.769338 363.484187 C 240.597463 358.452937 239.550588 354.195125 238.542775 350.08575 C 237.52715 345.968562 236.550588 341.995906 235.644338 337.769344 C 234.738088 333.546687 233.906056 329.066219 233.488088 326.824031 C 233.070119 324.58575 233.070119 324.58575 233.070119 324.58575 " transform="matrix(1,0,0,-1,-58.8084,584.492)"/>
<path style="fill:none;stroke-width:4;stroke-linecap:butt;stroke-linejoin:round;stroke:rgb(0%,0%,0%);stroke-opacity:1;stroke-miterlimit:10;" d="M 421.863088 333.902156 C 421.863088 333.902156 421.863088 333.902156 420.163869 337.230281 C 418.46465 340.558406 415.070119 347.214656 411.144338 354.788875 C 407.222463 362.363094 402.769338 370.863094 397.781056 379.156062 C 392.788869 387.452937 387.261525 395.542781 381.460744 403.363094 C 375.659963 411.187312 369.593556 418.738094 363.960744 425.374812 C 358.327931 432.007625 353.132619 437.722469 348.199025 442.632625 C 343.265431 447.542781 338.58965 451.652156 333.77715 455.476375 C 328.960744 459.300594 324.007619 462.839656 319.6209 465.777156 C 315.230275 468.718562 311.406056 471.058406 306.538869 473.542781 C 301.671681 476.027156 295.761525 478.656062 289.937306 480.726375 C 284.113088 482.796687 278.374806 484.300594 272.781056 485.249812 C 267.191213 486.199031 261.7459 486.593562 256.140431 486.503719 C 250.542775 486.413875 244.784963 485.843562 241.906056 485.558406 C 239.02715 485.269344 239.02715 485.269344 239.02715 485.269344 " transform="matrix(1,0,0,-1,-58.8084,584.492)"/>
<path style="fill:none;stroke-width:4;stroke-linecap:butt;stroke-linejoin:round;stroke:rgb(0%,0%,0%);stroke-opacity:1;stroke-dasharray:12;stroke-miterlimit:10;" d="M 240.570119 485.515437 C 240.570119 485.515437 240.570119 485.515437 239.52715 485.206844 C 238.488088 484.89825 236.406056 484.277156 234.249806 483.527156 C 232.093556 482.77325 229.863088 481.890437 226.441213 480.242 C 223.019338 478.593562 218.406056 476.175594 214.218556 473.605281 C 210.034963 471.034969 206.281056 468.308406 203.156056 465.71075 C 200.034963 463.113094 197.542775 460.640437 194.991994 457.913875 C 192.441213 455.187312 189.831838 452.202937 186.702931 448.132625 C 183.574025 444.058406 179.929494 438.89825 178.105275 436.316219 C 176.284963 433.738094 176.284963 433.738094 176.284963 433.738094 " transform="matrix(1,0,0,-1,-58.8084,584.492)"/>
<path style="fill:none;stroke-width:4;stroke-linecap:butt;stroke-linejoin:round;stroke:rgb(0%,0%,0%);stroke-opacity:1;stroke-miterlimit:10;" d="M 85.991994 354.574031 C 85.991994 354.574031 85.991994 354.574031 88.128713 357.152156 C 90.261525 359.730281 94.531056 364.882625 99.542775 370.570125 C 104.550588 376.261531 110.304494 382.484187 117.199025 389.382625 C 124.093556 396.281062 132.128713 403.851375 138.976369 410.031062 C 145.827931 416.21075 151.4959 420.999812 156.843556 425.105281 C 162.191213 429.214656 167.226369 432.644344 173.191213 436.433406 C 179.156056 440.222469 186.054494 444.378719 192.238088 447.956844 C 198.425588 451.531062 203.898244 454.534969 209.261525 457.253719 C 214.624806 459.976375 219.874806 462.413875 225.4334 464.761531 C 230.991994 467.109187 236.855275 469.367 242.109181 471.14825 C 247.359181 472.925594 251.999806 474.226375 259.46465 475.882625 C 266.929494 477.538875 277.218556 479.546687 286.570119 480.96075 C 295.925588 482.370906 304.343556 483.183406 312.6209 483.507625 C 320.90215 483.827937 329.042775 483.659969 338.132619 482.839656 C 347.222463 482.02325 357.257619 480.550594 367.175588 478.234187 C 377.097463 475.917781 386.898244 472.757625 391.800588 471.175594 C 396.702931 469.597469 396.702931 469.597469 396.702931 469.597469 " transform="matrix(1,0,0,-1,-58.8084,584.492)"/>
<path style="fill:none;stroke-width:4;stroke-linecap:butt;stroke-linejoin:round;stroke:rgb(0%,0%,0%);stroke-opacity:1;stroke-dasharray:12;stroke-miterlimit:10;" d="M 398.331838 469.136531 C 398.331838 469.136531 398.331838 469.136531 399.866994 468.476375 C 401.40215 467.816219 404.476369 466.492 407.988088 464.827937 C 411.4959 463.163875 415.445119 461.152156 419.226369 459.0545 C 423.011525 456.952937 426.624806 454.761531 429.546681 452.941219 C 432.468556 451.120906 434.691213 449.671687 438.081838 447.191219 C 441.468556 444.71075 446.015431 441.199031 450.445119 437.527156 C 454.874806 433.859187 459.1834 430.027156 462.679494 426.695125 C 466.171681 423.367 468.851369 420.534969 470.187306 419.120906 C 471.52715 417.702937 471.52715 417.702937 471.52715 417.702937 " transform="matrix(1,0,0,-1,-58.8084,584.492)"/>
<path style="fill:none;stroke-width:4;stroke-linecap:butt;stroke-linejoin:round;stroke:rgb(0%,0%,0%);stroke-opacity:1;stroke-miterlimit:10;" d="M 515.753713 375.003719 C 515.753713 375.003719 515.753713 375.003719 513.191213 377.562312 C 510.628713 380.124812 505.499806 385.249812 500.570119 390.003719 C 495.636525 394.753719 490.898244 399.136531 484.980275 404.066219 C 479.0584 408.999812 471.952931 414.476375 465.292775 419.316219 C 458.628713 424.152156 452.406056 428.347469 445.33965 432.64825 C 438.273244 436.945125 430.366994 441.347469 422.163869 445.492 C 413.96465 449.636531 405.472463 453.527156 396.706838 457.136531 C 387.937306 460.742 378.894338 464.066219 371.031056 466.726375 C 363.171681 469.390437 356.488088 471.386531 350.234181 473.027156 C 343.980275 474.663875 338.156056 475.941219 333.640431 476.808406 C 329.128713 477.675594 325.925588 478.136531 321.741994 478.738094 C 317.5584 479.343562 312.394338 480.097469 306.476369 480.702937 C 300.562306 481.312312 293.890431 481.777156 290.5584 482.007625 C 287.222463 482.238094 287.222463 482.238094 287.222463 482.238094 " transform="matrix(1,0,0,-1,-58.8084,584.492)"/>
<path style="fill:none;stroke-width:4;stroke-linecap:butt;stroke-linejoin:round;stroke:rgb(0%,0%,0%);stroke-opacity:1;stroke-miterlimit:10;" d="M 287.460744 482.226375 C 287.460744 482.226375 287.460744 482.226375 284.08965 482.234187 C 280.718556 482.245906 273.976369 482.261531 265.784963 481.9295 C 257.593556 481.597469 247.949025 480.913875 241.093556 480.3045 C 234.234181 479.691219 230.159963 479.14825 224.132619 478.042781 C 218.109181 476.933406 210.128713 475.261531 202.999806 473.550594 C 195.8709 471.839656 189.593556 470.089656 183.679494 468.167781 C 177.765431 466.245906 172.21465 464.14825 167.128713 462.089656 C 162.042775 460.027156 157.421681 457.999812 152.702931 455.855281 C 147.984181 453.71075 143.171681 451.452937 135.831838 447.39825 C 128.4959 443.339656 118.632619 437.488094 113.702931 434.562312 C 108.769338 431.632625 108.769338 431.632625 108.769338 431.632625 " transform="matrix(1,0,0,-1,-58.8084,584.492)"/>
<g clip-path="url(#clip1)" clip-rule="nonzero">
<path style="fill:none;stroke-width:4;stroke-linecap:butt;stroke-linejoin:round;stroke:rgb(0%,0%,0%);stroke-opacity:1;stroke-miterlimit:10;" d="M 61.320119 385.011531 C 61.320119 385.011531 61.320119 385.011531 61.312306 384.390437 C 61.300587 383.769344 61.284962 382.527156 61.765431 380.124812 C 62.241994 377.726375 63.21465 374.167781 64.831838 371.257625 C 66.452931 368.347469 68.718556 366.08575 71.835744 363.6795 C 74.952931 361.27325 78.913869 358.722469 83.628713 356.222469 C 88.343556 353.722469 93.8084 351.27325 99.679494 349.007625 C 105.550588 346.742 111.827931 344.656062 117.859181 342.863094 C 123.894338 341.066219 129.679494 339.562312 136.413869 338.02325 C 143.15215 336.480281 150.83965 334.906062 158.230275 333.5545 C 165.624806 332.202937 172.722463 331.074031 179.574025 330.097469 C 186.429494 329.124812 193.038869 328.300594 199.577931 327.581844 C 206.113088 326.859187 212.577931 326.238094 220.523244 325.624812 C 228.468556 325.007625 237.894338 324.394344 248.074025 323.933406 C 258.257619 323.472469 269.195119 323.163875 279.003713 323.027156 C 288.8084 322.894344 297.488088 322.941219 308.429494 323.245906 C 319.374806 323.5545 332.581838 324.120906 344.476369 324.870906 C 356.374806 325.617 366.960744 326.546687 378.070119 327.8045 C 389.1834 329.062312 400.812306 330.652156 410.859181 332.265437 C 420.90215 333.878719 429.359181 335.515437 437.382619 337.308406 C 445.406056 339.097469 452.9959 341.046687 460.96465 343.515437 C 468.9334 345.980281 477.281056 348.968562 482.968556 351.195125 C 488.656056 353.421687 491.687306 354.890437 495.206838 356.933406 C 498.726369 358.976375 502.730275 361.589656 505.491994 363.613094 C 508.253713 365.636531 509.77715 367.066219 511.27715 368.863094 C 512.781056 370.663875 514.269338 372.831844 515.105275 375.152156 C 515.945119 377.468562 516.136525 379.937312 516.062306 382.191219 C 515.988088 384.449031 515.648244 386.488094 514.824025 388.507625 C 513.999806 390.527156 512.691213 392.52325 512.034963 393.52325 C 511.382619 394.52325 511.382619 394.52325 511.382619 394.52325 " transform="matrix(1,0,0,-1,-58.8084,584.492)"/>
</g>
<g clip-path="url(#clip2)" clip-rule="nonzero">
<path style="fill:none;stroke-width:4;stroke-linecap:butt;stroke-linejoin:round;stroke:rgb(0%,0%,0%);stroke-opacity:1;stroke-dasharray:12;stroke-miterlimit:10;" d="M 61.3084 384.202937 C 61.3084 384.202937 61.3084 384.202937 61.366994 385.093562 C 61.429494 385.984187 61.550587 387.765437 62.33965 389.699031 C 63.128712 391.628719 64.58965 393.714656 66.925588 396.093562 C 69.265431 398.468562 72.484181 401.144344 76.906056 403.952937 C 81.331838 406.765437 86.968556 409.71075 92.624806 412.245906 C 98.284963 414.777156 103.968556 416.89825 111.296681 419.187312 C 118.624806 421.476375 127.597463 423.9295 134.909963 425.749812 C 142.222463 427.570125 147.874806 428.753719 155.066213 430.058406 C 162.261525 431.367 170.991994 432.796687 180.210744 434.08575 C 189.429494 435.370906 199.136525 436.511531 206.273244 437.281062 C 213.406056 438.0545 217.976369 438.452937 225.292775 438.949031 C 232.613088 439.449031 242.679494 440.046687 251.6209 440.452937 C 260.562306 440.859187 268.378713 441.074031 276.480275 441.1795 C 284.577931 441.288875 292.960744 441.284969 301.503713 441.156062 C 310.042775 441.027156 318.741994 440.77325 325.843556 440.495906 C 332.945119 440.218562 338.452931 439.917781 343.949025 439.562312 C 349.445119 439.206844 354.9334 438.792781 361.566213 438.191219 C 368.202931 437.589656 375.988088 436.796687 384.202931 435.800594 C 392.409963 434.8045 401.046681 433.601375 408.347463 432.464656 C 415.648244 431.327937 421.616994 430.257625 427.284963 429.136531 C 432.956838 428.019344 438.327931 426.847469 446.171681 424.749812 C 454.015431 422.652156 464.331838 419.628719 471.363088 417.367 C 478.394338 415.105281 482.140431 413.613094 485.8709 411.937312 C 489.597463 410.261531 493.3084 408.406062 496.831838 406.316219 C 500.355275 404.226375 503.687306 401.902156 506.0584 400.031062 C 508.429494 398.156062 509.831838 396.738094 511.249806 394.8045 C 512.663869 392.874812 514.08965 390.4295 514.913869 388.257625 C 515.741994 386.081844 515.968556 384.1795 516.062306 382.847469 C 516.156056 381.515437 516.113088 380.753719 516.093556 380.374812 C 516.074025 379.995906 516.074025 379.995906 516.074025 379.995906 " transform="matrix(1,0,0,-1,-58.8084,584.492)"/>
</g>
<path style="fill:none;stroke-width:4;stroke-linecap:butt;stroke-linejoin:round;stroke:rgb(0%,0%,0%);stroke-opacity:1;stroke-miterlimit:10;" d="M 509.859181 367.288875 C 389.878713 245.21075 193.648244 243.507625 71.570119 363.488094 C 70.593556 364.449031 69.6209 365.413875 68.659963 366.386531 " transform="matrix(1,0,0,-1,-58.8084,584.492)"/>
<path style="fill:none;stroke-width:4;stroke-linecap:butt;stroke-linejoin:round;stroke:rgb(0%,0%,0%);stroke-opacity:1;stroke-miterlimit:10;" d="M 264.781056 275.812312 C 264.781056 275.812312 264.781056 275.812312 264.40215 275.812312 C 264.02715 275.812312 263.273244 275.812312 262.304494 275.96075 C 261.331838 276.105281 260.140431 276.394344 259.136525 276.781062 C 258.132619 277.163875 257.316213 277.644344 256.472463 278.21075 C 255.628713 278.77325 254.761525 279.425594 253.894338 280.14825 C 253.02715 280.870906 252.159963 281.659969 251.511525 282.292781 C 250.863088 282.925594 250.4334 283.39825 249.781056 284.269344 C 249.128713 285.140437 248.257619 286.406062 247.460744 287.706844 C 246.663869 289.007625 245.941213 290.339656 245.234181 291.714656 C 244.523244 293.08575 243.827931 294.499812 243.167775 295.89825 C 242.511525 297.300594 241.886525 298.687312 241.093556 300.652156 C 240.304494 302.620906 239.343556 305.167781 238.601369 307.253719 C 237.855275 309.33575 237.331838 310.952937 236.761525 312.726375 C 236.191213 314.499812 235.574025 316.425594 234.937306 318.425594 C 234.300588 320.421687 233.644338 322.488094 233.312306 323.52325 C 232.984181 324.5545 232.984181 324.5545 232.984181 324.5545 " transform="matrix(1,0,0,-1,-58.8084,584.492)"/>
<path style="fill:none;stroke-width:4;stroke-linecap:butt;stroke-linejoin:round;stroke:rgb(0%,0%,0%);stroke-opacity:1;stroke-dasharray:12;stroke-miterlimit:10;" d="M 264.781056 275.812312 C 264.781056 275.812312 264.781056 275.812312 265.281056 275.827937 C 265.77715 275.843562 266.77715 275.870906 267.960744 276.191219 C 269.144338 276.511531 270.515431 277.120906 272.113088 278.070125 C 273.710744 279.02325 275.531056 280.320125 277.421681 282.007625 C 279.3084 283.695125 281.261525 285.769344 283.206838 288.206844 C 285.15215 290.644344 287.08965 293.445125 288.628713 295.980281 C 290.163869 298.511531 291.300588 300.77325 292.937306 304.206844 C 294.577931 307.636531 296.722463 312.238094 298.425588 316.167781 C 300.128713 320.093562 301.394338 323.343562 302.999806 327.745906 C 304.601369 332.14825 306.542775 337.706844 308.02715 342.042781 C 309.515431 346.378719 310.542775 349.499812 311.679494 353.089656 C 312.816213 356.6795 314.062306 360.742 315.534963 366.089656 C 317.011525 371.437312 318.710744 378.066219 320.21465 384.288875 C 321.71465 390.511531 323.015431 396.324031 324.191213 401.355281 C 325.363088 406.390437 326.406056 410.644344 327.417775 414.757625 C 328.429494 418.870906 329.409963 422.843562 330.316213 427.070125 C 331.222463 431.296687 332.054494 435.777156 332.468556 438.015437 C 332.886525 440.257625 332.886525 440.257625 332.886525 440.257625 " transform="matrix(1,0,0,-1,-58.8084,584.492)"/>
<path style="fill:none;stroke-width:4;stroke-linecap:butt;stroke-linejoin:round;stroke:rgb(0%,0%,0%);stroke-opacity:1;stroke-dasharray:12;stroke-miterlimit:10;" d="M 179.726369 434.230281 C 179.726369 434.230281 179.726369 434.230281 181.425588 430.902156 C 183.124806 427.574031 186.519338 420.917781 190.445119 413.343562 C 194.366994 405.765437 198.820119 397.269344 203.8084 388.976375 C 208.800588 380.6795 214.327931 372.589656 220.128713 364.765437 C 225.929494 356.945125 231.9959 349.390437 237.628713 342.757625 C 243.261525 336.124812 248.456838 330.409969 253.390431 325.499812 C 258.324025 320.589656 262.999806 316.480281 267.812306 312.656062 C 272.628713 308.831844 277.581838 305.292781 281.968556 302.355281 C 286.359181 299.413875 290.1834 297.074031 295.050588 294.589656 C 299.917775 292.105281 305.831838 289.472469 311.65215 287.406062 C 317.476369 285.33575 323.21465 283.831844 328.804494 282.882625 C 334.398244 281.933406 339.843556 281.538875 345.445119 281.628719 C 351.046681 281.718562 356.804494 282.288875 359.6834 282.574031 C 362.562306 282.859187 362.562306 282.859187 362.562306 282.859187 " transform="matrix(1,0,0,-1,-58.8084,584.492)"/>
<path style="fill:none;stroke-width:4;stroke-linecap:butt;stroke-linejoin:round;stroke:rgb(0%,0%,0%);stroke-opacity:1;stroke-miterlimit:10;" d="M 357.577931 282.120906 C 357.577931 282.120906 357.577931 282.120906 358.6209 282.433406 C 359.659963 282.742 361.741994 283.363094 363.898244 284.113094 C 366.054494 284.863094 368.284963 285.749812 371.706838 287.39825 C 375.128713 289.046687 379.741994 291.464656 383.929494 294.031062 C 388.113088 296.605281 391.866994 299.327937 394.988088 301.9295 C 398.113088 304.527156 400.605275 306.999812 403.156056 309.726375 C 405.706838 312.452937 408.316213 315.437312 411.445119 319.507625 C 414.574025 323.581844 418.218556 328.742 420.042775 331.320125 C 421.863088 333.902156 421.863088 333.902156 421.863088 333.902156 " transform="matrix(1,0,0,-1,-58.8084,584.492)"/>
<path style="fill:none;stroke-width:4;stroke-linecap:butt;stroke-linejoin:round;stroke:rgb(0%,0%,0%);stroke-opacity:1;stroke-dasharray:12;stroke-miterlimit:10;" d="M 464.847463 419.956844 C 464.847463 419.956844 464.847463 419.956844 462.71465 417.378719 C 460.581838 414.8045 456.312306 409.64825 451.300588 403.96075 C 446.292775 398.269344 440.538869 392.046687 433.644338 385.14825 C 426.749806 378.249812 418.71465 370.6795 411.863088 364.499812 C 405.015431 358.320125 399.347463 353.531062 393.999806 349.425594 C 388.648244 345.316219 383.616994 341.886531 377.65215 338.097469 C 371.687306 334.308406 364.788869 330.156062 358.601369 326.577937 C 352.417775 322.999812 346.945119 319.995906 341.581838 317.277156 C 336.218556 314.558406 330.968556 312.120906 325.409963 309.769344 C 319.851369 307.421687 313.984181 305.163875 308.734181 303.386531 C 303.480275 301.605281 298.843556 300.3045 291.378713 298.64825 C 283.913869 296.995906 273.624806 294.984187 264.269338 293.574031 C 254.917775 292.159969 246.503713 291.347469 238.222463 291.027156 C 229.941213 290.702937 221.800588 290.870906 212.710744 291.691219 C 203.6209 292.511531 193.585744 293.980281 183.667775 296.296687 C 173.7459 298.613094 163.945119 301.77325 159.042775 303.355281 C 154.140431 304.937312 154.140431 304.937312 154.140431 304.937312 " transform="matrix(1,0,0,-1,-58.8084,584.492)"/>
<path style="fill:none;stroke-width:4;stroke-linecap:butt;stroke-linejoin:round;stroke:rgb(0%,0%,0%);stroke-opacity:1;stroke-miterlimit:10;" d="M 159.187306 303.140437 C 159.187306 303.140437 159.187306 303.140437 157.65215 303.800594 C 156.116994 304.464656 153.046681 305.784969 149.534963 307.452937 C 146.023244 309.117 142.074025 311.124812 138.292775 313.226375 C 134.511525 315.324031 130.894338 317.519344 127.972463 319.339656 C 125.054494 321.159969 122.827931 322.605281 119.441213 325.08575 C 116.054494 327.566219 111.503713 331.077937 107.077931 334.749812 C 102.644338 338.421687 98.335744 342.249812 94.843556 345.581844 C 91.351369 348.913875 88.671681 351.745906 87.331838 353.159969 C 85.991994 354.574031 85.991994 354.574031 85.991994 354.574031 " transform="matrix(1,0,0,-1,-58.8084,584.492)"/>
<path style="fill:none;stroke-width:4;stroke-linecap:butt;stroke-linejoin:round;stroke:rgb(0%,0%,0%);stroke-opacity:1;stroke-dasharray:12;stroke-miterlimit:10;" d="M 75.699025 403.816219 C 75.699025 403.816219 75.699025 403.816219 78.261525 401.257625 C 80.827931 398.695125 85.952931 393.570125 90.886525 388.816219 C 95.816213 384.066219 100.554494 379.683406 106.476369 374.753719 C 112.394338 369.820125 119.499806 364.343562 126.163869 359.503719 C 132.827931 354.667781 139.046681 350.472469 146.113088 346.171687 C 153.179494 341.874812 161.08965 337.472469 169.288869 333.327937 C 177.488088 329.183406 185.980275 325.292781 194.749806 321.683406 C 203.515431 318.077937 212.5584 314.753719 220.421681 312.093562 C 228.281056 309.4295 234.96465 307.433406 241.218556 305.792781 C 247.472463 304.156062 253.296681 302.878719 257.812306 302.011531 C 262.327931 301.144344 265.531056 300.683406 269.71465 300.081844 C 273.898244 299.476375 279.062306 298.722469 284.976369 298.117 C 290.894338 297.507625 297.562306 297.042781 300.894338 296.812312 C 304.230275 296.581844 304.230275 296.581844 304.230275 296.581844 " transform="matrix(1,0,0,-1,-58.8084,584.492)"/>
<path style="fill:none;stroke-width:4;stroke-linecap:butt;stroke-linejoin:round;stroke:rgb(0%,0%,0%);stroke-opacity:1;stroke-dasharray:12;stroke-miterlimit:10;" d="M 303.9959 296.593562 C 303.9959 296.593562 303.9959 296.593562 307.363088 296.58575 C 310.734181 296.574031 317.476369 296.558406 325.667775 296.890437 C 333.859181 297.222469 343.503713 297.902156 350.363088 298.515437 C 357.218556 299.128719 361.292775 299.671687 367.320119 300.777156 C 373.347463 301.882625 381.324025 303.558406 388.452931 305.269344 C 395.581838 306.980281 401.859181 308.730281 407.773244 310.652156 C 413.687306 312.577937 419.238088 314.671687 424.324025 316.730281 C 429.409963 318.792781 434.031056 320.820125 438.749806 322.964656 C 443.468556 325.109187 448.281056 327.367 455.6209 331.421687 C 462.960744 335.480281 472.820119 341.331844 477.753713 344.257625 C 482.6834 347.187312 482.6834 347.187312 482.6834 347.187312 " transform="matrix(1,0,0,-1,-58.8084,584.492)"/>
<path style="fill:none;stroke-width:4;stroke-linecap:butt;stroke-linejoin:round;stroke:rgb(0%,0%,0%);stroke-opacity:1;stroke-miterlimit:10;" d="M 287.136525 582.492 L 287.124806 532.886531 " transform="matrix(1,0,0,-1,-58.8084,584.492)"/>
<path style="fill:none;stroke-width:4;stroke-linecap:butt;stroke-linejoin:round;stroke:rgb(0%,0%,0%);stroke-opacity:1;stroke-miterlimit:10;" d="M 287.085744 512.574031 L 287.08965 481.39825 " transform="matrix(1,0,0,-1,-58.8084,584.492)"/>
<path style="fill:none;stroke-width:4;stroke-linecap:butt;stroke-linejoin:miter;stroke:rgb(0%,0%,0%);stroke-opacity:1;stroke-miterlimit:10;" d="M 226.925588 538.538875 C 226.925588 538.538875 226.925588 538.538875 227.046681 538.109187 C 227.171681 537.6795 227.417775 536.820125 228.1834 535.83575 C 228.949025 534.855281 230.238088 533.749812 232.202931 532.492 C 234.167775 531.234187 236.8084 529.820125 239.999806 528.562312 C 243.191213 527.3045 246.937306 526.199031 251.355275 525.249812 C 255.77715 524.296687 260.874806 523.499812 266.0584 522.976375 C 271.2459 522.452937 276.52715 522.21075 282.081838 522.117 C 287.636525 522.02325 293.468556 522.08575 299.085744 522.331844 C 304.702931 522.577937 310.105275 523.007625 315.261525 523.89825 C 320.417775 524.788875 325.331838 526.136531 329.718556 527.796687 C 334.109181 529.452937 337.976369 531.417781 340.460744 533.011531 C 342.949025 534.609187 344.054494 535.83575 344.605275 537.156062 C 345.156056 538.476375 345.156056 539.886531 344.636525 541.238094 C 344.113088 542.589656 343.070119 543.878719 341.9334 544.952937 C 340.800588 546.027156 339.570119 546.886531 337.605275 547.9295 C 335.644338 548.972469 332.941213 550.202937 329.656056 551.46075 C 326.374806 552.718562 322.507619 554.007625 320.574025 554.652156 C 318.640431 555.296687 318.640431 555.296687 318.640431 555.296687 " transform="matrix(1,0,0,-1,-58.8084,584.492)"/>
<path style="fill-rule:evenodd;fill:rgb(0%,0%,0%);fill-opacity:1;stroke-width:4;stroke-linecap:butt;stroke-linejoin:miter;stroke:rgb(0%,0%,0%);stroke-opacity:1;stroke-miterlimit:10;" d="M 318.640431 555.296687 L 324.542775 550.870906 L 326.015431 555.296687 Z M 318.640431 555.296687 " transform="matrix(1,0,0,-1,-58.8084,584.492)"/>
<g clip-path="url(#clip3)" clip-rule="nonzero">
<path style="fill:none;stroke-width:4;stroke-linecap:butt;stroke-linejoin:round;stroke:rgb(0%,0%,0%);stroke-opacity:1;stroke-miterlimit:10;" d="M 287.136525 274.031062 L 286.988088 193.265437 " transform="matrix(1,0,0,-1,-58.8084,584.492)"/>
</g>
</g>
</svg>
