<?xml version="1.0" encoding="UTF-8"?>
<svg xmlns="http://www.w3.org/2000/svg" xmlns:xlink="http://www.w3.org/1999/xlink" width="528pt" height="528pt" viewBox="0 0 528 528" version="1.1">
<g id="surface1">
<path style=" stroke:none;fill-rule:evenodd;fill:rgb(78.399658%,78.399658%,78.399658%);fill-opacity:1;" d="M 8 8 L 520 8 L 520 520 L 8 520 L 8 8 "/>
<path style="fill:none;stroke-width:32;stroke-linecap:butt;stroke-linejoin:round;stroke:rgb(88.198853%,88.198853%,88.198853%);stroke-opacity:1;stroke-miterlimit:10;" d="M 214.25 419.175781 C 214.25 419.175781 214.25 419.175781 214.386719 416.460938 C 214.523438 413.746094 214.796875 408.316406 215.644531 401.511719 C 216.492188 394.707031 217.910156 386.527344 219.488281 379.46875 C 221.066406 372.414062 222.804688 366.484375 224.894531 360.683594 C 226.988281 354.882812 229.441406 349.210938 232.867188 343.183594 C 236.292969 337.152344 240.691406 330.765625 244.6875 325.953125 C 248.683594 321.140625 252.273438 317.902344 256.148438 315.199219 C 260.019531 312.496094 264.171875 310.332031 268.113281 308.945312 C 272.058594 307.558594 275.789062 306.945312 279.527344 306.988281 C 283.261719 307.03125 286.996094 307.730469 291.1875 309.492188 C 295.378906 311.257812 300.023438 314.085938 303.753906 316.90625 C 307.484375 319.730469 310.300781 322.546875 313.195312 325.976562 C 316.089844 329.40625 319.058594 333.445312 321.636719 337.445312 C 324.210938 341.449219 326.390625 345.40625 328.515625 349.894531 C 330.640625 354.382812 332.710938 359.402344 334.8125 365.699219 C 336.914062 371.996094 339.050781 379.566406 340.570312 386.882812 C 342.09375 394.199219 343.003906 401.257812 343.285156 408.082031 C 343.566406 414.90625 343.222656 421.492188 342.59375 427.785156 C 341.96875 434.078125 341.058594 440.082031 339.660156 446.613281 C 338.265625 453.140625 336.386719 460.195312 334.175781 467.066406 C 331.96875 473.9375 329.429688 480.625 326.445312 487.335938 C 323.460938 494.050781 320.023438 500.785156 316.96875 506.304688 C 313.914062 511.824219 311.242188 516.125 308.65625 520.035156 C 306.074219 523.945312 303.578125 527.460938 302.332031 529.21875 C 301.085938 530.976562 301.085938 530.976562 301.085938 530.976562 " transform="matrix(1,0,0,-1,-16,712)"/>
<path style="fill:none;stroke-width:32;stroke-linecap:butt;stroke-linejoin:round;stroke:rgb(88.198853%,88.198853%,88.198853%);stroke-opacity:1;stroke-miterlimit:10;" d="M 266.015625 567.261719 C 266.015625 567.261719 266.015625 567.261719 262.5 569.210938 C 258.988281 571.15625 251.960938 575.050781 246.15625 577.875 C 240.351562 580.699219 235.765625 582.453125 231.132812 583.929688 C 226.496094 585.402344 221.804688 586.597656 216.253906 587.578125 C 210.699219 588.558594 204.28125 589.324219 197.035156 589.347656 C 189.785156 589.375 181.703125 588.660156 174.992188 587.191406 C 168.285156 585.722656 162.945312 583.496094 158.519531 580.75 C 154.089844 578.003906 150.570312 574.730469 147.996094 571.554688 C 145.421875 568.375 143.785156 565.285156 142.558594 561.300781 C 141.328125 557.3125 140.507812 552.425781 140.421875 546.929688 C 140.335938 541.4375 140.992188 535.335938 141.851562 530.347656 C 142.714844 525.359375 143.785156 521.484375 145.425781 516.917969 C 147.066406 512.351562 149.277344 507.089844 151.832031 502.082031 C 154.386719 497.074219 157.285156 492.324219 160.226562 488.113281 C 163.167969 483.902344 166.148438 480.234375 168.917969 477.109375 C 171.683594 473.984375 174.238281 471.402344 177.992188 468.066406 C 181.742188 464.730469 186.6875 460.640625 191.867188 456.886719 C 197.046875 453.128906 202.457031 449.707031 206.683594 447.070312 C 210.90625 444.433594 213.949219 442.582031 218.105469 440.664062 C 222.265625 438.75 227.539062 436.769531 233.027344 435.050781 C 238.519531 433.328125 244.222656 431.867188 250.339844 430.804688 C 256.453125 429.738281 262.972656 429.074219 268.636719 428.800781 C 274.296875 428.527344 279.097656 428.644531 283.617188 428.949219 C 288.136719 429.257812 292.378906 429.753906 296.957031 430.515625 C 301.535156 431.28125 306.453125 432.316406 309.855469 433.097656 C 313.261719 433.882812 315.152344 434.417969 316.097656 434.683594 C 317.042969 434.949219 317.042969 434.949219 317.042969 434.949219 " transform="matrix(1,0,0,-1,-16,712)"/>
<path style="fill:none;stroke-width:64;stroke-linecap:butt;stroke-linejoin:round;stroke:rgb(78.399658%,78.399658%,78.399658%);stroke-opacity:1;stroke-miterlimit:10;" d="M 326.34375 574.871094 C 326.34375 574.871094 326.34375 574.871094 322.964844 573.53125 C 319.585938 572.1875 312.824219 569.5 305.335938 565.378906 C 297.847656 561.261719 289.632812 555.707031 282.945312 550.453125 C 276.257812 545.195312 271.097656 540.238281 267.28125 536.359375 C 263.46875 532.484375 260.996094 529.691406 259.761719 528.292969 C 258.527344 526.894531 258.527344 526.894531 258.527344 526.894531 " transform="matrix(1,0,0,-1,-16,712)"/>
<path style="fill:none;stroke-width:32;stroke-linecap:butt;stroke-linejoin:round;stroke:rgb(88.198853%,88.198853%,88.198853%);stroke-opacity:1;stroke-miterlimit:10;" d="M 363.367188 457.789062 C 363.367188 457.789062 363.367188 457.789062 365.617188 459.484375 C 367.867188 461.179688 372.367188 464.566406 376.503906 467.894531 C 380.644531 471.222656 384.421875 474.492188 388.550781 478.382812 C 392.679688 482.273438 397.160156 486.792969 401.058594 491.132812 C 404.953125 495.472656 408.265625 499.640625 410.984375 503.527344 C 413.699219 507.414062 415.820312 511.023438 417.59375 514.644531 C 419.363281 518.265625 420.78125 521.894531 421.9375 525.957031 C 423.09375 530.015625 423.980469 534.507812 424.339844 539.097656 C 424.695312 543.691406 424.523438 548.386719 423.769531 552.628906 C 423.011719 556.875 421.675781 560.667969 420.082031 563.792969 C 418.488281 566.917969 416.644531 569.371094 414.378906 571.574219 C 412.117188 573.773438 409.433594 575.722656 405.628906 577.480469 C 401.820312 579.234375 396.890625 580.796875 390.230469 581.644531 C 383.570312 582.488281 375.183594 582.621094 366.855469 582.054688 C 358.527344 581.488281 350.261719 580.222656 343.4375 578.878906 C 336.617188 577.53125 331.238281 576.105469 325.433594 574.171875 C 319.625 572.238281 313.386719 569.792969 307.359375 566.597656 C 301.332031 563.398438 295.515625 559.445312 290.101562 555.558594 C 284.6875 551.675781 279.675781 547.863281 275.316406 544.058594 C 270.953125 540.253906 267.246094 536.460938 263.652344 532.464844 C 260.054688 528.46875 256.570312 524.269531 252.800781 519.175781 C 249.03125 514.082031 244.976562 508.097656 241.460938 502.378906 C 237.945312 496.664062 234.96875 491.21875 232.273438 485.78125 C 229.574219 480.34375 227.160156 474.917969 225.949219 472.203125 C 224.742188 469.488281 224.742188 469.488281 224.742188 469.488281 " transform="matrix(1,0,0,-1,-16,712)"/>
<path style="fill:none;stroke-width:64;stroke-linecap:butt;stroke-linejoin:round;stroke:rgb(78.399658%,78.399658%,78.399658%);stroke-opacity:1;stroke-miterlimit:10;" d="M 194 460.863281 C 194 460.863281 194 460.863281 195.75 459.574219 C 197.5 458.285156 200.996094 455.703125 204.921875 453.074219 C 208.84375 450.445312 213.191406 447.769531 217.335938 445.453125 C 221.480469 443.136719 225.421875 441.179688 229.246094 439.480469 C 233.070312 437.78125 236.773438 436.34375 240.335938 435.128906 C 243.898438 433.910156 247.316406 432.921875 249.027344 432.425781 C 250.738281 431.929688 250.738281 431.929688 250.738281 431.929688 " transform="matrix(1,0,0,-1,-16,712)"/>
<path style="fill:none;stroke-width:64;stroke-linecap:butt;stroke-linejoin:round;stroke:rgb(78.399658%,78.399658%,78.399658%);stroke-opacity:1;stroke-miterlimit:10;" d="M 344.011719 405.582031 C 344.011719 405.582031 344.011719 405.582031 343.855469 409.847656 C 343.699219 414.109375 343.390625 422.640625 342.769531 429.285156 C 342.148438 435.929688 341.21875 440.691406 339.976562 446.09375 C 338.738281 451.496094 337.1875 457.539062 335.761719 462.519531 C 334.335938 467.5 333.039062 471.421875 332.386719 473.378906 C 331.738281 475.339844 331.738281 475.339844 331.738281 475.339844 " transform="matrix(1,0,0,-1,-16,712)"/>
<path style="fill:none;stroke-width:32;stroke-linecap:butt;stroke-linejoin:round;stroke:rgb(88.198853%,88.198853%,88.198853%);stroke-opacity:1;stroke-miterlimit:10;" d="M 342.609375 399.457031 C 342.609375 399.457031 342.609375 399.457031 342.6875 404.742188 C 342.765625 410.027344 342.921875 420.597656 342.535156 428.265625 C 342.148438 435.929688 341.21875 440.691406 339.976562 446.09375 C 338.738281 451.496094 337.1875 457.539062 335.539062 462.921875 C 333.894531 468.300781 332.15625 473.023438 331.285156 475.382812 C 330.417969 477.742188 330.417969 477.742188 330.417969 477.742188 " transform="matrix(1,0,0,-1,-16,712)"/>
<path style="fill:none;stroke-width:32;stroke-linecap:butt;stroke-linejoin:round;stroke:rgb(88.198853%,88.198853%,88.198853%);stroke-opacity:1;stroke-miterlimit:10;" d="M 183.695312 463.203125 C 183.695312 463.203125 183.695312 463.203125 185.828125 461.523438 C 187.964844 459.839844 192.230469 456.480469 196.535156 453.464844 C 200.84375 450.445312 205.191406 447.769531 209.335938 445.453125 C 213.480469 443.136719 217.421875 441.179688 223.085938 438.890625 C 228.75 436.601562 236.136719 433.988281 243.179688 432.304688 C 250.222656 430.621094 256.921875 429.878906 260.273438 429.503906 C 263.625 429.128906 263.625 429.128906 263.625 429.128906 " transform="matrix(1,0,0,-1,-16,712)"/>
<path style="fill:none;stroke-width:16;stroke-linecap:square;stroke-linejoin:round;stroke:rgb(0%,0%,0%);stroke-opacity:1;stroke-miterlimit:10;" d="M 88 640 L 472 640 L 472 256 L 88 256 L 88 640 " transform="matrix(1,0,0,-1,-16,712)"/>
<path style="fill:none;stroke-width:16;stroke-linecap:butt;stroke-linejoin:round;stroke:rgb(0%,0%,0%);stroke-opacity:1;stroke-miterlimit:10;" d="M 88 640 L 24 704 " transform="matrix(1,0,0,-1,-16,712)"/>
<path style="fill:none;stroke-width:16;stroke-linecap:butt;stroke-linejoin:round;stroke:rgb(0%,0%,0%);stroke-opacity:1;stroke-miterlimit:10;" d="M 472 640 L 536 704 " transform="matrix(1,0,0,-1,-16,712)"/>
<path style="fill:none;stroke-width:16;stroke-linecap:butt;stroke-linejoin:round;stroke:rgb(0%,0%,0%);stroke-opacity:1;stroke-miterlimit:10;" d="M 472 256 L 536 192 " transform="matrix(1,0,0,-1,-16,712)"/>
<path style="fill:none;stroke-width:16;stroke-linecap:square;stroke-linejoin:round;stroke:rgb(0%,0%,0%);stroke-opacity:1;stroke-miterlimit:10;" d="M 536 192 L 536 704 " transform="matrix(1,0,0,-1,-16,712)"/>
<path style="fill:none;stroke-width:16;stroke-linecap:square;stroke-linejoin:round;stroke:rgb(0%,0%,0%);stroke-opacity:1;stroke-miterlimit:10;" d="M 536 704 L 24 704 " transform="matrix(1,0,0,-1,-16,712)"/>
<path style="fill:none;stroke-width:16;stroke-linecap:square;stroke-linejoin:round;stroke:rgb(0%,0%,0%);stroke-opacity:1;stroke-miterlimit:10;" d="M 24 704 L 24 192 " transform="matrix(1,0,0,-1,-16,712)"/>
<path style="fill:none;stroke-width:16;stroke-linecap:butt;stroke-linejoin:round;stroke:rgb(0%,0%,0%);stroke-opacity:1;stroke-miterlimit:10;" d="M 24 192 L 88 256 " transform="matrix(1,0,0,-1,-16,712)"/>
<path style="fill:none;stroke-width:16;stroke-linecap:square;stroke-linejoin:round;stroke:rgb(0%,0%,0%);stroke-opacity:1;stroke-miterlimit:10;" d="M 24 192 L 536 192 " transform="matrix(1,0,0,-1,-16,712)"/>
<path style="fill-rule:evenodd;fill:rgb(88.198853%,88.198853%,88.198853%);fill-opacity:1;stroke-width:8;stroke-linecap:butt;stroke-linejoin:round;stroke:rgb(0%,0%,0%);stroke-opacity:1;stroke-miterlimit:10;" d="M 259.585938 550.46875 C 261.574219 552.378906 265.296875 555.941406 269.445312 559.574219 C 273.597656 563.207031 278.179688 566.917969 280.449219 568.757812 C 282.722656 570.59375 282.679688 570.5625 278.660156 573.757812 C 274.644531 576.953125 266.652344 583.371094 259.171875 588.277344 C 251.691406 593.183594 244.71875 596.570312 235.945312 599.355469 C 227.167969 602.140625 216.585938 604.316406 204.550781 605.253906 C 192.515625 606.1875 179.03125 605.875 166.113281 601.933594 C 153.195312 597.988281 140.851562 590.414062 133.484375 579.835938 C 126.117188 569.253906 123.734375 555.660156 123.59375 544.320312 C 123.457031 532.980469 125.5625 523.890625 129.09375 513.558594 C 132.621094 503.226562 137.570312 491.65625 146.769531 479.289062 C 155.972656 466.925781 169.429688 453.765625 181.507812 444.351562 C 193.582031 434.9375 204.273438 429.273438 215.167969 424.84375 C 226.0625 420.414062 237.152344 417.222656 248.527344 415.304688 C 259.898438 413.390625 271.550781 412.753906 284.578125 414.195312 C 297.609375 415.640625 312.015625 419.167969 319.21875 420.929688 C 326.425781 422.695312 326.425781 422.695312 326.046875 425.914062 C 325.667969 429.132812 324.914062 435.566406 323.886719 441.488281 C 322.855469 447.410156 321.554688 452.820312 321.070312 454.9375 C 320.585938 457.054688 320.921875 455.875 314.984375 453.296875 C 309.050781 450.71875 296.84375 446.738281 283.957031 445.265625 C 271.070312 443.796875 257.503906 444.835938 244.734375 448.105469 C 231.96875 451.378906 219.996094 456.882812 209.542969 463.308594 C 199.089844 469.734375 190.148438 477.074219 182.488281 485.734375 C 174.828125 494.394531 168.441406 504.367188 164.410156 512.167969 C 160.382812 519.96875 158.707031 525.59375 157.5 531.691406 C 156.292969 537.789062 155.558594 544.355469 156.507812 550.464844 C 157.460938 556.574219 160.097656 562.222656 164.765625 565.90625 C 169.429688 569.589844 176.121094 571.308594 182.722656 572.394531 C 189.324219 573.480469 195.835938 573.933594 203.089844 573.269531 C 210.34375 572.609375 218.347656 570.832031 227.46875 566.441406 C 236.59375 562.050781 246.84375 555.042969 252.09375 551.671875 C 257.347656 548.300781 257.601562 548.558594 259.585938 550.46875 Z M 259.585938 550.46875 " transform="matrix(1,0,0,-1,-16,712)"/>
<path style="fill-rule:evenodd;fill:rgb(88.198853%,88.198853%,88.198853%);fill-opacity:1;stroke-width:8;stroke-linecap:butt;stroke-linejoin:round;stroke:rgb(0%,0%,0%);stroke-opacity:1;stroke-miterlimit:10;" d="M 231.410156 419.332031 C 228.644531 420.226562 223.410156 421.941406 217.730469 424.214844 C 212.046875 426.488281 205.921875 429.324219 202.839844 430.75 C 199.757812 432.179688 199.722656 432.199219 199.746094 426.273438 C 199.773438 420.347656 199.863281 408.476562 200.445312 398.761719 C 201.03125 389.050781 202.109375 381.496094 204.0625 372.664062 C 206.019531 363.828125 208.851562 353.714844 213.570312 343.125 C 218.292969 332.539062 224.902344 321.480469 234.070312 311.835938 C 243.242188 302.191406 254.976562 293.964844 267.789062 291.808594 C 280.601562 289.648438 294.492188 293.5625 304.40625 299.5625 C 314.320312 305.566406 320.253906 313.65625 326.984375 322.621094 C 333.71875 331.582031 341.246094 341.414062 347.085938 355.351562 C 352.925781 369.285156 357.078125 387.320312 358.621094 402.445312 C 360.167969 417.566406 359.105469 429.777344 357.179688 441.273438 C 355.253906 452.765625 352.460938 463.539062 348.910156 474.230469 C 345.359375 484.925781 341.046875 495.539062 334.226562 507.691406 C 327.402344 519.84375 318.0625 533.53125 313.398438 540.382812 C 308.738281 547.230469 308.75 547.238281 306.164062 545.386719 C 303.582031 543.539062 298.402344 539.828125 293.789062 536.210938 C 289.183594 532.589844 285.144531 529.058594 283.207031 527.371094 C 281.269531 525.683594 281.433594 525.835938 285.898438 520.261719 C 290.363281 514.683594 299.136719 503.371094 306.011719 491.492188 C 312.886719 479.613281 317.863281 467.164062 321.238281 454.765625 C 324.609375 442.367188 326.371094 430.023438 326.839844 417.882812 C 327.304688 405.746094 326.476562 393.816406 323.707031 382.546875 C 320.9375 371.277344 316.230469 360.671875 312.097656 352.757812 C 307.960938 344.847656 304.402344 339.628906 299.675781 334.6875 C 294.945312 329.746094 289.054688 325.078125 282.914062 323.484375 C 276.777344 321.886719 270.390625 323.359375 265.386719 326.890625 C 260.386719 330.421875 256.765625 336.007812 253.171875 341.253906 C 249.582031 346.503906 246.019531 351.414062 243.03125 357.84375 C 240.039062 364.273438 237.621094 372.21875 236.335938 382.542969 C 235.054688 392.867188 234.90625 405.574219 234.6875 411.964844 C 234.46875 418.359375 234.175781 418.4375 231.410156 419.332031 Z M 231.410156 419.332031 " transform="matrix(1,0,0,-1,-16,712)"/>
<path style="fill-rule:evenodd;fill:rgb(88.198853%,88.198853%,88.198853%);fill-opacity:1;stroke-width:8;stroke-linecap:butt;stroke-linejoin:round;stroke:rgb(0%,0%,0%);stroke-opacity:1;stroke-miterlimit:10;" d="M 351.261719 466.195312 C 351.886719 463.773438 353.132812 458.945312 354.355469 453.515625 C 355.578125 448.089844 356.78125 442.0625 357.382812 439.046875 C 357.984375 436.03125 357.984375 436.03125 362.417969 438.738281 C 366.855469 441.445312 375.722656 446.859375 383.367188 451.738281 C 391.015625 456.613281 397.433594 460.957031 404.234375 467.164062 C 411.03125 473.375 418.210938 481.449219 425.035156 491.40625 C 431.863281 501.359375 438.335938 513.195312 441.382812 526.351562 C 444.425781 539.511719 444.039062 553.988281 438.558594 565.660156 C 433.074219 577.328125 422.5 586.191406 412.800781 591.144531 C 403.101562 596.097656 394.285156 597.140625 384.210938 597.527344 C 374.136719 597.914062 362.808594 597.644531 349.65625 595.691406 C 336.507812 593.734375 321.539062 590.09375 309.128906 585.171875 C 296.722656 580.246094 286.875 574.042969 277.570312 566.695312 C 268.265625 559.34375 259.496094 550.847656 251.675781 542.28125 C 243.851562 533.71875 236.972656 525.085938 229.667969 512.191406 C 222.363281 499.292969 214.632812 482.132812 210.769531 473.550781 C 206.910156 464.964844 206.921875 464.960938 209.484375 463.523438 C 212.050781 462.085938 217.167969 459.222656 222.550781 456.671875 C 227.933594 454.125 233.585938 451.894531 236.199219 450.847656 C 238.816406 449.796875 238.402344 449.929688 240.992188 457.621094 C 243.582031 465.3125 249.179688 480.566406 255.820312 492.914062 C 262.464844 505.261719 270.152344 514.699219 278.785156 523.265625 C 287.414062 531.828125 296.992188 539.515625 306.296875 545.652344 C 315.601562 551.789062 324.640625 556.375 334.554688 559.410156 C 344.464844 562.445312 355.253906 563.929688 363.820312 564.871094 C 372.382812 565.816406 378.722656 566.222656 384.453125 565.613281 C 390.1875 565.007812 395.3125 563.390625 399.761719 559.882812 C 404.214844 556.375 407.988281 550.980469 409.136719 545.25 C 410.28125 539.515625 408.800781 533.449219 406.640625 527.582031 C 404.484375 521.714844 401.648438 516.050781 397.335938 509.980469 C 393.019531 503.910156 387.21875 497.4375 379.1875 490.480469 C 371.15625 483.523438 360.890625 476.082031 355.761719 472.355469 C 350.632812 468.628906 350.636719 468.613281 351.261719 466.195312 Z M 351.261719 466.195312 " transform="matrix(1,0,0,-1,-16,712)"/>
</g>
</svg>
