<?xml version="1.0" encoding="UTF-8"?>
<svg xmlns="http://www.w3.org/2000/svg" xmlns:xlink="http://www.w3.org/1999/xlink" width="398.933pt" height="152.8pt" viewBox="0 0 398.933 152.8" version="1.1">
<defs>
<clipPath id="clip1">
  <path d="M 342 76 L 398.933594 76 L 398.933594 85 L 342 85 Z M 342 76 "/>
</clipPath>
<clipPath id="clip2">
  <path d="M 286 92 L 287 92 L 287 152.800781 L 286 152.800781 Z M 286 92 "/>
</clipPath>
</defs>
<g id="surface1">
<path style="fill:none;stroke-width:2;stroke-linecap:round;stroke-linejoin:round;stroke:rgb(0%,0%,0%);stroke-opacity:1;stroke-miterlimit:10;" d="M 419.99825 676.001562 L 419.99825 736.001562 " transform="matrix(1,0,0,-1,-97.467,750.4)"/>
<path style="fill:none;stroke-width:1.6;stroke-linecap:butt;stroke-linejoin:round;stroke:rgb(100%,100%,100%);stroke-opacity:1;stroke-miterlimit:10;" d="M 418.220906 691.458594 L 425.392781 692.485937 " transform="matrix(1,0,0,-1,-97.467,750.4)"/>
<path style="fill:none;stroke-width:2;stroke-linecap:round;stroke-linejoin:round;stroke:rgb(0%,0%,0%);stroke-opacity:1;stroke-miterlimit:10;" d="M 363.99825 668.001562 L 363.99825 728.001562 " transform="matrix(1,0,0,-1,-97.467,750.4)"/>
<path style="fill:none;stroke-width:1.6;stroke-linecap:butt;stroke-linejoin:round;stroke:rgb(100%,100%,100%);stroke-opacity:1;stroke-miterlimit:10;" d="M 361.802937 683.4 L 369.295125 684.470312 " transform="matrix(1,0,0,-1,-97.467,750.4)"/>
<path style="fill:none;stroke-width:2;stroke-linecap:round;stroke-linejoin:round;stroke:rgb(0%,0%,0%);stroke-opacity:1;stroke-miterlimit:10;" d="M 307.99825 660.001562 L 307.99825 720.001562 " transform="matrix(1,0,0,-1,-97.467,750.4)"/>
<path style="fill:none;stroke-width:2;stroke-linecap:round;stroke-linejoin:round;stroke:rgb(0%,0%,0%);stroke-opacity:1;stroke-miterlimit:10;" d="M 419.99825 676.001562 L 307.99825 660.001562 " transform="matrix(1,0,0,-1,-97.467,750.4)"/>
<path style="fill:none;stroke-width:1.6;stroke-linecap:butt;stroke-linejoin:round;stroke:rgb(100%,100%,100%);stroke-opacity:1;stroke-miterlimit:10;" d="M 407.99825 675.845312 L 407.99825 670.864844 " transform="matrix(1,0,0,-1,-97.467,750.4)"/>
<path style="fill:none;stroke-width:2;stroke-linecap:round;stroke-linejoin:round;stroke:rgb(0%,0%,0%);stroke-opacity:1;stroke-miterlimit:10;" d="M 483.99825 628.001562 L 419.99825 676.001562 " transform="matrix(1,0,0,-1,-97.467,750.4)"/>
<path style="fill:none;stroke-width:2;stroke-linecap:round;stroke-linejoin:round;stroke:rgb(0%,0%,0%);stroke-opacity:1;stroke-miterlimit:10;" d="M 307.99825 720.001562 L 419.99825 736.001562 " transform="matrix(1,0,0,-1,-97.467,750.4)"/>
<path style="fill:none;stroke-width:0.8;stroke-linecap:round;stroke-linejoin:round;stroke:rgb(0%,0%,0%);stroke-opacity:1;stroke-miterlimit:10;" d="M 463.99825 698.001562 L 407.99825 690.001562 " transform="matrix(1,0,0,-1,-97.467,750.4)"/>
<path style="fill:none;stroke-width:0.8;stroke-linecap:round;stroke-linejoin:round;stroke:rgb(0%,0%,0%);stroke-opacity:1;stroke-miterlimit:10;" d="M 351.99825 682.001562 L 407.99825 690.001562 " transform="matrix(1,0,0,-1,-97.467,750.4)"/>
<path style="fill:none;stroke-width:0.8;stroke-linecap:round;stroke-linejoin:round;stroke:rgb(0%,0%,0%);stroke-opacity:1;stroke-miterlimit:10;" d="M 407.99825 690.001562 L 375.99825 714.001562 " transform="matrix(1,0,0,-1,-97.467,750.4)"/>
<path style="fill:none;stroke-width:0.8;stroke-linecap:round;stroke-linejoin:round;stroke:rgb(0%,0%,0%);stroke-opacity:1;stroke-miterlimit:10;" d="M 407.99825 630.001562 L 407.99825 690.001562 " transform="matrix(1,0,0,-1,-97.467,750.4)"/>
<path style="fill:none;stroke-width:1.6;stroke-linecap:butt;stroke-linejoin:round;stroke:rgb(100%,100%,100%);stroke-opacity:1;stroke-miterlimit:10;" d="M 351.99825 671.821875 L 351.99825 659.372656 " transform="matrix(1,0,0,-1,-97.467,750.4)"/>
<path style="fill:none;stroke-width:0.8;stroke-linecap:round;stroke-linejoin:round;stroke:rgb(0%,0%,0%);stroke-opacity:1;stroke-miterlimit:10;" d="M 351.99825 622.001562 L 351.99825 682.001562 " transform="matrix(1,0,0,-1,-97.467,750.4)"/>
<path style="fill:none;stroke-width:2;stroke-linecap:butt;stroke-linejoin:round;stroke:rgb(0%,0%,0%);stroke-opacity:1;stroke-miterlimit:10;" d="M 100.357625 710.423437 L 127.709188 735.040625 L 155.744344 714.528906 L 135.916219 691.9625 Z M 100.357625 710.423437 " transform="matrix(1,0,0,-1,-97.467,750.4)"/>
<path style="fill:none;stroke-width:2;stroke-linecap:butt;stroke-linejoin:round;stroke:rgb(0%,0%,0%);stroke-opacity:1;stroke-miterlimit:10;" d="M 135.916219 691.9625 L 157.111531 671.446875 L 155.744344 714.528906 Z M 135.916219 691.9625 " transform="matrix(1,0,0,-1,-97.467,750.4)"/>
<path style="fill:none;stroke-width:2;stroke-linecap:butt;stroke-linejoin:round;stroke:rgb(0%,0%,0%);stroke-opacity:1;stroke-miterlimit:10;" d="M 155.744344 714.528906 L 181.728719 724.782812 L 209.080281 702.220312 L 193.353719 668.7125 L 157.111531 671.446875 Z M 155.744344 714.528906 " transform="matrix(1,0,0,-1,-97.467,750.4)"/>
<path style="fill:none;stroke-width:2;stroke-linecap:butt;stroke-linejoin:round;stroke:rgb(0%,0%,0%);stroke-opacity:1;stroke-miterlimit:10;" d="M 157.111531 671.446875 L 140.017781 646.833594 L 111.982625 673.501562 L 135.916219 691.9625 Z M 157.111531 671.446875 " transform="matrix(1,0,0,-1,-97.467,750.4)"/>
<path style="fill:none;stroke-width:2;stroke-linecap:butt;stroke-linejoin:round;stroke:rgb(0%,0%,0%);stroke-opacity:1;stroke-miterlimit:10;" d="M 157.111531 671.446875 L 194.720906 639.99375 L 193.353719 668.7125 Z M 157.111531 671.446875 " transform="matrix(1,0,0,-1,-97.467,750.4)"/>
<path style="fill:none;stroke-width:2;stroke-linecap:butt;stroke-linejoin:round;stroke:rgb(0%,0%,0%);stroke-opacity:1;stroke-miterlimit:10;" d="M 140.017781 646.833594 L 147.541219 620.849219 L 183.095906 620.165625 L 194.720906 639.99375 L 157.111531 671.446875 Z M 140.017781 646.833594 " transform="matrix(1,0,0,-1,-97.467,750.4)"/>
<path style="fill:none;stroke-width:2;stroke-linecap:butt;stroke-linejoin:round;stroke:rgb(0%,0%,0%);stroke-opacity:1;stroke-miterlimit:10;" d="M 193.353719 668.7125 L 226.857625 676.235937 L 209.080281 702.220312 Z M 193.353719 668.7125 " transform="matrix(1,0,0,-1,-97.467,750.4)"/>
<path style="fill:none;stroke-width:2;stroke-linecap:butt;stroke-linejoin:round;stroke:rgb(0%,0%,0%);stroke-opacity:1;stroke-miterlimit:10;" d="M 194.720906 639.99375 L 232.330281 635.208594 L 226.857625 676.235937 L 193.353719 668.7125 Z M 194.720906 639.99375 " transform="matrix(1,0,0,-1,-97.467,750.4)"/>
<path style="fill:none;stroke-width:2;stroke-linecap:butt;stroke-linejoin:round;stroke:rgb(0%,0%,0%);stroke-opacity:1;stroke-miterlimit:10;" d="M 140.017781 646.833594 L 109.24825 635.208594 L 111.982625 673.501562 Z M 140.017781 646.833594 " transform="matrix(1,0,0,-1,-97.467,750.4)"/>
<path style="fill:none;stroke-width:2;stroke-linecap:butt;stroke-linejoin:round;stroke:rgb(0%,0%,0%);stroke-opacity:1;stroke-miterlimit:10;" d="M 111.982625 673.501562 L 100.357625 710.423437 L 135.916219 691.9625 Z M 111.982625 673.501562 " transform="matrix(1,0,0,-1,-97.467,750.4)"/>
<path style="fill:none;stroke-width:2;stroke-linecap:butt;stroke-linejoin:round;stroke:rgb(0%,0%,0%);stroke-opacity:1;stroke-miterlimit:10;" d="M 181.728719 724.782812 L 225.490438 731.622656 L 209.080281 702.220312 Z M 181.728719 724.782812 " transform="matrix(1,0,0,-1,-97.467,750.4)"/>
<path style="fill:none;stroke-width:2;stroke-linecap:butt;stroke-linejoin:round;stroke:rgb(0%,0%,0%);stroke-opacity:1;stroke-miterlimit:10;" d="M 127.709188 735.040625 L 181.728719 724.782812 L 155.744344 714.528906 Z M 127.709188 735.040625 " transform="matrix(1,0,0,-1,-97.467,750.4)"/>
<path style="fill:none;stroke-width:2;stroke-linecap:butt;stroke-linejoin:round;stroke:rgb(0%,0%,0%);stroke-opacity:1;stroke-miterlimit:10;" d="M 226.857625 676.235937 L 253.525594 705.638281 L 225.490438 731.622656 L 209.080281 702.220312 Z M 226.857625 676.235937 " transform="matrix(1,0,0,-1,-97.467,750.4)"/>
<path style="fill:none;stroke-width:2;stroke-linecap:butt;stroke-linejoin:round;stroke:rgb(0%,0%,0%);stroke-opacity:1;stroke-miterlimit:10;" d="M 232.330281 635.208594 L 266.517781 648.200781 L 226.857625 676.235937 Z M 232.330281 635.208594 " transform="matrix(1,0,0,-1,-97.467,750.4)"/>
<path style="fill:none;stroke-width:2;stroke-linecap:butt;stroke-linejoin:round;stroke:rgb(0%,0%,0%);stroke-opacity:1;stroke-miterlimit:10;" d="M 266.517781 648.200781 L 278.142781 682.388281 L 253.525594 705.638281 L 226.857625 676.235937 Z M 266.517781 648.200781 " transform="matrix(1,0,0,-1,-97.467,750.4)"/>
<path style="fill:none;stroke-width:2;stroke-linecap:butt;stroke-linejoin:round;stroke:rgb(0%,0%,0%);stroke-opacity:1;stroke-miterlimit:10;" d="M 183.095906 620.165625 L 232.330281 635.208594 Z M 183.095906 620.165625 " transform="matrix(1,0,0,-1,-97.467,750.4)"/>
<path style="fill:none;stroke-width:2;stroke-linecap:butt;stroke-linejoin:round;stroke:rgb(0%,0%,0%);stroke-opacity:1;stroke-miterlimit:10;" d="M 147.541219 620.849219 L 109.24825 635.208594 Z M 147.541219 620.849219 " transform="matrix(1,0,0,-1,-97.467,750.4)"/>
<path style=" stroke:none;fill-rule:evenodd;fill:rgb(0%,0%,0%);fill-opacity:1;" d="M 33.414062 37.179688 C 33.414062 36.1875 32.609375 35.382812 31.613281 35.382812 C 30.621094 35.382812 29.816406 36.1875 29.816406 37.179688 C 29.816406 38.175781 30.621094 38.980469 31.613281 38.980469 C 32.609375 38.980469 33.414062 38.175781 33.414062 37.179688 "/>
<path style=" stroke:none;fill-rule:evenodd;fill:rgb(0%,0%,0%);fill-opacity:1;" d="M 20.246094 59.207031 C 20.246094 58.214844 19.441406 57.40625 18.445312 57.40625 C 17.453125 57.40625 16.648438 58.214844 16.648438 59.207031 C 16.648438 60.199219 17.453125 61.007812 18.445312 61.007812 C 19.441406 61.007812 20.246094 60.199219 20.246094 59.207031 "/>
<path style=" stroke:none;fill-rule:evenodd;fill:rgb(0%,0%,0%);fill-opacity:1;" d="M 53.527344 57.054688 C 53.527344 56.058594 52.71875 55.253906 51.726562 55.253906 C 50.730469 55.253906 49.925781 56.058594 49.925781 57.054688 C 49.925781 58.046875 50.730469 58.851562 51.726562 58.851562 C 52.71875 58.851562 53.527344 58.046875 53.527344 57.054688 "/>
<path style=" stroke:none;fill-rule:evenodd;fill:rgb(0%,0%,0%);fill-opacity:1;" d="M 39.640625 79.316406 C 39.640625 78.324219 38.835938 77.519531 37.839844 77.519531 C 36.847656 77.519531 36.039062 78.324219 36.039062 79.316406 C 36.039062 80.3125 36.847656 81.117188 37.839844 81.117188 C 38.835938 81.117188 39.640625 80.3125 39.640625 79.316406 "/>
<path style=" stroke:none;fill-rule:evenodd;fill:rgb(0%,0%,0%);fill-opacity:1;" d="M 24.078125 97.515625 C 24.078125 96.519531 23.273438 95.714844 22.277344 95.714844 C 21.285156 95.714844 20.476562 96.519531 20.476562 97.515625 C 20.476562 98.507812 21.285156 99.3125 22.277344 99.3125 C 23.273438 99.3125 24.078125 98.507812 24.078125 97.515625 "/>
<path style=" stroke:none;fill-rule:evenodd;fill:rgb(0%,0%,0%);fill-opacity:1;" d="M 36.765625 115.949219 C 36.765625 114.953125 35.960938 114.148438 34.96875 114.148438 C 33.972656 114.148438 33.167969 114.953125 33.167969 115.949219 C 33.167969 116.941406 33.972656 117.75 34.96875 117.75 C 35.960938 117.75 36.765625 116.941406 36.765625 115.949219 "/>
<path style=" stroke:none;fill-rule:evenodd;fill:rgb(0%,0%,0%);fill-opacity:1;" d="M 70.046875 108.527344 C 70.046875 107.53125 69.238281 106.726562 68.246094 106.726562 C 67.25 106.726562 66.445312 107.53125 66.445312 108.527344 C 66.445312 109.519531 67.25 110.328125 68.246094 110.328125 C 69.238281 110.328125 70.046875 109.519531 70.046875 108.527344 "/>
<path style=" stroke:none;fill-rule:evenodd;fill:rgb(0%,0%,0%);fill-opacity:1;" d="M 87.523438 90.332031 C 87.523438 89.335938 86.714844 88.53125 85.722656 88.53125 C 84.726562 88.53125 83.921875 89.335938 83.921875 90.332031 C 83.921875 91.324219 84.726562 92.132812 85.722656 92.132812 C 86.714844 92.132812 87.523438 91.324219 87.523438 90.332031 "/>
<path style=" stroke:none;fill-rule:evenodd;fill:rgb(0%,0%,0%);fill-opacity:1;" d="M 82.496094 52.742188 C 82.496094 51.75 81.6875 50.941406 80.695312 50.941406 C 79.699219 50.941406 78.894531 51.75 78.894531 52.742188 C 78.894531 53.738281 79.699219 54.542969 80.695312 54.542969 C 81.6875 54.542969 82.496094 53.738281 82.496094 52.742188 "/>
<path style=" stroke:none;fill-rule:evenodd;fill:rgb(0%,0%,0%);fill-opacity:1;" d="M 111.222656 30.71875 C 111.222656 29.722656 110.417969 28.917969 109.425781 28.917969 C 108.429688 28.917969 107.625 29.722656 107.625 30.71875 C 107.625 31.710938 108.429688 32.515625 109.425781 32.515625 C 110.417969 32.515625 111.222656 31.710938 111.222656 30.71875 "/>
<path style=" stroke:none;fill-rule:evenodd;fill:rgb(0%,0%,0%);fill-opacity:1;" d="M 60.945312 25.929688 C 60.945312 24.933594 60.140625 24.128906 59.148438 24.128906 C 58.152344 24.128906 57.347656 24.933594 57.347656 25.929688 C 57.347656 26.921875 58.152344 27.730469 59.148438 27.730469 C 60.140625 27.730469 60.945312 26.921875 60.945312 25.929688 "/>
<path style=" stroke:none;fill-rule:evenodd;fill:rgb(0%,0%,0%);fill-opacity:1;" d="M 133.96875 45.5625 C 133.96875 44.566406 133.164062 43.761719 132.167969 43.761719 C 131.175781 43.761719 130.367188 44.566406 130.367188 45.5625 C 130.367188 46.554688 131.175781 47.359375 132.167969 47.359375 C 133.164062 47.359375 133.96875 46.554688 133.96875 45.5625 "/>
<path style=" stroke:none;fill-rule:evenodd;fill:rgb(0%,0%,0%);fill-opacity:1;" d="M 114.574219 66.628906 C 114.574219 65.636719 113.769531 64.828125 112.777344 64.828125 C 111.78125 64.828125 110.976562 65.636719 110.976562 66.628906 C 110.976562 67.621094 111.78125 68.429688 112.777344 68.429688 C 113.769531 68.429688 114.574219 67.621094 114.574219 66.628906 "/>
<path style=" stroke:none;fill-rule:evenodd;fill:rgb(0%,0%,0%);fill-opacity:1;" d="M 116.253906 95.839844 C 116.253906 94.84375 115.445312 94.039062 114.453125 94.039062 C 113.457031 94.039062 112.652344 94.84375 112.652344 95.839844 C 112.652344 96.832031 113.457031 97.636719 114.453125 97.636719 C 115.445312 97.636719 116.253906 96.832031 116.253906 95.839844 "/>
<path style=" stroke:none;fill-rule:evenodd;fill:rgb(0%,0%,0%);fill-opacity:1;" d="M 107.394531 117.863281 C 107.394531 116.871094 106.589844 116.0625 105.59375 116.0625 C 104.601562 116.0625 103.792969 116.871094 103.792969 117.863281 C 103.792969 118.859375 104.601562 119.664062 105.59375 119.664062 C 106.589844 119.664062 107.394531 118.859375 107.394531 117.863281 "/>
<path style=" stroke:none;fill-rule:evenodd;fill:rgb(0%,0%,0%);fill-opacity:1;" d="M 147.136719 98.710938 C 147.136719 97.71875 146.328125 96.910156 145.335938 96.910156 C 144.34375 96.910156 143.535156 97.71875 143.535156 98.710938 C 143.535156 99.703125 144.34375 100.511719 145.335938 100.511719 C 146.328125 100.511719 147.136719 99.703125 147.136719 98.710938 "/>
<path style=" stroke:none;fill-rule:evenodd;fill:rgb(0%,0%,0%);fill-opacity:1;" d="M 159.105469 73.09375 C 159.105469 72.097656 158.300781 71.292969 157.308594 71.292969 C 156.3125 71.292969 155.507812 72.097656 155.507812 73.09375 C 155.507812 74.085938 156.3125 74.894531 157.308594 74.894531 C 158.300781 74.894531 159.105469 74.085938 159.105469 73.09375 "/>
<path style="fill:none;stroke-width:0.8;stroke-linecap:butt;stroke-linejoin:round;stroke:rgb(0%,0%,0%);stroke-opacity:1;stroke-miterlimit:10;" d="M 129.080281 713.220312 L 156.615438 724.470312 L 178.162313 697.657812 L 149.193563 693.345312 L 129.080281 713.220312 L 115.912313 691.192969 L 135.306844 671.083594 L 149.193563 693.345312 " transform="matrix(1,0,0,-1,-97.467,750.4)"/>
<path style="fill:none;stroke-width:0.8;stroke-linecap:butt;stroke-linejoin:round;stroke:rgb(0%,0%,0%);stroke-opacity:1;stroke-miterlimit:10;" d="M 135.306844 671.083594 L 119.744344 652.884375 L 132.43575 634.450781 L 165.713094 641.872656 L 135.306844 671.083594 " transform="matrix(1,0,0,-1,-97.467,750.4)"/>
<path style="fill:none;stroke-width:0.8;stroke-linecap:butt;stroke-linejoin:round;stroke:rgb(0%,0%,0%);stroke-opacity:1;stroke-miterlimit:10;" d="M 165.713094 641.872656 L 183.189656 660.067969 L 178.162313 697.657812 L 206.892781 719.68125 L 229.634969 704.8375 L 210.244344 683.771094 L 178.162313 697.657812 " transform="matrix(1,0,0,-1,-97.467,750.4)"/>
<path style="fill:none;stroke-width:0.8;stroke-linecap:butt;stroke-linejoin:round;stroke:rgb(0%,0%,0%);stroke-opacity:1;stroke-miterlimit:10;" d="M 203.06075 632.536719 L 211.920125 654.560156 L 183.189656 660.067969 " transform="matrix(1,0,0,-1,-97.467,750.4)"/>
<path style="fill:none;stroke-width:0.8;stroke-linecap:butt;stroke-linejoin:round;stroke:rgb(0%,0%,0%);stroke-opacity:1;stroke-miterlimit:10;" d="M 242.802938 651.689062 L 211.920125 654.560156 L 210.244344 683.771094 " transform="matrix(1,0,0,-1,-97.467,750.4)"/>
<path style="fill:none;stroke-width:0.8;stroke-linecap:butt;stroke-linejoin:round;stroke:rgb(0%,0%,0%);stroke-opacity:1;stroke-miterlimit:10;" d="M 242.802938 651.689062 L 254.775594 677.30625 L 229.634969 704.8375 " transform="matrix(1,0,0,-1,-97.467,750.4)"/>
<path style="fill:none;stroke-width:0.8;stroke-linecap:butt;stroke-linejoin:round;stroke:rgb(0%,0%,0%);stroke-opacity:1;stroke-miterlimit:10;" d="M 203.06075 632.536719 L 165.713094 641.872656 L 165.43575 607.849219 " transform="matrix(1,0,0,-1,-97.467,750.4)"/>
<path style="fill:none;stroke-width:0.8;stroke-linecap:butt;stroke-linejoin:round;stroke:rgb(0%,0%,0%);stroke-opacity:1;stroke-miterlimit:10;" d="M 203.06075 632.536719 L 209.318563 614.696875 " transform="matrix(1,0,0,-1,-97.467,750.4)"/>
<path style="fill:none;stroke-width:0.8;stroke-linecap:butt;stroke-linejoin:round;stroke:rgb(0%,0%,0%);stroke-opacity:1;stroke-miterlimit:10;" d="M 242.802938 651.689062 L 256.006062 629.946875 " transform="matrix(1,0,0,-1,-97.467,750.4)"/>
<path style="fill:none;stroke-width:4;stroke-linecap:butt;stroke-linejoin:round;stroke:rgb(100%,100%,100%);stroke-opacity:1;stroke-miterlimit:10;" d="M 401.99825 639.501562 L 419.443562 626.419531 " transform="matrix(1,0,0,-1,-97.467,750.4)"/>
<path style="fill:none;stroke-width:0.8;stroke-linecap:butt;stroke-linejoin:round;stroke:rgb(0%,0%,0%);stroke-opacity:1;stroke-miterlimit:10;" d="M 254.775594 677.30625 L 282.459187 663.560156 " transform="matrix(1,0,0,-1,-97.467,750.4)"/>
<path style="fill:none;stroke-width:0.8;stroke-linecap:butt;stroke-linejoin:round;stroke:rgb(0%,0%,0%);stroke-opacity:1;stroke-miterlimit:10;" d="M 254.775594 677.30625 L 275.302937 701.532812 " transform="matrix(1,0,0,-1,-97.467,750.4)"/>
<path style="fill:none;stroke-width:0.8;stroke-linecap:butt;stroke-linejoin:round;stroke:rgb(0%,0%,0%);stroke-opacity:1;stroke-miterlimit:10;" d="M 229.634969 704.8375 L 247.912313 723.939062 " transform="matrix(1,0,0,-1,-97.467,750.4)"/>
<path style="fill:none;stroke-width:0.8;stroke-linecap:butt;stroke-linejoin:round;stroke:rgb(0%,0%,0%);stroke-opacity:1;stroke-miterlimit:10;" d="M 206.892781 719.68125 L 204.0295 740.435156 " transform="matrix(1,0,0,-1,-97.467,750.4)"/>
<path style="fill:none;stroke-width:4;stroke-linecap:butt;stroke-linejoin:round;stroke:rgb(100%,100%,100%);stroke-opacity:1;stroke-miterlimit:10;" d="M 347.595906 637.083594 L 361.244344 639.036719 " transform="matrix(1,0,0,-1,-97.467,750.4)"/>
<path style="fill:none;stroke-width:0.8;stroke-linecap:butt;stroke-linejoin:round;stroke:rgb(0%,0%,0%);stroke-opacity:1;stroke-miterlimit:10;" d="M 156.615438 724.470312 L 160.455281 741.060156 " transform="matrix(1,0,0,-1,-97.467,750.4)"/>
<path style="fill:none;stroke-width:4;stroke-linecap:butt;stroke-linejoin:round;stroke:rgb(100%,100%,100%);stroke-opacity:1;stroke-miterlimit:10;" d="M 405.642781 645.376562 L 412.974812 646.423437 " transform="matrix(1,0,0,-1,-97.467,750.4)"/>
<path style="fill:none;stroke-width:0.8;stroke-linecap:butt;stroke-linejoin:round;stroke:rgb(0%,0%,0%);stroke-opacity:1;stroke-miterlimit:10;" d="M 129.080281 713.220312 L 109.119344 732.442969 " transform="matrix(1,0,0,-1,-97.467,750.4)"/>
<path style="fill:none;stroke-width:4;stroke-linecap:butt;stroke-linejoin:round;stroke:rgb(100%,100%,100%);stroke-opacity:1;stroke-miterlimit:10;" d="M 451.99825 702.942969 L 451.99825 690.536719 " transform="matrix(1,0,0,-1,-97.467,750.4)"/>
<path style="fill:none;stroke-width:4;stroke-linecap:butt;stroke-linejoin:round;stroke:rgb(100%,100%,100%);stroke-opacity:1;stroke-miterlimit:10;" d="M 395.99825 701.177344 L 395.99825 682.888281 " transform="matrix(1,0,0,-1,-97.467,750.4)"/>
<path style="fill:none;stroke-width:0.8;stroke-linecap:butt;stroke-linejoin:round;stroke:rgb(0%,0%,0%);stroke-opacity:1;stroke-miterlimit:10;" d="M 115.912313 691.192969 L 97.865438 687.911719 " transform="matrix(1,0,0,-1,-97.467,750.4)"/>
<path style="fill:none;stroke-width:0.8;stroke-linecap:butt;stroke-linejoin:round;stroke:rgb(0%,0%,0%);stroke-opacity:1;stroke-miterlimit:10;" d="M 119.744344 652.884375 L 98.826375 657.267187 " transform="matrix(1,0,0,-1,-97.467,750.4)"/>
<path style="fill:none;stroke-width:0.8;stroke-linecap:butt;stroke-linejoin:round;stroke:rgb(0%,0%,0%);stroke-opacity:1;stroke-miterlimit:10;" d="M 132.43575 634.450781 L 125.638875 618.239844 " transform="matrix(1,0,0,-1,-97.467,750.4)"/>
<path style="fill:none;stroke-width:2;stroke-linecap:round;stroke-linejoin:round;stroke:rgb(0%,0%,0%);stroke-opacity:1;stroke-miterlimit:10;" d="M 339.99825 696.001562 L 451.99825 712.001562 " transform="matrix(1,0,0,-1,-97.467,750.4)"/>
<path style="fill:none;stroke-width:2;stroke-linecap:round;stroke-linejoin:round;stroke:rgb(0%,0%,0%);stroke-opacity:1;stroke-miterlimit:10;" d="M 363.99825 668.001562 L 427.99825 620.001562 " transform="matrix(1,0,0,-1,-97.467,750.4)"/>
<path style="fill:none;stroke-width:2;stroke-linecap:round;stroke-linejoin:round;stroke:rgb(0%,0%,0%);stroke-opacity:1;stroke-miterlimit:10;" d="M 339.99825 636.001562 L 451.99825 652.001562 " transform="matrix(1,0,0,-1,-97.467,750.4)"/>
<path style="fill:none;stroke-width:2;stroke-linecap:round;stroke-linejoin:round;stroke:rgb(0%,0%,0%);stroke-opacity:1;stroke-miterlimit:10;" d="M 451.99825 652.001562 L 451.99825 712.001562 " transform="matrix(1,0,0,-1,-97.467,750.4)"/>
<path style="fill:none;stroke-width:1.6;stroke-linecap:butt;stroke-linejoin:round;stroke:rgb(100%,100%,100%);stroke-opacity:1;stroke-miterlimit:10;" d="M 302.267781 674.896094 L 319.431844 677.345312 " transform="matrix(1,0,0,-1,-97.467,750.4)"/>
<path style="fill:none;stroke-width:2;stroke-linecap:round;stroke-linejoin:round;stroke:rgb(0%,0%,0%);stroke-opacity:1;stroke-miterlimit:10;" d="M 395.99825 644.001562 L 395.99825 704.001562 " transform="matrix(1,0,0,-1,-97.467,750.4)"/>
<path style="fill:none;stroke-width:1.6;stroke-linecap:butt;stroke-linejoin:round;stroke:rgb(100%,100%,100%);stroke-opacity:1;stroke-miterlimit:10;" d="M 390.939656 658.989844 L 423.115437 663.5875 " transform="matrix(1,0,0,-1,-97.467,750.4)"/>
<path style="fill:none;stroke-width:1.6;stroke-linecap:butt;stroke-linejoin:round;stroke:rgb(100%,100%,100%);stroke-opacity:1;stroke-miterlimit:10;" d="M 431.045125 664.720312 L 437.353719 665.622656 " transform="matrix(1,0,0,-1,-97.467,750.4)"/>
<path style="fill:none;stroke-width:1.6;stroke-linecap:butt;stroke-linejoin:round;stroke:rgb(100%,100%,100%);stroke-opacity:1;stroke-miterlimit:10;" d="M 358.345906 677.239844 L 370.556844 668.079687 " transform="matrix(1,0,0,-1,-97.467,750.4)"/>
<path style=" stroke:none;fill-rule:evenodd;fill:rgb(0%,0%,0%);fill-opacity:1;" d="M 288.332031 92.398438 C 288.332031 91.40625 287.527344 90.601562 286.53125 90.601562 C 285.539062 90.601562 284.734375 91.40625 284.734375 92.398438 C 284.734375 93.394531 285.539062 94.199219 286.53125 94.199219 C 287.527344 94.199219 288.332031 93.394531 288.332031 92.398438 "/>
<path style="fill:none;stroke-width:1.6;stroke-linecap:butt;stroke-linejoin:round;stroke:rgb(100%,100%,100%);stroke-opacity:1;stroke-miterlimit:10;" d="M 407.99825 739.30625 L 407.99825 727.591406 " transform="matrix(1,0,0,-1,-97.467,750.4)"/>
<path style="fill:none;stroke-width:1.6;stroke-linecap:butt;stroke-linejoin:round;stroke:rgb(100%,100%,100%);stroke-opacity:1;stroke-miterlimit:10;" d="M 413.724812 685.704687 L 420.767781 680.427344 " transform="matrix(1,0,0,-1,-97.467,750.4)"/>
<path style=" stroke:none;fill-rule:evenodd;fill:rgb(0%,0%,0%);fill-opacity:1;" d="M 256.332031 68.398438 C 256.332031 67.40625 255.527344 66.601562 254.53125 66.601562 C 253.539062 66.601562 252.734375 67.40625 252.734375 68.398438 C 252.734375 69.394531 253.539062 70.199219 254.53125 70.199219 C 255.527344 70.199219 256.332031 69.394531 256.332031 68.398438 "/>
<path style="fill:none;stroke-width:1.6;stroke-linecap:butt;stroke-linejoin:round;stroke:rgb(100%,100%,100%);stroke-opacity:1;stroke-miterlimit:10;" d="M 445.869344 666.8375 L 459.482625 668.782812 " transform="matrix(1,0,0,-1,-97.467,750.4)"/>
<path style=" stroke:none;fill-rule:evenodd;fill:rgb(0%,0%,0%);fill-opacity:1;" d="M 312.332031 60.398438 C 312.332031 59.40625 311.527344 58.601562 310.53125 58.601562 C 309.539062 58.601562 308.734375 59.40625 308.734375 60.398438 C 308.734375 61.394531 309.539062 62.199219 310.53125 62.199219 C 311.527344 62.199219 312.332031 61.394531 312.332031 60.398438 "/>
<path style=" stroke:none;fill-rule:evenodd;fill:rgb(0%,0%,0%);fill-opacity:1;" d="M 344.332031 84.398438 C 344.332031 83.40625 343.527344 82.601562 342.53125 82.601562 C 341.539062 82.601562 340.734375 83.40625 340.734375 84.398438 C 340.734375 85.394531 341.539062 86.199219 342.53125 86.199219 C 343.527344 86.199219 344.332031 85.394531 344.332031 84.398438 "/>
<path style="fill:none;stroke-width:1.6;stroke-linecap:butt;stroke-linejoin:round;stroke:rgb(100%,100%,100%);stroke-opacity:1;stroke-miterlimit:10;" d="M 447.955281 660.032812 L 458.709187 651.966406 " transform="matrix(1,0,0,-1,-97.467,750.4)"/>
<path style="fill:none;stroke-width:1.6;stroke-linecap:butt;stroke-linejoin:round;stroke:rgb(100%,100%,100%);stroke-opacity:1;stroke-miterlimit:10;" d="M 390.881062 652.841406 L 412.521687 636.607031 " transform="matrix(1,0,0,-1,-97.467,750.4)"/>
<path style="fill:none;stroke-width:0.8;stroke-linecap:round;stroke-linejoin:round;stroke:rgb(0%,0%,0%);stroke-opacity:1;stroke-miterlimit:10;" d="M 383.99825 658.001562 L 351.99825 682.001562 " transform="matrix(1,0,0,-1,-97.467,750.4)"/>
<path style="fill:none;stroke-width:1.6;stroke-linecap:butt;stroke-linejoin:round;stroke:rgb(100%,100%,100%);stroke-opacity:1;stroke-miterlimit:10;" d="M 351.99825 730.446875 L 351.99825 719.692969 " transform="matrix(1,0,0,-1,-97.467,750.4)"/>
<path style="fill:none;stroke-width:0.8;stroke-linecap:round;stroke-linejoin:round;stroke:rgb(0%,0%,0%);stroke-opacity:1;stroke-miterlimit:10;" d="M 407.99825 690.001562 L 439.99825 666.001562 " transform="matrix(1,0,0,-1,-97.467,750.4)"/>
<path style="fill:none;stroke-width:0.8;stroke-linecap:round;stroke-linejoin:round;stroke:rgb(0%,0%,0%);stroke-opacity:1;stroke-miterlimit:10;" d="M 439.99825 666.001562 L 383.99825 658.001562 " transform="matrix(1,0,0,-1,-97.467,750.4)"/>
<path style="fill:none;stroke-width:0.8;stroke-linecap:round;stroke-linejoin:round;stroke:rgb(0%,0%,0%);stroke-opacity:1;stroke-miterlimit:10;" d="M 351.99825 682.001562 L 295.99825 674.001562 " transform="matrix(1,0,0,-1,-97.467,750.4)"/>
<path style="fill:none;stroke-width:1.6;stroke-linecap:butt;stroke-linejoin:round;stroke:rgb(100%,100%,100%);stroke-opacity:1;stroke-miterlimit:10;" d="M 383.99825 655.364844 L 383.99825 634.396094 " transform="matrix(1,0,0,-1,-97.467,750.4)"/>
<g clip-path="url(#clip1)" clip-rule="nonzero">
<path style="fill:none;stroke-width:0.8;stroke-linecap:round;stroke-linejoin:round;stroke:rgb(0%,0%,0%);stroke-opacity:1;stroke-miterlimit:10;" d="M 495.99825 674.001562 L 439.99825 666.001562 " transform="matrix(1,0,0,-1,-97.467,750.4)"/>
</g>
<path style="fill:none;stroke-width:0.8;stroke-linecap:round;stroke-linejoin:round;stroke:rgb(0%,0%,0%);stroke-opacity:1;stroke-miterlimit:10;" d="M 439.99825 666.001562 L 471.99825 642.001562 " transform="matrix(1,0,0,-1,-97.467,750.4)"/>
<path style="fill:none;stroke-width:0.8;stroke-linecap:round;stroke-linejoin:round;stroke:rgb(0%,0%,0%);stroke-opacity:1;stroke-miterlimit:10;" d="M 383.99825 658.001562 L 415.99825 634.001562 " transform="matrix(1,0,0,-1,-97.467,750.4)"/>
<path style="fill:none;stroke-width:0.8;stroke-linecap:round;stroke-linejoin:round;stroke:rgb(0%,0%,0%);stroke-opacity:1;stroke-miterlimit:10;" d="M 351.99825 682.001562 L 319.99825 706.001562 " transform="matrix(1,0,0,-1,-97.467,750.4)"/>
<path style="fill:none;stroke-width:1.6;stroke-linecap:butt;stroke-linejoin:round;stroke:rgb(100%,100%,100%);stroke-opacity:1;stroke-miterlimit:10;" d="M 376.18575 656.884375 L 380.978719 657.567969 " transform="matrix(1,0,0,-1,-97.467,750.4)"/>
<path style="fill:none;stroke-width:0.8;stroke-linecap:round;stroke-linejoin:round;stroke:rgb(0%,0%,0%);stroke-opacity:1;stroke-miterlimit:10;" d="M 351.99825 682.001562 L 351.99825 742.001562 " transform="matrix(1,0,0,-1,-97.467,750.4)"/>
<path style="fill:none;stroke-width:0.8;stroke-linecap:round;stroke-linejoin:round;stroke:rgb(0%,0%,0%);stroke-opacity:1;stroke-miterlimit:10;" d="M 407.99825 690.001562 L 407.99825 750.001562 " transform="matrix(1,0,0,-1,-97.467,750.4)"/>
<path style="fill:none;stroke-width:0.8;stroke-linecap:round;stroke-linejoin:round;stroke:rgb(0%,0%,0%);stroke-opacity:1;stroke-miterlimit:10;" d="M 439.99825 666.001562 L 439.99825 692.7125 " transform="matrix(1,0,0,-1,-97.467,750.4)"/>
<path style="fill:none;stroke-width:0.8;stroke-linecap:round;stroke-linejoin:round;stroke:rgb(0%,0%,0%);stroke-opacity:1;stroke-miterlimit:10;" d="M 439.99825 606.001562 L 439.99825 666.001562 " transform="matrix(1,0,0,-1,-97.467,750.4)"/>
<g clip-path="url(#clip2)" clip-rule="nonzero">
<path style="fill:none;stroke-width:0.8;stroke-linecap:round;stroke-linejoin:round;stroke:rgb(0%,0%,0%);stroke-opacity:1;stroke-miterlimit:10;" d="M 383.99825 598.001562 L 383.99825 658.001562 " transform="matrix(1,0,0,-1,-97.467,750.4)"/>
</g>
<path style="fill:none;stroke-width:4;stroke-linecap:butt;stroke-linejoin:round;stroke:rgb(100%,100%,100%);stroke-opacity:1;stroke-miterlimit:10;" d="M 377.689656 612.814062 L 392.197469 614.884375 " transform="matrix(1,0,0,-1,-97.467,750.4)"/>
<path style="fill:none;stroke-width:4;stroke-linecap:butt;stroke-linejoin:round;stroke:rgb(100%,100%,100%);stroke-opacity:1;stroke-miterlimit:10;" d="M 432.631062 620.661719 L 447.142781 622.735937 " transform="matrix(1,0,0,-1,-97.467,750.4)"/>
<path style="fill:none;stroke-width:0.8;stroke-linecap:round;stroke-linejoin:round;stroke:rgb(0%,0%,0%);stroke-opacity:1;stroke-miterlimit:10;" d="M 383.99825 658.001562 L 327.99825 650.001562 " transform="matrix(1,0,0,-1,-97.467,750.4)"/>
<path style="fill:none;stroke-width:2;stroke-linecap:round;stroke-linejoin:round;stroke:rgb(0%,0%,0%);stroke-opacity:1;stroke-miterlimit:10;" d="M 371.99825 612.001562 L 483.99825 628.001562 " transform="matrix(1,0,0,-1,-97.467,750.4)"/>
<path style="fill:none;stroke-width:4;stroke-linecap:butt;stroke-linejoin:round;stroke:rgb(100%,100%,100%);stroke-opacity:1;stroke-miterlimit:10;" d="M 371.99825 670.583594 L 371.99825 625.411719 " transform="matrix(1,0,0,-1,-97.467,750.4)"/>
<path style="fill:none;stroke-width:2;stroke-linecap:round;stroke-linejoin:round;stroke:rgb(0%,0%,0%);stroke-opacity:1;stroke-miterlimit:10;" d="M 419.99825 736.001562 L 483.99825 688.001562 " transform="matrix(1,0,0,-1,-97.467,750.4)"/>
<path style="fill:none;stroke-width:4;stroke-linecap:butt;stroke-linejoin:round;stroke:rgb(100%,100%,100%);stroke-opacity:1;stroke-miterlimit:10;" d="M 434.041219 680.864844 L 459.142781 684.263281 " transform="matrix(1,0,0,-1,-97.467,750.4)"/>
<path style="fill:none;stroke-width:0.8;stroke-linecap:round;stroke-linejoin:round;stroke:rgb(0%,0%,0%);stroke-opacity:1;stroke-miterlimit:10;" d="M 383.99825 658.001562 L 383.99825 696.001562 " transform="matrix(1,0,0,-1,-97.467,750.4)"/>
<path style="fill:none;stroke-width:3.6;stroke-linecap:butt;stroke-linejoin:round;stroke:rgb(100%,100%,100%);stroke-opacity:1;stroke-miterlimit:10;" d="M 379.400594 673.05625 L 426.662312 679.810156 " transform="matrix(1,0,0,-1,-97.467,750.4)"/>
<path style="fill:none;stroke-width:2;stroke-linecap:round;stroke-linejoin:round;stroke:rgb(0%,0%,0%);stroke-opacity:1;stroke-miterlimit:10;" d="M 483.99825 688.001562 L 371.99825 672.001562 " transform="matrix(1,0,0,-1,-97.467,750.4)"/>
<path style="fill:none;stroke-width:2;stroke-linecap:round;stroke-linejoin:round;stroke:rgb(0%,0%,0%);stroke-opacity:1;stroke-miterlimit:10;" d="M 363.99825 728.001562 L 427.99825 680.001562 " transform="matrix(1,0,0,-1,-97.467,750.4)"/>
<path style="fill:none;stroke-width:0.4;stroke-linecap:butt;stroke-linejoin:round;stroke:rgb(0%,0%,0%);stroke-opacity:1;stroke-miterlimit:10;" d="M 419.99825 676.001562 L 411.052937 674.720312 " transform="matrix(1,0,0,-1,-97.467,750.4)"/>
<path style="fill:none;stroke-width:2;stroke-linecap:round;stroke-linejoin:round;stroke:rgb(0%,0%,0%);stroke-opacity:1;stroke-miterlimit:10;" d="M 371.99825 612.001562 L 371.99825 672.001562 " transform="matrix(1,0,0,-1,-97.467,750.4)"/>
<path style="fill:none;stroke-width:4;stroke-linecap:butt;stroke-linejoin:round;stroke:rgb(100%,100%,100%);stroke-opacity:1;stroke-miterlimit:10;" d="M 427.99825 678.583594 L 427.99825 633.411719 " transform="matrix(1,0,0,-1,-97.467,750.4)"/>
<path style="fill:none;stroke-width:2;stroke-linecap:round;stroke-linejoin:round;stroke:rgb(0%,0%,0%);stroke-opacity:1;stroke-miterlimit:10;" d="M 427.99825 620.001562 L 427.99825 680.001562 " transform="matrix(1,0,0,-1,-97.467,750.4)"/>
<path style="fill:none;stroke-width:4;stroke-linecap:butt;stroke-linejoin:round;stroke:rgb(100%,100%,100%);stroke-opacity:1;stroke-miterlimit:10;" d="M 483.99825 682.583594 L 483.99825 637.411719 " transform="matrix(1,0,0,-1,-97.467,750.4)"/>
<path style="fill:none;stroke-width:2;stroke-linecap:round;stroke-linejoin:round;stroke:rgb(0%,0%,0%);stroke-opacity:1;stroke-miterlimit:10;" d="M 483.99825 628.001562 L 483.99825 688.001562 " transform="matrix(1,0,0,-1,-97.467,750.4)"/>
<path style="fill:none;stroke-width:4;stroke-linecap:butt;stroke-linejoin:round;stroke:rgb(100%,100%,100%);stroke-opacity:1;stroke-miterlimit:10;" d="M 339.99825 693.083594 L 339.99825 647.911719 " transform="matrix(1,0,0,-1,-97.467,750.4)"/>
<path style="fill:none;stroke-width:2;stroke-linecap:round;stroke-linejoin:round;stroke:rgb(0%,0%,0%);stroke-opacity:1;stroke-miterlimit:10;" d="M 339.99825 696.001562 L 339.99825 636.001562 " transform="matrix(1,0,0,-1,-97.467,750.4)"/>
<path style="fill:none;stroke-width:0.8;stroke-linecap:butt;stroke-linejoin:round;stroke:rgb(0%,0%,0%);stroke-opacity:1;stroke-miterlimit:10;" d="M 345.619344 652.517187 L 333.947469 650.849219 " transform="matrix(1,0,0,-1,-97.467,750.4)"/>
<path style="fill:none;stroke-width:4;stroke-linecap:butt;stroke-linejoin:round;stroke:rgb(100%,100%,100%);stroke-opacity:1;stroke-miterlimit:10;" d="M 345.994344 631.505469 L 359.494344 621.380469 " transform="matrix(1,0,0,-1,-97.467,750.4)"/>
<path style="fill:none;stroke-width:2;stroke-linecap:round;stroke-linejoin:round;stroke:rgb(0%,0%,0%);stroke-opacity:1;stroke-miterlimit:10;" d="M 307.99825 660.001562 L 371.99825 612.001562 " transform="matrix(1,0,0,-1,-97.467,750.4)"/>
<path style="fill:none;stroke-width:4;stroke-linecap:butt;stroke-linejoin:round;stroke:rgb(100%,100%,100%);stroke-opacity:1;stroke-miterlimit:10;" d="M 347.599812 697.0875 L 429.494344 708.786719 " transform="matrix(1,0,0,-1,-97.467,750.4)"/>
<path style="fill:none;stroke-width:4;stroke-linecap:butt;stroke-linejoin:round;stroke:rgb(100%,100%,100%);stroke-opacity:1;stroke-miterlimit:10;" d="M 369.740437 723.692969 L 423.650594 683.263281 " transform="matrix(1,0,0,-1,-97.467,750.4)"/>
<path style="fill:none;stroke-width:2;stroke-linecap:butt;stroke-linejoin:round;stroke:rgb(0%,0%,0%);stroke-opacity:1;stroke-miterlimit:10;" d="M 345.486531 696.782812 L 446.619344 711.232031 " transform="matrix(1,0,0,-1,-97.467,750.4)"/>
<path style="fill:none;stroke-width:2;stroke-linecap:butt;stroke-linejoin:round;stroke:rgb(0%,0%,0%);stroke-opacity:1;stroke-miterlimit:10;" d="M 425.392781 681.954687 L 368.970906 724.271094 " transform="matrix(1,0,0,-1,-97.467,750.4)"/>
<path style="fill:none;stroke-width:1.6;stroke-linecap:butt;stroke-linejoin:round;stroke:rgb(100%,100%,100%);stroke-opacity:1;stroke-miterlimit:10;" d="M 333.924031 650.845312 L 358.990437 654.427344 " transform="matrix(1,0,0,-1,-97.467,750.4)"/>
<path style="fill:none;stroke-width:1.6;stroke-linecap:butt;stroke-linejoin:round;stroke:rgb(100%,100%,100%);stroke-opacity:1;stroke-miterlimit:10;" d="M 383.99825 716.450781 L 383.99825 677.411719 " transform="matrix(1,0,0,-1,-97.467,750.4)"/>
<path style="fill:none;stroke-width:2;stroke-linecap:butt;stroke-linejoin:round;stroke:rgb(0%,0%,0%);stroke-opacity:1;stroke-miterlimit:10;" d="M 395.99825 698.122656 L 395.99825 704.001562 " transform="matrix(1,0,0,-1,-97.467,750.4)"/>
<path style="fill:none;stroke-width:4;stroke-linecap:butt;stroke-linejoin:round;stroke:rgb(100%,100%,100%);stroke-opacity:1;stroke-miterlimit:10;" d="M 345.0295 692.228125 L 368.701375 674.474219 " transform="matrix(1,0,0,-1,-97.467,750.4)"/>
<path style="fill:none;stroke-width:2;stroke-linecap:round;stroke-linejoin:round;stroke:rgb(0%,0%,0%);stroke-opacity:1;stroke-miterlimit:10;" d="M 371.99825 672.001562 L 307.99825 720.001562 " transform="matrix(1,0,0,-1,-97.467,750.4)"/>
<path style="fill:none;stroke-width:0.8;stroke-linecap:round;stroke-linejoin:round;stroke:rgb(0%,0%,0%);stroke-opacity:1;stroke-miterlimit:10;" d="M 383.99825 718.001562 L 383.99825 677.138281 " transform="matrix(1,0,0,-1,-97.467,750.4)"/>
<path style="fill:none;stroke-width:1.6;stroke-linecap:butt;stroke-linejoin:round;stroke:rgb(100%,100%,100%);stroke-opacity:1;stroke-miterlimit:10;" d="M 439.99825 724.505469 L 439.99825 690.610937 " transform="matrix(1,0,0,-1,-97.467,750.4)"/>
<path style="fill:none;stroke-width:0.8;stroke-linecap:round;stroke-linejoin:round;stroke:rgb(0%,0%,0%);stroke-opacity:1;stroke-miterlimit:10;" d="M 439.99825 726.001562 L 439.99825 688.610937 " transform="matrix(1,0,0,-1,-97.467,750.4)"/>
<path style="fill:none;stroke-width:0.8;stroke-linecap:butt;stroke-linejoin:round;stroke:rgb(0%,0%,0%);stroke-opacity:1;stroke-miterlimit:10;" d="M 363.752156 655.107031 L 332.213094 650.603125 " transform="matrix(1,0,0,-1,-97.467,750.4)"/>
</g>
</svg>
