<?xml version="1.0" encoding="UTF-8"?>
<svg xmlns="http://www.w3.org/2000/svg" xmlns:xlink="http://www.w3.org/1999/xlink" width="152.70858pt" height="114.464pt" viewBox="0 0 152.70858 114.464" version="1.1">
<defs>
<clipPath id="clip1">
  <path d="M 60 0 L 152.707031 0 L 152.707031 113 L 60 113 Z M 60 0 "/>
</clipPath>
</defs>
<g id="surface1">
<path style="fill-rule:evenodd;fill:rgb(66.299438%,66.299438%,66.299438%);fill-opacity:1;stroke-width:2;stroke-linecap:butt;stroke-linejoin:round;stroke:rgb(0%,0%,0%);stroke-opacity:1;stroke-miterlimit:10;" d="M 13.087795 189.384313 C 12.693264 181.888219 22.556545 175.774938 32.517482 171.927281 C 42.47842 168.083531 52.537014 166.505406 54.412014 173.110875 C 56.283107 179.72025 49.974514 194.513219 45.337795 202.794469 C 40.701076 211.079625 37.744045 212.853063 30.939357 209.306188 C 24.13467 205.755406 13.482326 196.880406 13.087795 189.384313 Z M 13.087795 189.384313 " transform="matrix(1,0,0,-1,-3.97842,281.564)"/>
<path style=" stroke:none;fill-rule:evenodd;fill:rgb(86.999512%,86.999512%,86.999512%);fill-opacity:1;" d="M 61.773438 62.890625 C 62.363281 78.570312 66.703125 94.941406 83.371094 104.410156 C 100.039062 113.875 129.03125 116.441406 142.445312 94.644531 C 155.855469 72.851562 153.6875 26.695312 138.597656 9.734375 C 123.507812 -7.226562 95.5 5 79.917969 18.609375 C 64.335938 32.21875 61.183594 47.210938 61.773438 62.890625 Z M 61.773438 62.890625 "/>
<g clip-path="url(#clip1)" clip-rule="nonzero">
<path style="fill:none;stroke-width:2;stroke-linecap:butt;stroke-linejoin:round;stroke:rgb(0%,0%,0%);stroke-opacity:1;stroke-miterlimit:10;" d="M 65.751857 218.673375 C 66.341701 202.993688 70.681545 186.622594 87.349514 177.153844 C 104.017482 167.689 133.00967 165.122594 146.423732 186.919469 C 159.833889 208.712438 157.66592 254.868688 142.576076 271.829625 C 127.486232 288.790563 99.47842 276.564 83.896389 262.954625 C 68.314357 249.34525 65.162014 234.353063 65.751857 218.673375 Z M 65.751857 218.673375 " transform="matrix(1,0,0,-1,-3.97842,281.564)"/>
</g>
<path style="fill-rule:evenodd;fill:rgb(42.698669%,42.698669%,42.698669%);fill-opacity:1;stroke-width:2;stroke-linecap:butt;stroke-linejoin:round;stroke:rgb(0%,0%,0%);stroke-opacity:1;stroke-miterlimit:10;" d="M 5.595607 248.259313 C 7.568264 236.72025 17.626857 222.1265 28.474514 221.927281 C 39.32217 221.731969 50.958889 235.931188 50.369045 243.524938 C 49.775295 251.118688 36.954982 252.106969 29.16592 256.544469 C 21.372951 260.981969 18.611232 268.872594 14.173732 268.575719 C 9.736232 268.278844 3.622951 259.798375 5.595607 248.259313 Z M 5.595607 248.259313 " transform="matrix(1,0,0,-1,-3.97842,281.564)"/>
</g>
</svg>
