<?xml version="1.0" encoding="UTF-8"?>
<svg xmlns="http://www.w3.org/2000/svg" xmlns:xlink="http://www.w3.org/1999/xlink" width="445.1395pt" height="131.267pt" viewBox="0 0 445.1395 131.267" version="1.1">
<defs>
<clipPath id="clip1">
  <path d="M 318 49 L 445.140625 49 L 445.140625 83 L 318 83 Z M 318 49 "/>
</clipPath>
<clipPath id="clip2">
  <path d="M 381 1 L 384 1 L 384 131.265625 L 381 131.265625 Z M 381 1 "/>
</clipPath>
<clipPath id="clip3">
  <path d="M 277 0 L 445.140625 0 L 445.140625 131.265625 L 277 131.265625 Z M 277 0 "/>
</clipPath>
<clipPath id="clip4">
  <path d="M 274 0 L 445.140625 0 L 445.140625 131.265625 L 274 131.265625 Z M 274 0 "/>
</clipPath>
<clipPath id="clip5">
  <path d="M 334 54 L 445.140625 54 L 445.140625 131.265625 L 334 131.265625 Z M 334 54 "/>
</clipPath>
<clipPath id="clip6">
  <path d="M 331 53 L 445.140625 53 L 445.140625 131.265625 L 331 131.265625 Z M 331 53 "/>
</clipPath>
<clipPath id="clip7">
  <path d="M 298 3 L 445.140625 3 L 445.140625 131.265625 L 298 131.265625 Z M 298 3 "/>
</clipPath>
<clipPath id="clip8">
  <path d="M 297 2 L 445.140625 2 L 445.140625 131.265625 L 297 131.265625 Z M 297 2 "/>
</clipPath>
<clipPath id="clip9">
  <path d="M 346 51 L 445.140625 51 L 445.140625 131.265625 L 346 131.265625 Z M 346 51 "/>
</clipPath>
<clipPath id="clip10">
  <path d="M 345 50 L 445.140625 50 L 445.140625 131.265625 L 345 131.265625 Z M 345 50 "/>
</clipPath>
<clipPath id="clip11">
  <path d="M 318 5 L 445.140625 5 L 445.140625 131.265625 L 318 131.265625 Z M 318 5 "/>
</clipPath>
<clipPath id="clip12">
  <path d="M 316 4 L 445.140625 4 L 445.140625 131.265625 L 316 131.265625 Z M 316 4 "/>
</clipPath>
<clipPath id="clip13">
  <path d="M 335 6 L 445.140625 6 L 445.140625 131.265625 L 335 131.265625 Z M 335 6 "/>
</clipPath>
<clipPath id="clip14">
  <path d="M 333 5 L 445.140625 5 L 445.140625 131.265625 L 333 131.265625 Z M 333 5 "/>
</clipPath>
<clipPath id="clip15">
  <path d="M 221 1 L 224 1 L 224 131.265625 L 221 131.265625 Z M 221 1 "/>
</clipPath>
</defs>
<g id="surface1">
<g clip-path="url(#clip1)" clip-rule="nonzero">
<path style="fill:none;stroke-width:2;stroke-linecap:round;stroke-linejoin:round;stroke:rgb(0%,0%,0%);stroke-opacity:1;stroke-miterlimit:10;" d="M 369.910438 719.521969 L 494.090125 688.479 " transform="matrix(1,0,0,-1,-49.9495,770.104)"/>
<path style="fill:none;stroke-width:2;stroke-linecap:round;stroke-linejoin:round;stroke:rgb(0%,0%,0%);stroke-opacity:1;stroke-miterlimit:10;" d="M 369.910438 688.479 L 494.090125 719.521969 " transform="matrix(1,0,0,-1,-49.9495,770.104)"/>
</g>
<g clip-path="url(#clip2)" clip-rule="nonzero">
<path style="fill:none;stroke-width:2;stroke-linecap:round;stroke-linejoin:round;stroke:rgb(0%,0%,0%);stroke-opacity:1;stroke-miterlimit:10;" d="M 432.000281 767.998531 L 432.000281 639.998531 " transform="matrix(1,0,0,-1,-49.9495,770.104)"/>
</g>
<path style="fill:none;stroke-width:8;stroke-linecap:butt;stroke-linejoin:round;stroke:rgb(100%,100%,100%);stroke-opacity:1;stroke-miterlimit:10;" d="M 456.48075 663.998531 C 456.48075 667.381344 445.519813 670.119625 432.000281 670.119625 C 418.48075 670.119625 407.519813 667.381344 407.519813 663.998531 C 407.519813 660.619625 418.48075 657.881344 432.000281 657.881344 C 445.519813 657.881344 456.48075 660.619625 456.48075 663.998531 " transform="matrix(1,0,0,-1,-49.9495,770.104)"/>
<g clip-path="url(#clip3)" clip-rule="nonzero">
<path style="fill:none;stroke-width:8;stroke-linecap:butt;stroke-linejoin:miter;stroke:rgb(100%,100%,100%);stroke-opacity:1;stroke-miterlimit:10;" d="M 440.984656 658.307125 L 443.051063 658.537594 " transform="matrix(1,0,0,-1,-49.9495,770.104)"/>
</g>
<path style=" stroke:none;fill-rule:evenodd;fill:rgb(100%,100%,100%);fill-opacity:1;" d="M 393.101562 111.566406 L 387.949219 110.46875 L 388.320312 113.777344 Z M 393.101562 111.566406 "/>
<g clip-path="url(#clip4)" clip-rule="nonzero">
<path style="fill:none;stroke-width:8;stroke-linecap:butt;stroke-linejoin:miter;stroke:rgb(100%,100%,100%);stroke-opacity:1;stroke-miterlimit:10;" d="M 443.051063 658.537594 L 437.898719 659.63525 L 438.269813 656.326656 Z M 443.051063 658.537594 " transform="matrix(1,0,0,-1,-49.9495,770.104)"/>
</g>
<path style="fill:none;stroke-width:4;stroke-linecap:butt;stroke-linejoin:round;stroke:rgb(0%,0%,0%);stroke-opacity:1;stroke-miterlimit:10;" d="M 456.48075 663.998531 C 456.48075 667.381344 445.519813 670.119625 432.000281 670.119625 C 418.48075 670.119625 407.519813 667.381344 407.519813 663.998531 C 407.519813 660.619625 418.48075 657.881344 432.000281 657.881344 C 445.519813 657.881344 456.48075 660.619625 456.48075 663.998531 " transform="matrix(1,0,0,-1,-49.9495,770.104)"/>
<g clip-path="url(#clip5)" clip-rule="nonzero">
<path style="fill:none;stroke-width:4;stroke-linecap:butt;stroke-linejoin:miter;stroke:rgb(0%,0%,0%);stroke-opacity:1;stroke-miterlimit:10;" d="M 440.984656 658.307125 L 443.051063 658.537594 " transform="matrix(1,0,0,-1,-49.9495,770.104)"/>
</g>
<path style=" stroke:none;fill-rule:evenodd;fill:rgb(0%,0%,0%);fill-opacity:1;" d="M 393.101562 111.566406 L 387.949219 110.46875 L 388.320312 113.777344 Z M 393.101562 111.566406 "/>
<g clip-path="url(#clip6)" clip-rule="nonzero">
<path style="fill:none;stroke-width:4;stroke-linecap:butt;stroke-linejoin:miter;stroke:rgb(0%,0%,0%);stroke-opacity:1;stroke-miterlimit:10;" d="M 443.051063 658.537594 L 437.898719 659.63525 L 438.269813 656.326656 Z M 443.051063 658.537594 " transform="matrix(1,0,0,-1,-49.9495,770.104)"/>
</g>
<path style="fill:none;stroke-width:6.8;stroke-linecap:butt;stroke-linejoin:round;stroke:rgb(100%,100%,100%);stroke-opacity:1;stroke-miterlimit:10;" d="M 472.992469 679.998531 C 472.992469 685.658688 454.640906 690.248531 432.000281 690.248531 C 409.359656 690.248531 391.008094 685.658688 391.008094 679.998531 C 391.008094 674.338375 409.359656 669.752438 432.000281 669.752438 C 454.640906 669.752438 472.992469 674.338375 472.992469 679.998531 " transform="matrix(1,0,0,-1,-49.9495,770.104)"/>
<g clip-path="url(#clip7)" clip-rule="nonzero">
<path style="fill:none;stroke-width:6.8;stroke-linecap:butt;stroke-linejoin:miter;stroke:rgb(100%,100%,100%);stroke-opacity:1;stroke-miterlimit:10;" d="M 444.35575 670.229 L 448.289344 670.596188 " transform="matrix(1,0,0,-1,-49.9495,770.104)"/>
</g>
<path style=" stroke:none;fill-rule:evenodd;fill:rgb(100%,100%,100%);fill-opacity:1;" d="M 398.339844 99.507812 L 393.207031 98.316406 L 393.519531 101.632812 Z M 398.339844 99.507812 "/>
<g clip-path="url(#clip8)" clip-rule="nonzero">
<path style="fill:none;stroke-width:6.8;stroke-linecap:butt;stroke-linejoin:miter;stroke:rgb(100%,100%,100%);stroke-opacity:1;stroke-miterlimit:10;" d="M 448.289344 670.596188 L 443.156531 671.787594 L 443.469031 668.471188 Z M 448.289344 670.596188 " transform="matrix(1,0,0,-1,-49.9495,770.104)"/>
</g>
<path style="fill:none;stroke-width:3.4;stroke-linecap:butt;stroke-linejoin:round;stroke:rgb(0%,0%,0%);stroke-opacity:1;stroke-miterlimit:10;" d="M 472.992469 679.998531 C 472.992469 685.658688 454.640906 690.248531 432.000281 690.248531 C 409.359656 690.248531 391.008094 685.658688 391.008094 679.998531 C 391.008094 674.338375 409.359656 669.752438 432.000281 669.752438 C 454.640906 669.752438 472.992469 674.338375 472.992469 679.998531 " transform="matrix(1,0,0,-1,-49.9495,770.104)"/>
<g clip-path="url(#clip9)" clip-rule="nonzero">
<path style="fill:none;stroke-width:3.4;stroke-linecap:butt;stroke-linejoin:miter;stroke:rgb(0%,0%,0%);stroke-opacity:1;stroke-miterlimit:10;" d="M 444.35575 670.229 L 448.289344 670.596188 " transform="matrix(1,0,0,-1,-49.9495,770.104)"/>
</g>
<path style=" stroke:none;fill-rule:evenodd;fill:rgb(0%,0%,0%);fill-opacity:1;" d="M 398.339844 99.507812 L 393.207031 98.316406 L 393.519531 101.632812 Z M 398.339844 99.507812 "/>
<g clip-path="url(#clip10)" clip-rule="nonzero">
<path style="fill:none;stroke-width:3.4;stroke-linecap:butt;stroke-linejoin:miter;stroke:rgb(0%,0%,0%);stroke-opacity:1;stroke-miterlimit:10;" d="M 448.289344 670.596188 L 443.156531 671.787594 L 443.469031 668.471188 Z M 448.289344 670.596188 " transform="matrix(1,0,0,-1,-49.9495,770.104)"/>
</g>
<path style="fill:none;stroke-width:5.6;stroke-linecap:butt;stroke-linejoin:round;stroke:rgb(100%,100%,100%);stroke-opacity:1;stroke-miterlimit:10;" d="M 479.328406 695.998531 C 479.328406 702.533688 458.140906 707.830563 432.000281 707.830563 C 405.859656 707.830563 384.672156 702.533688 384.672156 695.998531 C 384.672156 689.463375 405.859656 684.1665 432.000281 684.1665 C 458.140906 684.1665 479.328406 689.463375 479.328406 695.998531 " transform="matrix(1,0,0,-1,-49.9495,770.104)"/>
<g clip-path="url(#clip11)" clip-rule="nonzero">
<path style="fill:none;stroke-width:5.6;stroke-linecap:butt;stroke-linejoin:miter;stroke:rgb(100%,100%,100%);stroke-opacity:1;stroke-miterlimit:10;" d="M 447.996375 684.865719 L 450.554969 685.115719 " transform="matrix(1,0,0,-1,-49.9495,770.104)"/>
</g>
<path style=" stroke:none;fill-rule:evenodd;fill:rgb(100%,100%,100%);fill-opacity:1;" d="M 400.605469 84.988281 L 395.46875 83.820312 L 395.792969 87.132812 Z M 400.605469 84.988281 "/>
<g clip-path="url(#clip12)" clip-rule="nonzero">
<path style="fill:none;stroke-width:5.6;stroke-linecap:butt;stroke-linejoin:miter;stroke:rgb(100%,100%,100%);stroke-opacity:1;stroke-miterlimit:10;" d="M 450.554969 685.115719 L 445.41825 686.283688 L 445.742469 682.971188 Z M 450.554969 685.115719 " transform="matrix(1,0,0,-1,-49.9495,770.104)"/>
</g>
<path style="fill:none;stroke-width:2.8;stroke-linecap:butt;stroke-linejoin:round;stroke:rgb(0%,0%,0%);stroke-opacity:1;stroke-miterlimit:10;" d="M 479.328406 695.998531 C 479.328406 702.533688 458.140906 707.830563 432.000281 707.830563 C 405.859656 707.830563 384.672156 702.533688 384.672156 695.998531 C 384.672156 689.463375 405.859656 684.1665 432.000281 684.1665 C 458.140906 684.1665 479.328406 689.463375 479.328406 695.998531 " transform="matrix(1,0,0,-1,-49.9495,770.104)"/>
<path style="fill:none;stroke-width:2.8;stroke-linecap:butt;stroke-linejoin:miter;stroke:rgb(0%,0%,0%);stroke-opacity:1;stroke-miterlimit:10;" d="M 447.996375 684.865719 L 450.554969 685.115719 " transform="matrix(1,0,0,-1,-49.9495,770.104)"/>
<path style="fill-rule:evenodd;fill:rgb(0%,0%,0%);fill-opacity:1;stroke-width:2.8;stroke-linecap:butt;stroke-linejoin:miter;stroke:rgb(0%,0%,0%);stroke-opacity:1;stroke-miterlimit:10;" d="M 450.554969 685.115719 L 445.41825 686.283688 L 445.742469 682.971188 Z M 450.554969 685.115719 " transform="matrix(1,0,0,-1,-49.9495,770.104)"/>
<path style="fill:none;stroke-width:4;stroke-linecap:butt;stroke-linejoin:round;stroke:rgb(100%,100%,100%);stroke-opacity:1;stroke-miterlimit:10;" d="M 409.336219 709.6665 L 429.6995 704.576656 " transform="matrix(1,0,0,-1,-49.9495,770.104)"/>
<path style="fill:none;stroke-width:2;stroke-linecap:butt;stroke-linejoin:round;stroke:rgb(0%,0%,0%);stroke-opacity:1;stroke-miterlimit:10;" d="M 425.015906 702.252438 L 429.500281 703.373531 " transform="matrix(1,0,0,-1,-49.9495,770.104)"/>
<path style="fill:none;stroke-width:4;stroke-linecap:butt;stroke-linejoin:round;stroke:rgb(100%,100%,100%);stroke-opacity:1;stroke-miterlimit:10;" d="M 456.609656 710.150875 L 434.29325 704.57275 " transform="matrix(1,0,0,-1,-49.9495,770.104)"/>
<path style="fill:none;stroke-width:2;stroke-linecap:butt;stroke-linejoin:round;stroke:rgb(0%,0%,0%);stroke-opacity:1;stroke-miterlimit:10;" d="M 438.10575 702.475094 L 434.457313 703.38525 " transform="matrix(1,0,0,-1,-49.9495,770.104)"/>
<path style="fill:none;stroke-width:4.4;stroke-linecap:butt;stroke-linejoin:round;stroke:rgb(100%,100%,100%);stroke-opacity:1;stroke-miterlimit:10;" d="M 479.328406 711.998531 C 479.328406 718.533688 458.140906 723.830563 432.000281 723.830563 C 405.859656 723.830563 384.672156 718.533688 384.672156 711.998531 C 384.672156 705.463375 405.859656 700.1665 432.000281 700.1665 C 458.140906 700.1665 479.328406 705.463375 479.328406 711.998531 " transform="matrix(1,0,0,-1,-49.9495,770.104)"/>
<g clip-path="url(#clip13)" clip-rule="nonzero">
<path style="fill:none;stroke-width:4.4;stroke-linecap:butt;stroke-linejoin:miter;stroke:rgb(100%,100%,100%);stroke-opacity:1;stroke-miterlimit:10;" d="M 447.996375 700.865719 L 450.554969 701.115719 " transform="matrix(1,0,0,-1,-49.9495,770.104)"/>
</g>
<path style=" stroke:none;fill-rule:evenodd;fill:rgb(100%,100%,100%);fill-opacity:1;" d="M 400.605469 68.988281 L 395.46875 67.820312 L 395.792969 71.132812 Z M 400.605469 68.988281 "/>
<g clip-path="url(#clip14)" clip-rule="nonzero">
<path style="fill:none;stroke-width:4.4;stroke-linecap:butt;stroke-linejoin:miter;stroke:rgb(100%,100%,100%);stroke-opacity:1;stroke-miterlimit:10;" d="M 450.554969 701.115719 L 445.41825 702.283688 L 445.742469 698.971188 Z M 450.554969 701.115719 " transform="matrix(1,0,0,-1,-49.9495,770.104)"/>
</g>
<path style="fill:none;stroke-width:2.2;stroke-linecap:butt;stroke-linejoin:round;stroke:rgb(0%,0%,0%);stroke-opacity:1;stroke-miterlimit:10;" d="M 479.328406 711.998531 C 479.328406 718.533688 458.140906 723.830563 432.000281 723.830563 C 405.859656 723.830563 384.672156 718.533688 384.672156 711.998531 C 384.672156 705.463375 405.859656 700.1665 432.000281 700.1665 C 458.140906 700.1665 479.328406 705.463375 479.328406 711.998531 " transform="matrix(1,0,0,-1,-49.9495,770.104)"/>
<path style="fill:none;stroke-width:2.2;stroke-linecap:butt;stroke-linejoin:miter;stroke:rgb(0%,0%,0%);stroke-opacity:1;stroke-miterlimit:10;" d="M 447.996375 700.865719 L 450.554969 701.115719 " transform="matrix(1,0,0,-1,-49.9495,770.104)"/>
<path style="fill-rule:evenodd;fill:rgb(0%,0%,0%);fill-opacity:1;stroke-width:2.2;stroke-linecap:butt;stroke-linejoin:miter;stroke:rgb(0%,0%,0%);stroke-opacity:1;stroke-miterlimit:10;" d="M 450.554969 701.115719 L 445.41825 702.283688 L 445.742469 698.971188 Z M 450.554969 701.115719 " transform="matrix(1,0,0,-1,-49.9495,770.104)"/>
<path style="fill:none;stroke-width:3.2;stroke-linecap:butt;stroke-linejoin:round;stroke:rgb(100%,100%,100%);stroke-opacity:1;stroke-miterlimit:10;" d="M 472.992469 727.998531 C 472.992469 733.658688 454.640906 738.248531 432.000281 738.248531 C 409.359656 738.248531 391.008094 733.658688 391.008094 727.998531 C 391.008094 722.338375 409.359656 717.752438 432.000281 717.752438 C 454.640906 717.752438 472.992469 722.338375 472.992469 727.998531 " transform="matrix(1,0,0,-1,-49.9495,770.104)"/>
<path style="fill:none;stroke-width:3.2;stroke-linecap:butt;stroke-linejoin:miter;stroke:rgb(100%,100%,100%);stroke-opacity:1;stroke-miterlimit:10;" d="M 444.35575 718.229 L 448.289344 718.596188 " transform="matrix(1,0,0,-1,-49.9495,770.104)"/>
<path style="fill-rule:evenodd;fill:rgb(100%,100%,100%);fill-opacity:1;stroke-width:3.2;stroke-linecap:butt;stroke-linejoin:miter;stroke:rgb(100%,100%,100%);stroke-opacity:1;stroke-miterlimit:10;" d="M 448.289344 718.596188 L 443.156531 719.787594 L 443.469031 716.471188 Z M 448.289344 718.596188 " transform="matrix(1,0,0,-1,-49.9495,770.104)"/>
<path style="fill:none;stroke-width:1.6;stroke-linecap:butt;stroke-linejoin:round;stroke:rgb(0%,0%,0%);stroke-opacity:1;stroke-miterlimit:10;" d="M 472.992469 727.998531 C 472.992469 733.658688 454.640906 738.248531 432.000281 738.248531 C 409.359656 738.248531 391.008094 733.658688 391.008094 727.998531 C 391.008094 722.338375 409.359656 717.752438 432.000281 717.752438 C 454.640906 717.752438 472.992469 722.338375 472.992469 727.998531 " transform="matrix(1,0,0,-1,-49.9495,770.104)"/>
<path style="fill:none;stroke-width:1.6;stroke-linecap:butt;stroke-linejoin:miter;stroke:rgb(0%,0%,0%);stroke-opacity:1;stroke-miterlimit:10;" d="M 444.35575 718.229 L 448.289344 718.596188 " transform="matrix(1,0,0,-1,-49.9495,770.104)"/>
<path style="fill-rule:evenodd;fill:rgb(0%,0%,0%);fill-opacity:1;stroke-width:1.6;stroke-linecap:butt;stroke-linejoin:miter;stroke:rgb(0%,0%,0%);stroke-opacity:1;stroke-miterlimit:10;" d="M 448.289344 718.596188 L 443.156531 719.787594 L 443.469031 716.471188 Z M 448.289344 718.596188 " transform="matrix(1,0,0,-1,-49.9495,770.104)"/>
<path style="fill:none;stroke-width:2;stroke-linecap:butt;stroke-linejoin:round;stroke:rgb(100%,100%,100%);stroke-opacity:1;stroke-miterlimit:10;" d="M 456.48075 743.998531 C 456.48075 747.381344 445.519813 750.119625 432.000281 750.119625 C 418.48075 750.119625 407.519813 747.381344 407.519813 743.998531 C 407.519813 740.619625 418.48075 737.881344 432.000281 737.881344 C 445.519813 737.881344 456.48075 740.619625 456.48075 743.998531 " transform="matrix(1,0,0,-1,-49.9495,770.104)"/>
<path style="fill:none;stroke-width:2;stroke-linecap:butt;stroke-linejoin:miter;stroke:rgb(100%,100%,100%);stroke-opacity:1;stroke-miterlimit:10;" d="M 440.984656 738.307125 L 443.051063 738.537594 " transform="matrix(1,0,0,-1,-49.9495,770.104)"/>
<path style="fill-rule:evenodd;fill:rgb(100%,100%,100%);fill-opacity:1;stroke-width:2;stroke-linecap:butt;stroke-linejoin:miter;stroke:rgb(100%,100%,100%);stroke-opacity:1;stroke-miterlimit:10;" d="M 443.051063 738.537594 L 437.898719 739.63525 L 438.269813 736.326656 Z M 443.051063 738.537594 " transform="matrix(1,0,0,-1,-49.9495,770.104)"/>
<path style="fill:none;stroke-width:1;stroke-linecap:butt;stroke-linejoin:round;stroke:rgb(0%,0%,0%);stroke-opacity:1;stroke-miterlimit:10;" d="M 456.48075 743.998531 C 456.48075 747.381344 445.519813 750.119625 432.000281 750.119625 C 418.48075 750.119625 407.519813 747.381344 407.519813 743.998531 C 407.519813 740.619625 418.48075 737.881344 432.000281 737.881344 C 445.519813 737.881344 456.48075 740.619625 456.48075 743.998531 " transform="matrix(1,0,0,-1,-49.9495,770.104)"/>
<path style="fill:none;stroke-width:1;stroke-linecap:butt;stroke-linejoin:miter;stroke:rgb(0%,0%,0%);stroke-opacity:1;stroke-miterlimit:10;" d="M 440.984656 738.307125 L 443.051063 738.537594 " transform="matrix(1,0,0,-1,-49.9495,770.104)"/>
<path style="fill-rule:evenodd;fill:rgb(0%,0%,0%);fill-opacity:1;stroke-width:1;stroke-linecap:butt;stroke-linejoin:miter;stroke:rgb(0%,0%,0%);stroke-opacity:1;stroke-miterlimit:10;" d="M 443.051063 738.537594 L 437.898719 739.63525 L 438.269813 736.326656 Z M 443.051063 738.537594 " transform="matrix(1,0,0,-1,-49.9495,770.104)"/>
<path style="fill:none;stroke-width:4;stroke-linecap:butt;stroke-linejoin:round;stroke:rgb(100%,100%,100%);stroke-opacity:1;stroke-miterlimit:10;" d="M 432.000281 751.771969 L 432.000281 746.877438 " transform="matrix(1,0,0,-1,-49.9495,770.104)"/>
<path style="fill:none;stroke-width:2;stroke-linecap:butt;stroke-linejoin:round;stroke:rgb(0%,0%,0%);stroke-opacity:1;stroke-miterlimit:10;" d="M 432.000281 753.951656 L 432.000281 744.814938 " transform="matrix(1,0,0,-1,-49.9495,770.104)"/>
<path style="fill:none;stroke-width:4;stroke-linecap:butt;stroke-linejoin:round;stroke:rgb(100%,100%,100%);stroke-opacity:1;stroke-miterlimit:10;" d="M 432.000281 740.459469 L 432.000281 738.846188 " transform="matrix(1,0,0,-1,-49.9495,770.104)"/>
<path style="fill:none;stroke-width:2;stroke-linecap:butt;stroke-linejoin:miter;stroke:rgb(0%,0%,0%);stroke-opacity:1;stroke-miterlimit:10;" d="M 432.000281 741.080563 L 432.000281 738.869625 L 432.000281 739.01025 " transform="matrix(1,0,0,-1,-49.9495,770.104)"/>
<path style="fill:none;stroke-width:4;stroke-linecap:butt;stroke-linejoin:round;stroke:rgb(100%,100%,100%);stroke-opacity:1;stroke-miterlimit:10;" d="M 432.000281 725.604 L 432.000281 721.779781 " transform="matrix(1,0,0,-1,-49.9495,770.104)"/>
<path style="fill:none;stroke-width:2;stroke-linecap:butt;stroke-linejoin:round;stroke:rgb(0%,0%,0%);stroke-opacity:1;stroke-miterlimit:10;" d="M 432.000281 726.932125 L 432.000281 720.244625 " transform="matrix(1,0,0,-1,-49.9495,770.104)"/>
<path style="fill:none;stroke-width:4;stroke-linecap:butt;stroke-linejoin:round;stroke:rgb(100%,100%,100%);stroke-opacity:1;stroke-miterlimit:10;" d="M 432.000281 711.174313 L 432.000281 706.38525 " transform="matrix(1,0,0,-1,-49.9495,770.104)"/>
<path style="fill:none;stroke-width:2;stroke-linecap:butt;stroke-linejoin:round;stroke:rgb(0%,0%,0%);stroke-opacity:1;stroke-miterlimit:10;" d="M 432.000281 712.26025 L 432.000281 706.467281 " transform="matrix(1,0,0,-1,-49.9495,770.104)"/>
<path style="fill:none;stroke-width:4;stroke-linecap:butt;stroke-linejoin:round;stroke:rgb(100%,100%,100%);stroke-opacity:1;stroke-miterlimit:10;" d="M 432.000281 693.682125 L 432.000281 688.053219 " transform="matrix(1,0,0,-1,-49.9495,770.104)"/>
<path style="fill:none;stroke-width:2;stroke-linecap:butt;stroke-linejoin:round;stroke:rgb(0%,0%,0%);stroke-opacity:1;stroke-miterlimit:10;" d="M 432.000281 695.307125 L 432.000281 687.361813 " transform="matrix(1,0,0,-1,-49.9495,770.104)"/>
<path style="fill:none;stroke-width:4;stroke-linecap:butt;stroke-linejoin:round;stroke:rgb(100%,100%,100%);stroke-opacity:1;stroke-miterlimit:10;" d="M 381.656531 691.4165 L 391.297156 693.826656 " transform="matrix(1,0,0,-1,-49.9495,770.104)"/>
<path style=" stroke:none;fill-rule:evenodd;fill:rgb(100%,100%,100%);fill-opacity:1;" d="M 384.550781 66.105469 C 384.550781 64.722656 383.429688 63.605469 382.050781 63.605469 C 380.667969 63.605469 379.550781 64.722656 379.550781 66.105469 C 379.550781 67.484375 380.667969 68.605469 382.050781 68.605469 C 383.429688 68.605469 384.550781 67.484375 384.550781 66.105469 "/>
<path style=" stroke:none;fill-rule:evenodd;fill:rgb(0%,0%,0%);fill-opacity:1;" d="M 385.050781 66.105469 C 385.050781 64.445312 383.707031 63.105469 382.050781 63.105469 C 380.394531 63.105469 379.050781 64.445312 379.050781 66.105469 C 379.050781 67.761719 380.394531 69.105469 382.050781 69.105469 C 383.707031 69.105469 385.050781 67.761719 385.050781 66.105469 M 384.050781 66.105469 C 384.050781 65 383.15625 64.105469 382.050781 64.105469 C 380.945312 64.105469 380.050781 65 380.050781 66.105469 C 380.050781 67.210938 380.945312 68.105469 382.050781 68.105469 C 383.15625 68.105469 384.050781 67.210938 384.050781 66.105469 "/>
<path style="fill:none;stroke-width:2;stroke-linecap:butt;stroke-linejoin:round;stroke:rgb(0%,0%,0%);stroke-opacity:1;stroke-miterlimit:10;" d="M 378.441688 690.611813 L 394.519813 694.631344 " transform="matrix(1,0,0,-1,-49.9495,770.104)"/>
<path style="fill:none;stroke-width:2;stroke-linecap:butt;stroke-linejoin:round;stroke:rgb(0%,0%,0%);stroke-opacity:1;stroke-miterlimit:10;" d="M 458.777625 710.693844 L 434.508094 704.627438 " transform="matrix(1,0,0,-1,-49.9495,770.104)"/>
<path style="fill:none;stroke-width:4;stroke-linecap:butt;stroke-linejoin:round;stroke:rgb(100%,100%,100%);stroke-opacity:1;stroke-miterlimit:10;" d="M 472.215125 693.94775 L 482.347938 691.412594 " transform="matrix(1,0,0,-1,-49.9495,770.104)"/>
<path style="fill:none;stroke-width:2;stroke-linecap:butt;stroke-linejoin:round;stroke:rgb(0%,0%,0%);stroke-opacity:1;stroke-miterlimit:10;" d="M 469.410438 694.646969 L 484.863563 690.783688 " transform="matrix(1,0,0,-1,-49.9495,770.104)"/>
<path style="fill:none;stroke-width:2;stroke-linecap:butt;stroke-linejoin:round;stroke:rgb(0%,0%,0%);stroke-opacity:1;stroke-miterlimit:10;" d="M 406.109656 710.471188 L 429.6995 704.576656 " transform="matrix(1,0,0,-1,-49.9495,770.104)"/>
<path style=" stroke:none;fill-rule:evenodd;fill:rgb(100%,100%,39.199829%);fill-opacity:0.8;" d="M 238.050781 66.105469 C 238.050781 57.265625 230.886719 50.105469 222.050781 50.105469 C 213.214844 50.105469 206.050781 57.265625 206.050781 66.105469 C 206.050781 74.941406 213.214844 82.105469 222.050781 82.105469 C 230.886719 82.105469 238.050781 74.941406 238.050781 66.105469 "/>
<path style=" stroke:none;fill-rule:evenodd;fill:rgb(100%,100%,39.199829%);fill-opacity:0.4;" d="M 254.050781 66.105469 C 254.050781 48.429688 239.722656 34.105469 222.050781 34.105469 C 204.378906 34.105469 190.050781 48.429688 190.050781 66.105469 C 190.050781 83.777344 204.378906 98.105469 222.050781 98.105469 C 239.722656 98.105469 254.050781 83.777344 254.050781 66.105469 "/>
<path style=" stroke:none;fill-rule:evenodd;fill:rgb(100%,100%,39.199829%);fill-opacity:0.4;" d="M 270.050781 66.105469 C 270.050781 39.59375 248.558594 18.105469 222.050781 18.105469 C 195.539062 18.105469 174.050781 39.59375 174.050781 66.105469 C 174.050781 92.613281 195.539062 114.105469 222.050781 114.105469 C 248.558594 114.105469 270.050781 92.613281 270.050781 66.105469 "/>
<path style="fill:none;stroke-width:0.8;stroke-linecap:butt;stroke-linejoin:round;stroke:rgb(0%,0%,0%);stroke-opacity:1;stroke-miterlimit:10;" d="M 224.000281 704.451656 C 224.000281 704.451656 224.000281 704.451656 224.082313 704.096188 C 224.160438 703.740719 224.316688 703.025875 224.742469 702.307125 C 225.164344 701.592281 225.851844 700.869625 226.910438 700.123531 C 227.965125 699.377438 229.398719 698.604 230.8245 697.967281 C 232.254188 697.330563 233.679969 696.826656 235.015906 696.408688 C 236.351844 695.990719 237.597938 695.654781 239.152625 695.299313 C 240.707313 694.939938 242.578406 694.557125 244.301063 694.244625 C 246.031531 693.928219 247.613563 693.686031 249.426063 693.44775 C 251.242469 693.209469 253.281531 692.979 255.492469 692.779781 C 257.703406 692.576656 260.082313 692.408688 262.613563 692.283688 C 265.144813 692.162594 267.8245 692.084469 270.469031 692.061031 C 273.113563 692.037594 275.722938 692.07275 277.953406 692.131344 C 280.183875 692.193844 282.035438 692.283688 283.894813 692.404781 C 285.746375 692.521969 287.60575 692.674313 289.754188 692.896969 C 291.902625 693.123531 294.340125 693.420406 296.308875 693.701656 C 298.281531 693.979 299.785438 694.236813 301.148719 694.494625 C 302.515906 694.756344 303.746375 695.018063 305.008094 695.32275 C 306.269813 695.623531 307.562781 695.967281 308.945594 696.400875 C 310.332313 696.834469 311.808875 697.357906 313.258094 698.006344 C 314.703406 698.654781 316.121375 699.432125 316.988563 699.951656 C 317.851844 700.471188 318.16825 700.740719 318.500281 701.092281 C 318.832313 701.443844 319.179969 701.88525 319.429969 702.318844 C 319.676063 702.748531 319.8245 703.174313 319.902625 703.482906 C 319.98075 703.7915 319.988563 703.982906 319.992469 704.076656 C 319.996375 704.174313 319.996375 704.174313 319.996375 704.174313 " transform="matrix(1,0,0,-1,-49.9495,770.104)"/>
<path style="fill:none;stroke-width:1.2;stroke-linecap:butt;stroke-linejoin:round;stroke:rgb(0%,0%,0%);stroke-opacity:1;stroke-miterlimit:10;" d="M 320.000281 703.998531 C 320.000281 730.51025 298.508094 751.998531 272.000281 751.998531 C 245.488563 751.998531 224.000281 730.51025 224.000281 703.998531 C 224.000281 677.490719 245.488563 655.998531 272.000281 655.998531 C 298.508094 655.998531 320.000281 677.490719 320.000281 703.998531 " transform="matrix(1,0,0,-1,-49.9495,770.104)"/>
<path style="fill:none;stroke-width:0.8;stroke-linecap:butt;stroke-linejoin:round;stroke:rgb(0%,0%,0%);stroke-opacity:1;stroke-dasharray:4;stroke-miterlimit:10;" d="M 256.000281 704.205563 C 256.000281 704.205563 256.000281 704.205563 256.035438 704.279781 C 256.070594 704.354 256.140906 704.498531 256.273719 704.670406 C 256.402625 704.842281 256.597938 705.0415 256.926063 705.271969 C 257.254188 705.498531 257.719031 705.76025 258.195594 705.975094 C 258.672156 706.193844 259.164344 706.369625 259.85575 706.564938 C 260.547156 706.756344 261.437781 706.971188 262.1995 707.131344 C 262.961219 707.2915 263.594031 707.393063 264.332313 707.490719 C 265.070594 707.588375 265.914344 707.686031 266.840125 707.76025 C 267.762 707.838375 268.765906 707.900875 269.754188 707.936031 C 270.742469 707.971188 271.715125 707.982906 272.637 707.975094 C 273.558875 707.967281 274.433875 707.939938 275.535438 707.869625 C 276.637 707.795406 277.969031 707.678219 279.137 707.533688 C 280.308875 707.393063 281.312781 707.225094 282.316688 706.998531 C 283.320594 706.775875 284.3245 706.494625 285.04325 706.256344 C 285.758094 706.014156 286.191688 705.82275 286.515906 705.650875 C 286.840125 705.479 287.058875 705.334469 287.265906 705.146969 C 287.476844 704.959469 287.676063 704.729 287.797156 704.518063 C 287.914344 704.307125 287.957313 704.115719 287.98075 704.018063 C 288.000281 703.924313 288.000281 703.924313 288.000281 703.924313 " transform="matrix(1,0,0,-1,-49.9495,770.104)"/>
<path style="fill:none;stroke-width:0.8;stroke-linecap:butt;stroke-linejoin:round;stroke:rgb(0%,0%,0%);stroke-opacity:1;stroke-dasharray:4;stroke-miterlimit:10;" d="M 240.004188 704.127438 C 240.004188 704.127438 240.004188 704.127438 240.039344 704.264156 C 240.078406 704.400875 240.152625 704.674313 240.359656 705.021969 C 240.570594 705.373531 240.91825 705.799313 241.336219 706.182125 C 241.754188 706.564938 242.242469 706.900875 242.754188 707.19775 C 243.265906 707.494625 243.801063 707.76025 244.445594 708.029781 C 245.090125 708.303219 245.844031 708.584469 246.711219 708.861813 C 247.5745 709.139156 248.551063 709.412594 249.652625 709.678219 C 250.750281 709.94775 251.965125 710.209469 253.226844 710.439938 C 254.484656 710.674313 255.781531 710.877438 257.094031 711.049313 C 258.402625 711.225094 259.722938 711.369625 261.051063 711.490719 C 262.379188 711.615719 263.719031 711.709469 265.027625 711.787594 C 266.336219 711.861813 267.617469 711.912594 269.375281 711.932125 C 271.129188 711.959469 273.363563 711.951656 275.308875 711.912594 C 277.254188 711.869625 278.91825 711.787594 280.336219 711.69775 C 281.750281 711.607906 282.91825 711.506344 284.039344 711.393063 C 285.164344 711.279781 286.238563 711.150875 287.125281 711.037594 C 288.015906 710.920406 288.715125 710.814938 289.652625 710.654781 C 290.586219 710.490719 291.765906 710.271969 292.79325 710.053219 C 293.8245 709.834469 294.711219 709.619625 295.73075 709.32275 C 296.750281 709.025875 297.898719 708.650875 298.883094 708.264156 C 299.867469 707.881344 300.683875 707.490719 301.394813 707.053219 C 302.10575 706.615719 302.711219 706.127438 303.094031 705.764156 C 303.472938 705.404781 303.629188 705.1665 303.742469 704.88525 C 303.85575 704.604 303.926063 704.283688 303.965125 704.123531 C 304.000281 703.959469 304.000281 703.959469 304.000281 703.959469 " transform="matrix(1,0,0,-1,-49.9495,770.104)"/>
<path style="fill:none;stroke-width:0.8;stroke-linecap:butt;stroke-linejoin:round;stroke:rgb(0%,0%,0%);stroke-opacity:1;stroke-dasharray:4;stroke-miterlimit:10;" d="M 224.004188 704.783688 C 224.004188 704.783688 224.004188 704.783688 224.054969 704.873531 C 224.101844 704.967281 224.1995 705.150875 224.394813 705.459469 C 224.590125 705.768063 224.879188 706.201656 225.281531 706.639156 C 225.683875 707.080563 226.191688 707.525875 226.883094 708.002438 C 227.5745 708.475094 228.4495 708.986813 229.512 709.494625 C 230.5745 710.002438 231.828406 710.514156 233.097938 710.963375 C 234.367469 711.4165 235.656531 711.807125 236.929969 712.154781 C 238.203406 712.498531 239.465125 712.799313 240.640906 713.061031 C 241.816688 713.318844 242.910438 713.533688 244.094031 713.744625 C 245.277625 713.955563 246.551063 714.162594 247.840125 714.350094 C 249.129188 714.537594 250.433875 714.709469 251.496375 714.838375 C 252.558875 714.967281 253.371375 715.053219 254.387 715.154781 C 255.398719 715.248531 256.609656 715.357906 257.586219 715.436031 C 258.562781 715.518063 259.301063 715.568844 260.082313 715.619625 C 260.859656 715.670406 261.683875 715.717281 262.73075 715.764156 C 263.781531 715.814938 265.062781 715.865719 266.347938 715.904781 C 267.629188 715.939938 268.914344 715.967281 270.164344 715.979 C 271.410438 715.990719 272.617469 715.990719 274.000281 715.975094 C 275.379188 715.955563 276.937781 715.924313 278.289344 715.881344 C 279.640906 715.838375 280.789344 715.7915 282.461219 715.686031 C 284.137 715.580563 286.332313 715.424313 288.058875 715.279781 C 289.781531 715.13525 291.039344 715.006344 292.773719 714.783688 C 294.508094 714.561031 296.719031 714.248531 298.148719 714.033688 C 299.578406 713.818844 300.222938 713.701656 302.078406 713.264156 C 303.933875 712.826656 307.000281 712.068844 308.965125 711.533688 C 310.929969 710.998531 311.797156 710.689938 312.523719 710.404781 C 313.250281 710.119625 313.844031 709.865719 314.597938 709.475094 C 315.35575 709.084469 316.277625 708.561031 316.996375 708.080563 C 317.719031 707.596188 318.238563 707.154781 318.644813 706.725094 C 319.051063 706.295406 319.347938 705.873531 319.554969 705.455563 C 319.762 705.037594 319.879188 704.615719 319.937781 704.404781 C 319.992469 704.193844 319.992469 704.193844 319.992469 704.193844 " transform="matrix(1,0,0,-1,-49.9495,770.104)"/>
<g clip-path="url(#clip15)" clip-rule="nonzero">
<path style="fill:none;stroke-width:2;stroke-linecap:round;stroke-linejoin:round;stroke:rgb(0%,0%,0%);stroke-opacity:1;stroke-miterlimit:10;" d="M 272.000281 767.998531 L 272.000281 639.998531 " transform="matrix(1,0,0,-1,-49.9495,770.104)"/>
</g>
<path style="fill:none;stroke-width:2;stroke-linecap:round;stroke-linejoin:round;stroke:rgb(0%,0%,0%);stroke-opacity:1;stroke-miterlimit:10;" d="M 209.910438 719.521969 L 334.090125 688.479 " transform="matrix(1,0,0,-1,-49.9495,770.104)"/>
<path style="fill:none;stroke-width:2;stroke-linecap:round;stroke-linejoin:round;stroke:rgb(0%,0%,0%);stroke-opacity:1;stroke-miterlimit:10;" d="M 209.910438 688.479 L 334.090125 719.521969 " transform="matrix(1,0,0,-1,-49.9495,770.104)"/>
<path style="fill:none;stroke-width:0.8;stroke-linecap:butt;stroke-linejoin:round;stroke:rgb(0%,0%,0%);stroke-opacity:1;stroke-miterlimit:10;" d="M 256.000281 704.018063 C 256.000281 704.018063 256.000281 704.018063 256.015906 703.94775 C 256.027625 703.873531 256.058875 703.729 256.125281 703.576656 C 256.195594 703.424313 256.301063 703.26025 256.453406 703.100094 C 256.601844 702.939938 256.79325 702.779781 257.140906 702.57275 C 257.488563 702.365719 257.988563 702.111813 258.496375 701.896969 C 259.004188 701.686031 259.519813 701.514156 260.211219 701.330563 C 260.902625 701.150875 261.765906 700.951656 262.722938 700.783688 C 263.679969 700.611813 264.726844 700.463375 265.801063 700.346188 C 266.879188 700.232906 267.984656 700.150875 269.047156 700.096188 C 270.113563 700.045406 271.140906 700.021969 272.195594 700.025875 C 273.250281 700.029781 274.336219 700.061031 275.515906 700.13525 C 276.695594 700.205563 277.972938 700.318844 279.035438 700.443844 C 280.097938 700.568844 280.953406 700.705563 281.832313 700.881344 C 282.711219 701.064938 283.617469 701.287594 284.375281 701.518063 C 285.137 701.752438 285.750281 701.994625 286.262 702.26025 C 286.773719 702.525875 287.183875 702.814938 287.437781 703.029781 C 287.691688 703.244625 287.789344 703.389156 287.859656 703.5415 C 287.926063 703.693844 287.961219 703.857906 287.98075 703.939938 C 288.000281 704.018063 288.000281 704.018063 288.000281 704.018063 " transform="matrix(1,0,0,-1,-49.9495,770.104)"/>
<path style="fill:none;stroke-width:1.2;stroke-linecap:butt;stroke-linejoin:round;stroke:rgb(0%,0%,0%);stroke-opacity:1;stroke-miterlimit:10;" d="M 288.000281 703.998531 C 288.000281 712.838375 280.836219 719.998531 272.000281 719.998531 C 263.164344 719.998531 256.000281 712.838375 256.000281 703.998531 C 256.000281 695.162594 263.164344 687.998531 272.000281 687.998531 C 280.836219 687.998531 288.000281 695.162594 288.000281 703.998531 " transform="matrix(1,0,0,-1,-49.9495,770.104)"/>
<path style="fill:none;stroke-width:1.2;stroke-linecap:butt;stroke-linejoin:round;stroke:rgb(0%,0%,0%);stroke-opacity:1;stroke-miterlimit:10;" d="M 304.000281 703.998531 C 304.000281 721.674313 289.672156 735.998531 272.000281 735.998531 C 254.328406 735.998531 240.000281 721.674313 240.000281 703.998531 C 240.000281 686.326656 254.328406 671.998531 272.000281 671.998531 C 289.672156 671.998531 304.000281 686.326656 304.000281 703.998531 " transform="matrix(1,0,0,-1,-49.9495,770.104)"/>
<path style="fill:none;stroke-width:0.8;stroke-linecap:butt;stroke-linejoin:round;stroke:rgb(0%,0%,0%);stroke-opacity:1;stroke-miterlimit:10;" d="M 240.000281 704.025875 C 240.000281 704.025875 240.000281 704.025875 240.054969 703.830563 C 240.109656 703.639156 240.215125 703.248531 240.429969 702.873531 C 240.640906 702.494625 240.957313 702.131344 241.383094 701.768063 C 241.808875 701.404781 242.340125 701.045406 243.070594 700.662594 C 243.797156 700.279781 244.722938 699.869625 245.515906 699.557125 C 246.304969 699.248531 246.961219 699.033688 247.906531 698.771969 C 248.85575 698.51025 250.090125 698.201656 251.328406 697.932125 C 252.566688 697.6665 253.801063 697.443844 255.031531 697.244625 C 256.265906 697.049313 257.492469 696.88525 258.941688 696.729 C 260.390906 696.57275 262.058875 696.420406 263.816688 696.307125 C 265.570594 696.189938 267.414344 696.111813 269.519813 696.076656 C 271.629188 696.045406 274.004188 696.061031 276.039344 696.115719 C 278.078406 696.170406 279.773719 696.264156 281.496375 696.400875 C 283.219031 696.537594 284.972938 696.717281 286.60575 696.928219 C 288.242469 697.13525 289.762 697.377438 291.250281 697.662594 C 292.738563 697.94775 294.195594 698.279781 295.492469 698.631344 C 296.789344 698.982906 297.926063 699.357906 298.945594 699.768063 C 299.965125 700.174313 300.867469 700.623531 301.508094 700.986813 C 302.152625 701.354 302.531531 701.643063 302.85575 701.94775 C 303.179969 702.248531 303.4495 702.568844 303.629188 702.920406 C 303.812781 703.268063 303.906531 703.646969 303.953406 703.834469 C 304.000281 704.025875 304.000281 704.025875 304.000281 704.025875 " transform="matrix(1,0,0,-1,-49.9495,770.104)"/>
<path style=" stroke:none;fill-rule:evenodd;fill:rgb(100%,100%,39.199829%);fill-opacity:1;" d="M 224.550781 66.105469 C 224.550781 64.722656 223.429688 63.605469 222.050781 63.605469 C 220.667969 63.605469 219.550781 64.722656 219.550781 66.105469 C 219.550781 67.484375 220.667969 68.605469 222.050781 68.605469 C 223.429688 68.605469 224.550781 67.484375 224.550781 66.105469 "/>
<path style=" stroke:none;fill-rule:evenodd;fill:rgb(0%,0%,0%);fill-opacity:1;" d="M 225.050781 66.105469 C 225.050781 64.445312 223.707031 63.105469 222.050781 63.105469 C 220.394531 63.105469 219.050781 64.445312 219.050781 66.105469 C 219.050781 67.761719 220.394531 69.105469 222.050781 69.105469 C 223.707031 69.105469 225.050781 67.761719 225.050781 66.105469 M 224.050781 66.105469 C 224.050781 65 223.15625 64.105469 222.050781 64.105469 C 220.945312 64.105469 220.050781 65 220.050781 66.105469 C 220.050781 67.210938 220.945312 68.105469 222.050781 68.105469 C 223.15625 68.105469 224.050781 67.210938 224.050781 66.105469 "/>
<path style="fill-rule:evenodd;fill:rgb(86.999512%,86.999512%,86.999512%);fill-opacity:1;stroke-width:2;stroke-linecap:butt;stroke-linejoin:round;stroke:rgb(0%,0%,0%);stroke-opacity:1;stroke-miterlimit:10;" d="M 60.023719 735.400875 C 50.051063 718.354 47.152625 691.256344 60.191688 671.143063 C 73.23075 651.029781 102.207313 637.908688 126.750281 640.63525 C 151.29325 643.361813 171.406531 661.939938 173.367469 687.080563 C 175.328406 712.217281 159.133094 743.920406 144.562781 758.240719 C 129.988563 772.557125 117.035438 769.486813 102.035438 764.459469 C 87.039344 759.432125 69.992469 752.443844 60.023719 735.400875 Z M 60.023719 735.400875 " transform="matrix(1,0,0,-1,-49.9495,770.104)"/>
<path style="fill-rule:evenodd;fill:rgb(95.698547%,96.899414%,71.398926%);fill-opacity:1;stroke-width:1.2;stroke-linecap:butt;stroke-linejoin:round;stroke:rgb(0%,0%,0%);stroke-opacity:1;stroke-miterlimit:10;" d="M 108.98075 742.850094 C 108.98075 742.850094 108.98075 742.850094 111.015906 742.443844 C 113.047156 742.037594 117.109656 741.221188 120.316688 739.959469 C 123.523719 738.693844 125.871375 736.979 126.277625 735.170406 C 126.683875 733.365719 125.148719 731.467281 124.383094 730.518063 C 123.613563 729.57275 123.613563 729.57275 123.613563 729.57275 C 123.613563 729.57275 123.613563 729.57275 124.742469 728.037594 C 125.871375 726.502438 128.129188 723.428219 129.258094 720.5415 C 130.387 717.650875 130.387 714.939938 129.5745 712.32275 C 128.762 709.701656 127.137 707.170406 126.3245 705.908688 C 125.512 704.643063 125.512 704.643063 125.512 704.643063 C 125.512 704.643063 125.512 704.643063 124.6995 705.502438 C 123.883094 706.357906 122.258094 708.076656 120.117469 709.432125 C 117.972938 710.7915 115.312781 711.7915 112.691688 712.467281 C 110.0745 713.146969 107.496375 713.502438 106.207313 713.678219 C 104.91825 713.857906 104.91825 713.857906 104.91825 713.857906 C 104.91825 713.857906 104.91825 713.857906 105.640906 714.76025 C 106.363563 715.662594 107.808875 717.467281 108.937781 720.494625 C 110.066688 723.518063 110.879188 727.764156 110.832313 731.693844 C 110.789344 735.623531 109.883094 739.236813 109.433875 741.0415 C 108.98075 742.850094 108.98075 742.850094 108.98075 742.850094 Z M 108.98075 742.850094 " transform="matrix(1,0,0,-1,-49.9495,770.104)"/>
<path style="fill-rule:evenodd;fill:rgb(23.699951%,65.899658%,65.899658%);fill-opacity:1;stroke-width:0.4;stroke-linecap:butt;stroke-linejoin:round;stroke:rgb(0%,0%,0%);stroke-opacity:1;stroke-miterlimit:10;" d="M 126.769813 734.912594 C 127.039344 734.389156 127.340125 733.787594 127.683875 733.025875 C 128.027625 732.26025 128.414344 731.334469 128.715125 730.51025 C 129.019813 729.682125 129.238563 728.963375 129.422156 728.240719 C 129.60575 727.514156 129.754188 726.7915 129.871375 726.064938 C 129.988563 725.342281 130.078406 724.619625 130.148719 723.818844 C 130.219031 723.014156 130.269813 722.13525 130.29325 721.217281 C 130.316688 720.299313 130.312781 719.342281 130.285438 718.518063 C 130.254188 717.689938 130.1995 716.994625 130.172156 716.646969 C 130.144813 716.299313 130.144813 716.299313 130.144813 716.299313 C 130.144813 716.299313 130.144813 716.299313 130.121375 716.545406 C 130.101844 716.795406 130.054969 717.295406 129.961219 717.850094 C 129.867469 718.404781 129.726844 719.01025 129.539344 719.611813 C 129.35575 720.209469 129.125281 720.799313 128.887 721.342281 C 128.648719 721.881344 128.402625 722.373531 128.121375 722.881344 C 127.844031 723.393063 127.531531 723.924313 127.23075 724.412594 C 126.926063 724.896969 126.640906 725.338375 126.289344 725.846188 C 125.945594 726.357906 125.539344 726.932125 125.23075 727.361813 C 124.922156 727.7915 124.711219 728.076656 124.445594 728.412594 C 124.176063 728.748531 123.851844 729.131344 123.687781 729.326656 C 123.523719 729.518063 123.523719 729.518063 123.523719 729.518063 C 123.523719 729.518063 123.523719 729.518063 123.707313 729.736813 C 123.890906 729.955563 124.258094 730.389156 124.582313 730.799313 C 124.902625 731.205563 125.176063 731.588375 125.402625 731.951656 C 125.633094 732.314938 125.816688 732.662594 125.953406 732.975094 C 126.090125 733.287594 126.179969 733.568844 126.23075 733.889156 C 126.285438 734.213375 126.301063 734.576656 126.265906 734.943844 C 126.23075 735.307125 126.140906 735.674313 126.090125 735.904781 C 126.039344 736.131344 126.031531 736.225094 126.148719 736.053219 C 126.262 735.877438 126.500281 735.432125 126.769813 734.912594 Z M 126.769813 734.912594 " transform="matrix(1,0,0,-1,-49.9495,770.104)"/>
<path style="fill:none;stroke-width:2;stroke-linecap:butt;stroke-linejoin:round;stroke:rgb(0%,0%,0%);stroke-opacity:1;stroke-dasharray:4;stroke-miterlimit:10;" d="M 51.4495 702.170406 C 51.4495 702.170406 51.4495 702.170406 51.519813 702.342281 C 51.590125 702.518063 51.73075 702.861813 51.85575 703.123531 C 51.98075 703.389156 52.094031 703.568844 52.277625 703.803219 C 52.465125 704.037594 52.726844 704.334469 53.086219 704.658688 C 53.4495 704.982906 53.906531 705.342281 54.531531 705.736813 C 55.152625 706.13525 55.937781 706.568844 56.625281 706.9165 C 57.312781 707.26025 57.898719 707.514156 58.750281 707.838375 C 59.601844 708.162594 60.719031 708.557125 61.969031 708.94775 C 63.219031 709.334469 64.601844 709.717281 66.609656 710.182125 C 68.617469 710.643063 71.250281 711.186031 73.648719 711.619625 C 76.047156 712.049313 78.211219 712.373531 80.484656 712.6665 C 82.758094 712.959469 85.144813 713.225094 88.179969 713.482906 C 91.215125 713.744625 94.902625 714.002438 98.058875 714.174313 C 101.215125 714.346188 103.840125 714.436031 106.648719 714.486813 C 109.461219 714.537594 112.4495 714.545406 115.535438 714.506344 C 118.621375 714.467281 121.797156 714.373531 124.914344 714.232906 C 128.027625 714.088375 131.078406 713.893063 133.371375 713.721188 C 135.664344 713.553219 137.1995 713.412594 139.027625 713.213375 C 140.85575 713.014156 142.984656 712.76025 145.281531 712.432125 C 147.578406 712.104 150.047156 711.701656 152.500281 711.225094 C 154.953406 710.748531 157.387 710.19775 159.492469 709.63525 C 161.601844 709.07275 163.379188 708.502438 164.883094 707.928219 C 166.390906 707.354 167.621375 706.779781 168.554969 706.271969 C 169.488563 705.768063 170.125281 705.326656 170.640906 704.893063 C 171.152625 704.459469 171.54325 704.033688 171.8245 703.63525 C 172.10575 703.240719 172.273719 702.877438 172.35575 702.693844 C 172.441688 702.51025 172.441688 702.51025 172.441688 702.51025 " transform="matrix(1,0,0,-1,-49.9495,770.104)"/>
<path style="fill:none;stroke-width:4;stroke-linecap:butt;stroke-linejoin:round;stroke:rgb(86.999512%,86.999512%,86.999512%);stroke-opacity:1;stroke-miterlimit:10;" d="M 68.898719 719.971188 C 68.820594 716.521969 71.535438 711.709469 71.613563 707.057125 C 71.691688 702.400875 69.129188 697.900875 70.254188 694.217281 C 71.379188 690.529781 76.191688 687.662594 81.039344 688.32275 C 85.887 688.979 90.773719 693.170406 89.726844 700.307125 C 88.679969 707.443844 81.6995 717.529781 76.773719 721.525875 C 71.847938 725.518063 68.976844 723.424313 68.898719 719.971188 Z M 68.898719 719.971188 " transform="matrix(1,0,0,-1,-49.9495,770.104)"/>
<path style="fill-rule:evenodd;fill:rgb(86.999512%,86.999512%,86.999512%);fill-opacity:1;stroke-width:0.4;stroke-linecap:butt;stroke-linejoin:round;stroke:rgb(0%,0%,0%);stroke-opacity:1;stroke-miterlimit:10;" d="M 87.664344 706.713375 L 104.91825 713.857906 " transform="matrix(1,0,0,-1,-49.9495,770.104)"/>
<path style="fill-rule:evenodd;fill:rgb(45.899963%,45.899963%,45.899963%);fill-opacity:0.5;stroke-width:0.4;stroke-linecap:butt;stroke-linejoin:round;stroke:rgb(0%,0%,0%);stroke-opacity:0.5;stroke-miterlimit:10;" d="M 87.664344 706.713375 C 87.664344 706.713375 87.664344 706.713375 90.562781 707.900875 C 93.457313 709.088375 99.250281 711.463375 102.144813 712.650875 C 105.039344 713.838375 105.039344 713.838375 105.039344 713.838375 C 105.039344 713.838375 105.039344 713.838375 105.765906 713.729 C 106.496375 713.619625 107.9495 713.400875 109.359656 713.13525 C 110.765906 712.873531 112.125281 712.564938 113.152625 712.299313 C 114.176063 712.033688 114.863563 711.814938 115.570594 711.561031 C 116.277625 711.303219 117.000281 711.01025 117.933875 710.533688 C 118.863563 710.057125 119.996375 709.400875 120.894813 708.795406 C 121.789344 708.189938 122.4495 707.643063 123.008094 707.139156 C 123.570594 706.63525 124.031531 706.174313 124.433875 705.768063 C 124.832313 705.357906 125.172156 705.002438 125.340125 704.82275 C 125.512 704.643063 125.512 704.643063 125.512 704.643063 C 125.512 704.643063 125.512 704.643063 119.398719 704.44775 C 113.285438 704.252438 101.062781 703.861813 94.9495 703.6665 C 88.840125 703.471188 88.840125 703.471188 88.840125 703.471188 C 88.840125 703.471188 88.840125 703.471188 88.769813 703.721188 C 88.695594 703.971188 88.554969 704.467281 88.359656 705.01025 C 88.164344 705.549313 87.914344 706.131344 87.789344 706.420406 C 87.664344 706.713375 87.664344 706.713375 87.664344 706.713375 Z M 87.664344 706.713375 " transform="matrix(1,0,0,-1,-49.9495,770.104)"/>
<path style="fill-rule:evenodd;fill:rgb(47.499084%,47.499084%,47.499084%);fill-opacity:0.5;stroke-width:0.4;stroke-linecap:butt;stroke-linejoin:round;stroke:rgb(0%,0%,0%);stroke-opacity:0.5;stroke-miterlimit:10;" d="M 87.066688 707.717281 C 87.066688 707.717281 87.066688 707.717281 93.125281 711.342281 C 99.183875 714.967281 111.304969 722.213375 117.367469 725.834469 C 123.426063 729.459469 123.426063 729.459469 123.426063 729.459469 C 123.426063 729.459469 123.426063 729.459469 123.734656 729.100094 C 124.04325 728.736813 124.660438 728.018063 125.29325 727.178219 C 125.922156 726.338375 126.570594 725.38525 127.203406 724.318844 C 127.836219 723.256344 128.453406 722.080563 128.926063 720.912594 C 129.402625 719.744625 129.73075 718.580563 129.902625 717.57275 C 130.0745 716.561031 130.082313 715.705563 130.012 714.889156 C 129.941688 714.07275 129.789344 713.295406 129.539344 712.467281 C 129.289344 711.63525 128.941688 710.752438 128.5745 709.943844 C 128.203406 709.13525 127.812781 708.408688 127.301063 707.537594 C 126.785438 706.6665 126.148719 705.654781 125.828406 705.150875 C 125.512 704.643063 125.512 704.643063 125.512 704.643063 C 125.512 704.643063 125.512 704.643063 119.414344 704.459469 C 113.316688 704.275875 101.125281 703.908688 95.027625 703.725094 C 88.929969 703.5415 88.929969 703.5415 88.929969 703.5415 C 88.929969 703.5415 88.929969 703.5415 88.801063 703.889156 C 88.672156 704.232906 88.410438 704.924313 88.097938 705.619625 C 87.789344 706.318844 87.426063 707.018063 87.246375 707.369625 C 87.066688 707.717281 87.066688 707.717281 87.066688 707.717281 Z M 87.066688 707.717281 " transform="matrix(1,0,0,-1,-49.9495,770.104)"/>
<path style="fill-rule:evenodd;fill:rgb(66.299438%,66.299438%,66.299438%);fill-opacity:0.5;stroke-width:0.4;stroke-linecap:butt;stroke-linejoin:round;stroke:rgb(0%,0%,0%);stroke-opacity:0.5;stroke-miterlimit:10;" d="M 85.29325 711.006344 C 85.29325 711.006344 85.29325 711.006344 89.238563 716.314938 C 93.187781 721.619625 101.086219 732.236813 105.031531 737.5415 C 108.98075 742.850094 108.98075 742.850094 108.98075 742.850094 C 108.98075 742.850094 108.98075 742.850094 109.625281 742.717281 C 110.265906 742.588375 111.551063 742.330563 112.972938 742.006344 C 114.394813 741.682125 115.953406 741.295406 117.191688 740.94775 C 118.429969 740.596188 119.351844 740.287594 120.183875 739.963375 C 121.012 739.639156 121.750281 739.299313 122.4495 738.904781 C 123.152625 738.51025 123.812781 738.057125 124.379188 737.580563 C 124.945594 737.104 125.422156 736.600094 125.722938 736.037594 C 126.023719 735.471188 126.148719 734.842281 126.133094 734.268063 C 126.117469 733.69775 125.965125 733.186031 125.676063 732.607906 C 125.387 732.029781 124.961219 731.38525 124.621375 730.900875 C 124.285438 730.420406 124.031531 730.100094 123.832313 729.877438 C 123.633094 729.654781 123.484656 729.529781 123.422156 729.475094 C 123.359656 729.420406 123.383094 729.436031 123.394813 729.443844 C 123.406531 729.44775 123.406531 729.44775 117.351844 725.826656 C 111.29325 722.205563 99.179969 714.963375 93.121375 711.338375 C 87.066688 707.717281 87.066688 707.717281 87.066688 707.717281 C 87.066688 707.717281 87.066688 707.717281 86.937781 707.998531 C 86.812781 708.279781 86.558875 708.838375 86.265906 709.38525 C 85.969031 709.932125 85.629188 710.471188 85.461219 710.736813 C 85.29325 711.006344 85.29325 711.006344 85.29325 711.006344 Z M 85.29325 711.006344 " transform="matrix(1,0,0,-1,-49.9495,770.104)"/>
<path style="fill-rule:evenodd;fill:rgb(92.098999%,92.098999%,92.098999%);fill-opacity:1;stroke-width:2;stroke-linecap:butt;stroke-linejoin:round;stroke:rgb(0%,0%,0%);stroke-opacity:1;stroke-miterlimit:10;" d="M 68.898719 719.971188 C 68.820594 716.521969 71.535438 711.709469 71.613563 707.057125 C 71.691688 702.400875 69.129188 697.900875 70.254188 694.217281 C 71.379188 690.529781 76.191688 687.662594 81.039344 688.32275 C 85.887 688.979 90.773719 693.170406 89.726844 700.307125 C 88.679969 707.443844 81.6995 717.529781 76.773719 721.525875 C 71.847938 725.518063 68.976844 723.424313 68.898719 719.971188 Z M 68.898719 719.971188 " transform="matrix(1,0,0,-1,-49.9495,770.104)"/>
<path style="fill:none;stroke-width:2;stroke-linecap:butt;stroke-linejoin:round;stroke:rgb(0%,0%,0%);stroke-opacity:1;stroke-dasharray:4;stroke-miterlimit:10;" d="M 71.04325 702.459469 C 71.04325 702.459469 71.04325 702.459469 71.051063 702.498531 C 71.058875 702.533688 71.0745 702.607906 71.090125 702.682125 C 71.10575 702.76025 71.125281 702.838375 71.285438 702.9165 C 71.445594 702.990719 71.750281 703.061031 71.988563 703.127438 C 72.226844 703.193844 72.398719 703.248531 72.715125 703.334469 C 73.031531 703.420406 73.492469 703.529781 74.101844 703.639156 C 74.711219 703.744625 75.469031 703.850094 76.476844 703.932125 C 77.484656 704.014156 78.742469 704.076656 79.961219 704.080563 C 81.183875 704.084469 82.363563 704.037594 83.359656 703.959469 C 84.351844 703.88525 85.164344 703.779781 85.910438 703.639156 C 86.660438 703.498531 87.344031 703.318844 87.808875 703.170406 C 88.273719 703.021969 88.515906 702.900875 88.695594 702.783688 C 88.871375 702.6665 88.988563 702.553219 89.051063 702.439938 C 89.117469 702.326656 89.133094 702.213375 89.140906 702.158688 C 89.148719 702.100094 89.148719 702.100094 89.148719 702.100094 " transform="matrix(1,0,0,-1,-49.9495,770.104)"/>
<path style="fill:none;stroke-width:2;stroke-linecap:butt;stroke-linejoin:round;stroke:rgb(0%,0%,0%);stroke-opacity:1;stroke-miterlimit:10;" d="M 71.012 702.32275 C 71.012 702.32275 71.012 702.32275 71.039344 702.232906 C 71.066688 702.143063 71.121375 701.967281 71.238563 701.818844 C 71.351844 701.674313 71.531531 701.561031 71.6995 701.471188 C 71.867469 701.381344 72.023719 701.318844 72.344031 701.217281 C 72.660438 701.119625 73.137 700.990719 73.617469 700.881344 C 74.097938 700.775875 74.586219 700.693844 75.140906 700.619625 C 75.691688 700.545406 76.308875 700.479 76.926063 700.428219 C 77.54325 700.381344 78.164344 700.346188 78.808875 700.330563 C 79.4495 700.311031 80.109656 700.307125 80.801063 700.318844 C 81.488563 700.334469 82.207313 700.365719 82.890906 700.412594 C 83.578406 700.459469 84.23075 700.525875 84.804969 700.596188 C 85.375281 700.670406 85.867469 700.748531 86.312781 700.842281 C 86.762 700.932125 87.172156 701.033688 87.476844 701.119625 C 87.781531 701.205563 87.988563 701.279781 88.172156 701.357906 C 88.35575 701.436031 88.519813 701.518063 88.679969 701.643063 C 88.840125 701.771969 88.996375 701.939938 89.0745 702.0415 C 89.152625 702.143063 89.160438 702.178219 89.160438 702.19775 C 89.164344 702.213375 89.164344 702.213375 89.164344 702.213375 " transform="matrix(1,0,0,-1,-49.9495,770.104)"/>
<path style="fill:none;stroke-width:0.4;stroke-linecap:butt;stroke-linejoin:round;stroke:rgb(0%,0%,0%);stroke-opacity:1;stroke-miterlimit:10;" d="M 85.29325 711.006344 L 108.98075 742.850094 " transform="matrix(1,0,0,-1,-49.9495,770.104)"/>
<path style="fill-rule:evenodd;fill:rgb(86.999512%,86.999512%,86.999512%);fill-opacity:1;stroke-width:0.4;stroke-linecap:butt;stroke-linejoin:round;stroke:rgb(0%,0%,0%);stroke-opacity:1;stroke-miterlimit:10;" d="M 88.929969 703.5415 L 125.512 704.643063 " transform="matrix(1,0,0,-1,-49.9495,770.104)"/>
<path style="fill-rule:evenodd;fill:rgb(86.999512%,86.999512%,86.999512%);fill-opacity:1;stroke-width:0.4;stroke-linecap:butt;stroke-linejoin:round;stroke:rgb(0%,0%,0%);stroke-opacity:1;stroke-miterlimit:10;" d="M 87.066688 707.717281 L 123.613563 729.57275 " transform="matrix(1,0,0,-1,-49.9495,770.104)"/>
<path style="fill:none;stroke-width:1.2;stroke-linecap:butt;stroke-linejoin:round;stroke:rgb(0%,0%,0%);stroke-opacity:1;stroke-miterlimit:10;" d="M 122.597938 738.900875 C 122.597938 738.900875 122.597938 738.900875 122.840125 738.748531 C 123.086219 738.596188 123.570594 738.2915 124.140906 737.861813 C 124.711219 737.432125 125.367469 736.877438 125.910438 736.213375 C 126.453406 735.553219 126.883094 734.787594 127.465125 733.568844 C 128.04325 732.354 128.777625 730.689938 129.29325 728.865719 C 129.808875 727.0415 130.10575 725.057125 130.242469 722.94775 C 130.379188 720.834469 130.35575 718.596188 130.234656 716.857906 C 130.113563 715.119625 129.890906 713.881344 129.781531 713.26025 C 129.672156 712.643063 129.672156 712.643063 129.672156 712.643063 " transform="matrix(1,0,0,-1,-49.9495,770.104)"/>
<path style="fill-rule:evenodd;fill:rgb(22.698975%,65.79895%,65.79895%);fill-opacity:1;stroke-width:1.2;stroke-linecap:butt;stroke-linejoin:round;stroke:rgb(0%,0%,0%);stroke-opacity:1;stroke-miterlimit:10;" d="M 120.5745 659.830563 C 121.121375 659.830563 121.582313 659.830563 122.137 659.834469 C 122.691688 659.834469 123.344031 659.842281 124.172156 659.869625 C 125.004188 659.896969 126.012 659.943844 126.98075 660.025875 C 127.9495 660.107906 128.879188 660.225094 129.871375 660.424313 C 130.863563 660.623531 131.922156 660.904781 132.785438 661.174313 C 133.648719 661.443844 134.320594 661.701656 134.972938 661.986813 C 135.625281 662.268063 136.262 662.568844 136.9495 662.943844 C 137.637 663.314938 138.371375 663.756344 139.04325 664.221188 C 139.715125 664.682125 140.320594 665.162594 140.832313 665.615719 C 141.344031 666.064938 141.765906 666.486813 142.226844 666.998531 C 142.683875 667.514156 143.179969 668.119625 143.640906 668.744625 C 144.097938 669.369625 144.519813 670.01025 144.883094 670.646969 C 145.250281 671.279781 145.566688 671.904781 145.840125 672.5415 C 146.117469 673.178219 146.359656 673.826656 146.5745 674.490719 C 146.785438 675.158688 146.965125 675.846188 147.140906 676.662594 C 147.312781 677.475094 147.476844 678.4165 147.590125 679.193844 C 147.707313 679.971188 147.773719 680.584469 147.789344 681.229 C 147.808875 681.877438 147.781531 682.557125 147.715125 683.209469 C 147.644813 683.861813 147.535438 684.486813 147.328406 685.244625 C 147.121375 685.998531 146.816688 686.889156 146.523719 687.611813 C 146.226844 688.330563 145.941688 688.88525 145.597938 689.44775 C 145.250281 690.01025 144.847938 690.584469 144.375281 691.139156 C 143.898719 691.693844 143.351844 692.229 142.871375 692.623531 C 142.398719 693.014156 141.992469 693.264156 141.512 693.463375 C 141.035438 693.658688 140.484656 693.803219 139.976844 693.834469 C 139.472938 693.869625 139.012 693.7915 138.597938 693.631344 C 138.179969 693.475094 137.808875 693.236813 137.414344 692.850094 C 137.019813 692.463375 136.60575 691.928219 136.312781 691.486813 C 136.015906 691.045406 135.844031 690.701656 135.625281 690.193844 C 135.410438 689.686031 135.148719 689.018063 134.933875 688.404781 C 134.711219 687.787594 134.535438 687.221188 134.344031 686.576656 C 134.152625 685.928219 133.953406 685.201656 133.762 684.486813 C 133.570594 683.768063 133.390906 683.064938 133.219031 682.381344 C 133.047156 681.701656 132.879188 681.037594 132.707313 680.342281 C 132.535438 679.646969 132.351844 678.9165 132.16825 678.205563 C 131.984656 677.494625 131.801063 676.795406 131.613563 676.104 C 131.422156 675.412594 131.226844 674.725094 131.015906 674.033688 C 130.804969 673.338375 130.582313 672.643063 130.367469 672.014156 C 130.152625 671.38525 129.945594 670.82275 129.726844 670.271969 C 129.508094 669.721188 129.277625 669.186031 129.04325 668.654781 C 128.804969 668.123531 128.562781 667.600094 128.238563 667.037594 C 127.91825 666.479 127.519813 665.881344 127.152625 665.369625 C 126.785438 664.854 126.453406 664.424313 126.144813 664.053219 C 125.836219 663.682125 125.547156 663.369625 125.203406 663.037594 C 124.863563 662.701656 124.465125 662.346188 124.094031 662.049313 C 123.719031 661.748531 123.371375 661.502438 122.984656 661.264156 C 122.601844 661.029781 122.179969 660.803219 121.828406 660.63525 C 121.48075 660.467281 121.195594 660.357906 120.851844 660.252438 C 120.504188 660.143063 120.090125 660.0415 119.804969 659.979 C 119.515906 659.9165 119.347938 659.893063 119.195594 659.877438 C 119.04325 659.861813 118.902625 659.850094 119.148719 659.842281 C 119.394813 659.838375 120.027625 659.834469 120.5745 659.830563 Z M 120.5745 659.830563 " transform="matrix(1,0,0,-1,-49.9495,770.104)"/>
<path style="fill:none;stroke-width:1.2;stroke-linecap:butt;stroke-linejoin:round;stroke:rgb(0%,0%,0%);stroke-opacity:1;stroke-dasharray:4;stroke-miterlimit:10;" d="M 128.316688 667.076656 C 128.316688 667.076656 128.316688 667.076656 128.539344 667.100094 C 128.765906 667.127438 129.211219 667.178219 129.660438 667.236813 C 130.109656 667.295406 130.558875 667.361813 131.097938 667.455563 C 131.640906 667.553219 132.277625 667.674313 132.957313 667.826656 C 133.633094 667.979 134.35575 668.162594 135.156531 668.400875 C 135.957313 668.63525 136.836219 668.928219 137.625281 669.221188 C 138.410438 669.518063 139.101844 669.814938 139.785438 670.150875 C 140.469031 670.482906 141.144813 670.854 141.801063 671.268063 C 142.457313 671.686031 143.094031 672.150875 143.644813 672.611813 C 144.195594 673.076656 144.660438 673.537594 145.090125 674.053219 C 145.523719 674.568844 145.922156 675.139156 146.215125 675.607906 C 146.504188 676.07275 146.687781 676.439938 146.867469 676.869625 C 147.04325 677.295406 147.219031 677.7915 147.347938 678.217281 C 147.476844 678.643063 147.558875 678.998531 147.597938 679.178219 C 147.640906 679.357906 147.640906 679.357906 147.640906 679.357906 " transform="matrix(1,0,0,-1,-49.9495,770.104)"/>
<path style="fill-rule:evenodd;fill:rgb(95.599365%,96.798706%,71.299744%);fill-opacity:1;stroke-width:1.2;stroke-linecap:butt;stroke-linejoin:round;stroke:rgb(0%,0%,0%);stroke-opacity:1;stroke-miterlimit:10;" d="M 126.234656 666.951656 C 125.590125 666.924313 125.023719 666.9165 124.332313 666.932125 C 123.640906 666.951656 122.828406 666.994625 122.012 667.064938 C 121.1995 667.139156 120.383094 667.240719 119.742469 667.334469 C 119.097938 667.424313 118.629188 667.506344 118.156531 667.596188 C 117.687781 667.686031 117.219031 667.783688 116.695594 667.896969 C 116.16825 668.014156 115.582313 668.146969 115.023719 668.275875 C 114.461219 668.408688 113.926063 668.533688 113.35575 668.654781 C 112.789344 668.775875 112.187781 668.889156 111.594031 668.9165 C 111.000281 668.939938 110.414344 668.877438 110.066688 668.725094 C 109.719031 668.576656 109.609656 668.342281 109.597938 667.982906 C 109.586219 667.619625 109.676063 667.123531 109.847938 666.619625 C 110.019813 666.115719 110.273719 665.596188 110.547156 665.123531 C 110.8245 664.654781 111.121375 664.229 111.414344 663.850094 C 111.707313 663.471188 112.000281 663.13525 112.328406 662.803219 C 112.656531 662.467281 113.023719 662.131344 113.371375 661.846188 C 113.722938 661.557125 114.054969 661.314938 114.461219 661.07275 C 114.867469 660.826656 115.344031 660.580563 115.812781 660.393063 C 116.285438 660.205563 116.746375 660.07275 117.156531 659.986813 C 117.562781 659.904781 117.914344 659.869625 118.273719 659.861813 C 118.629188 659.854 118.988563 659.869625 119.410438 659.939938 C 119.836219 660.006344 120.3245 660.123531 120.773719 660.26025 C 121.226844 660.396969 121.640906 660.557125 122.10575 660.787594 C 122.566688 661.021969 123.0745 661.326656 123.582313 661.693844 C 124.090125 662.064938 124.597938 662.502438 125.035438 662.920406 C 125.472938 663.334469 125.840125 663.732906 126.16825 664.119625 C 126.492469 664.502438 126.777625 664.873531 127.129188 665.361813 C 127.48075 665.854 127.898719 666.463375 128.109656 666.768063 C 128.316688 667.076656 128.316688 667.076656 127.957313 667.049313 C 127.597938 667.025875 126.875281 666.979 126.234656 666.951656 Z M 126.234656 666.951656 " transform="matrix(1,0,0,-1,-49.9495,770.104)"/>
<path style=" stroke:none;fill-rule:evenodd;fill:rgb(45.498657%,45.498657%,45.498657%);fill-opacity:0.5;" d="M 34.589844 71.675781 C 34.589844 71.675781 34.589844 71.675781 39.214844 77.613281 C 43.839844 83.550781 53.089844 95.425781 57.71875 101.363281 C 62.34375 107.300781 62.34375 107.300781 62.34375 107.300781 C 62.34375 107.300781 62.34375 107.300781 62.691406 107.589844 C 63.042969 107.878906 63.742188 108.453125 64.328125 108.863281 C 64.917969 109.277344 65.394531 109.523438 66.21875 109.71875 C 67.046875 109.917969 68.222656 110.066406 69.261719 110.003906 C 70.300781 109.9375 71.203125 109.664062 72.164062 109.15625 C 73.121094 108.648438 74.136719 107.90625 74.984375 107.144531 C 75.828125 106.382812 76.496094 105.601562 77.15625 104.648438 C 77.8125 103.699219 78.457031 102.578125 78.996094 101.464844 C 79.535156 100.355469 79.972656 99.257812 80.304688 98.359375 C 80.632812 97.460938 80.855469 96.765625 81.066406 96.070312 C 81.277344 95.378906 81.472656 94.691406 81.753906 93.636719 C 82.035156 92.578125 82.402344 91.15625 82.667969 90.109375 C 82.929688 89.066406 83.097656 88.402344 83.371094 87.355469 C 83.640625 86.308594 84.023438 84.878906 84.304688 83.878906 C 84.585938 82.882812 84.761719 82.316406 85.277344 81.257812 C 85.789062 80.203125 86.636719 78.652344 87.246094 77.761719 C 87.859375 76.867188 88.230469 76.628906 88.648438 76.472656 C 89.0625 76.3125 89.523438 76.234375 89.753906 76.195312 C 89.984375 76.15625 89.984375 76.15625 89.984375 76.15625 C 89.984375 76.15625 89.984375 76.15625 80.984375 74.628906 C 71.984375 73.097656 53.988281 70.042969 44.988281 68.511719 C 35.992188 66.984375 35.992188 66.984375 35.992188 66.984375 C 35.992188 66.984375 35.992188 66.984375 35.855469 67.007812 C 35.722656 67.03125 35.453125 67.078125 35.1875 67.230469 C 34.921875 67.382812 34.660156 67.632812 34.472656 67.875 C 34.28125 68.117188 34.167969 68.351562 34.082031 68.671875 C 33.992188 68.992188 33.925781 69.402344 33.945312 69.8125 C 33.964844 70.21875 34.070312 70.625 34.191406 70.933594 C 34.3125 71.246094 34.449219 71.460938 34.519531 71.570312 C 34.589844 71.675781 34.589844 71.675781 34.589844 71.675781 Z M 34.589844 71.675781 "/>
<path style="fill:none;stroke-width:4;stroke-linecap:butt;stroke-linejoin:round;stroke:rgb(86.999512%,86.999512%,86.999512%);stroke-opacity:1;stroke-miterlimit:10;" d="M 55.406531 697.334469 C 55.406531 697.334469 55.406531 697.334469 55.961219 697.080563 C 56.519813 696.82275 57.629188 696.307125 58.879188 695.814938 C 60.129188 695.326656 61.515906 694.857906 63.340125 694.346188 C 65.164344 693.834469 67.422156 693.283688 69.531531 692.826656 C 71.637 692.373531 73.594031 692.018063 76.086219 691.639156 C 78.582313 691.264156 81.609656 690.865719 84.48075 690.545406 C 87.347938 690.229 90.051063 689.990719 93.051063 689.783688 C 96.051063 689.580563 99.344031 689.412594 102.613563 689.299313 C 105.883094 689.189938 109.129188 689.139156 112.172156 689.13525 C 115.215125 689.131344 118.058875 689.178219 121.176063 689.287594 C 124.297156 689.393063 127.695594 689.564938 131.250281 689.826656 C 134.804969 690.088375 138.515906 690.439938 141.258094 690.736813 C 144.000281 691.029781 145.773719 691.271969 148.222938 691.689938 C 150.672156 692.107906 153.801063 692.69775 156.1995 693.217281 C 158.597938 693.736813 160.269813 694.182125 161.890906 694.693844 C 163.508094 695.205563 165.082313 695.779781 165.867469 696.068844 C 166.656531 696.354 166.656531 696.354 166.656531 696.354 " transform="matrix(1,0,0,-1,-49.9495,770.104)"/>
<path style="fill:none;stroke-width:2;stroke-linecap:butt;stroke-linejoin:round;stroke:rgb(0%,0%,0%);stroke-opacity:1;stroke-miterlimit:10;" d="M 51.515906 701.779781 C 51.515906 701.779781 51.515906 701.779781 51.508094 701.604 C 51.500281 701.428219 51.484656 701.07275 51.594031 700.775875 C 51.6995 700.471188 51.929969 700.225094 52.179969 699.94775 C 52.429969 699.670406 52.6995 699.365719 52.984656 699.088375 C 53.269813 698.807125 53.5745 698.557125 53.984656 698.268063 C 54.390906 697.982906 54.898719 697.658688 55.707313 697.240719 C 56.519813 696.82275 57.629188 696.307125 58.879188 695.814938 C 60.129188 695.326656 61.515906 694.857906 63.340125 694.346188 C 65.164344 693.834469 67.422156 693.283688 69.531531 692.826656 C 71.637 692.373531 73.594031 692.018063 76.086219 691.639156 C 78.582313 691.264156 81.609656 690.865719 84.48075 690.545406 C 87.347938 690.229 90.051063 689.990719 93.051063 689.783688 C 96.051063 689.580563 99.344031 689.412594 102.613563 689.299313 C 105.883094 689.189938 109.129188 689.139156 112.172156 689.13525 C 115.215125 689.131344 118.058875 689.178219 121.176063 689.287594 C 124.297156 689.393063 127.695594 689.564938 131.250281 689.826656 C 134.804969 690.088375 138.515906 690.439938 141.258094 690.736813 C 144.000281 691.029781 145.773719 691.271969 148.222938 691.689938 C 150.672156 692.107906 153.801063 692.69775 156.1995 693.217281 C 158.597938 693.736813 160.269813 694.182125 161.890906 694.693844 C 163.508094 695.205563 165.082313 695.779781 166.433875 696.377438 C 167.785438 696.979 168.91825 697.600094 169.746375 698.150875 C 170.5745 698.69775 171.101844 699.170406 171.429969 699.498531 C 171.758094 699.82275 171.887 700.002438 171.996375 700.178219 C 172.10575 700.354 172.1995 700.533688 172.281531 700.768063 C 172.363563 701.006344 172.441688 701.303219 172.476844 701.451656 C 172.515906 701.600094 172.515906 701.600094 172.515906 701.600094 " transform="matrix(1,0,0,-1,-49.9495,770.104)"/>
<path style="fill:none;stroke-width:0.8;stroke-linecap:butt;stroke-linejoin:round;stroke:rgb(0%,0%,0%);stroke-opacity:1;stroke-miterlimit:10;" d="M 85.941688 703.119625 L 140.379188 693.787594 " transform="matrix(1,0,0,-1,-49.9495,770.104)"/>
<path style="fill:none;stroke-width:0.8;stroke-linecap:butt;stroke-linejoin:round;stroke:rgb(0%,0%,0%);stroke-opacity:1;stroke-miterlimit:10;" d="M 84.539344 698.428219 L 111.976844 663.178219 " transform="matrix(1,0,0,-1,-49.9495,770.104)"/>
<path style="fill:none;stroke-width:0.8;stroke-linecap:butt;stroke-linejoin:round;stroke:rgb(0%,0%,0%);stroke-opacity:1;stroke-miterlimit:10;" d="M 84.722938 702.674313 C 84.117469 702.100094 83.672156 700.990719 83.851844 699.920406 C 84.031531 698.846188 84.836219 697.811031 85.570594 697.834469 C 86.304969 697.854 86.969031 698.932125 87.16825 700.029781 C 87.371375 701.123531 87.109656 702.232906 86.601844 702.764156 C 86.090125 703.295406 85.3245 703.252438 84.722938 702.674313 Z M 84.722938 702.674313 " transform="matrix(1,0,0,-1,-49.9495,770.104)"/>
</g>
</svg>
