<?xml version="1.0" encoding="UTF-8"?>
<svg xmlns="http://www.w3.org/2000/svg" xmlns:xlink="http://www.w3.org/1999/xlink" width="103.4pt" height="100.3pt" viewBox="0 0 103.4 100.3" version="1.1">
<g id="surface1">
<path style=" stroke:none;fill-rule:evenodd;fill:rgb(82.699585%,82.699585%,82.699585%);fill-opacity:1;" d="M 99.699219 96.601562 L 3.699219 96.601562 L 3.699219 64.601562 L 35.699219 64.601562 L 35.699219 48.601562 L 67.699219 48.601562 L 67.699219 64.601562 L 99.699219 64.601562 Z M 99.699219 96.601562 "/>
<path style="fill:none;stroke-width:1.2;stroke-linecap:butt;stroke-linejoin:round;stroke:rgb(0%,0%,0%);stroke-opacity:1;stroke-miterlimit:10;" d="M 127.999219 543.998438 L 127.999219 447.998438 L 223.999219 447.998438 L 223.999219 543.998438 Z M 127.999219 543.998438 " transform="matrix(1,0,0,-1,-124.3,544.6)"/>
<path style="fill:none;stroke-width:0.8;stroke-linecap:butt;stroke-linejoin:round;stroke:rgb(0%,0%,0%);stroke-opacity:1;stroke-miterlimit:10;" d="M 143.999219 543.998438 L 143.999219 447.998438 " transform="matrix(1,0,0,-1,-124.3,544.6)"/>
<path style="fill:none;stroke-width:0.8;stroke-linecap:butt;stroke-linejoin:round;stroke:rgb(0%,0%,0%);stroke-opacity:1;stroke-miterlimit:10;" d="M 159.999219 543.998438 L 159.999219 447.998438 " transform="matrix(1,0,0,-1,-124.3,544.6)"/>
<path style="fill:none;stroke-width:0.8;stroke-linecap:butt;stroke-linejoin:round;stroke:rgb(0%,0%,0%);stroke-opacity:1;stroke-miterlimit:10;" d="M 175.999219 543.998438 L 175.999219 447.998438 " transform="matrix(1,0,0,-1,-124.3,544.6)"/>
<path style="fill:none;stroke-width:0.8;stroke-linecap:butt;stroke-linejoin:round;stroke:rgb(0%,0%,0%);stroke-opacity:1;stroke-miterlimit:10;" d="M 191.999219 543.998438 L 191.999219 447.998438 " transform="matrix(1,0,0,-1,-124.3,544.6)"/>
<path style="fill:none;stroke-width:0.8;stroke-linecap:butt;stroke-linejoin:round;stroke:rgb(0%,0%,0%);stroke-opacity:1;stroke-miterlimit:10;" d="M 207.999219 543.998438 L 207.999219 447.998438 " transform="matrix(1,0,0,-1,-124.3,544.6)"/>
<path style="fill:none;stroke-width:0.8;stroke-linecap:round;stroke-linejoin:round;stroke:rgb(0%,0%,0%);stroke-opacity:1;stroke-miterlimit:10;" d="M 127.999219 463.998438 L 223.999219 463.998438 " transform="matrix(1,0,0,-1,-124.3,544.6)"/>
<path style="fill:none;stroke-width:0.8;stroke-linecap:round;stroke-linejoin:round;stroke:rgb(0%,0%,0%);stroke-opacity:1;stroke-miterlimit:10;" d="M 127.999219 479.998438 L 223.999219 479.998438 " transform="matrix(1,0,0,-1,-124.3,544.6)"/>
<path style="fill:none;stroke-width:0.8;stroke-linecap:round;stroke-linejoin:round;stroke:rgb(0%,0%,0%);stroke-opacity:1;stroke-miterlimit:10;" d="M 127.999219 495.998438 L 223.999219 495.998438 " transform="matrix(1,0,0,-1,-124.3,544.6)"/>
<path style="fill:none;stroke-width:0.8;stroke-linecap:butt;stroke-linejoin:round;stroke:rgb(0%,0%,0%);stroke-opacity:1;stroke-miterlimit:10;" d="M 127.999219 511.998438 L 223.999219 511.998438 " transform="matrix(1,0,0,-1,-124.3,544.6)"/>
<path style="fill:none;stroke-width:0.8;stroke-linecap:butt;stroke-linejoin:round;stroke:rgb(0%,0%,0%);stroke-opacity:1;stroke-miterlimit:10;" d="M 127.999219 527.998438 L 223.999219 527.998438 " transform="matrix(1,0,0,-1,-124.3,544.6)"/>
<path style="fill:none;stroke-width:2;stroke-linecap:round;stroke-linejoin:round;stroke:rgb(0%,0%,100%);stroke-opacity:1;stroke-miterlimit:10;" d="M 127.999219 447.998438 L 127.999219 463.998438 " transform="matrix(1,0,0,-1,-124.3,544.6)"/>
<path style="fill:none;stroke-width:2;stroke-linecap:round;stroke-linejoin:round;stroke:rgb(0%,0%,100%);stroke-opacity:1;stroke-miterlimit:10;" d="M 127.999219 463.998438 L 127.999219 479.998438 " transform="matrix(1,0,0,-1,-124.3,544.6)"/>
<path style="fill:none;stroke-width:2;stroke-linecap:round;stroke-linejoin:round;stroke:rgb(0%,0%,100%);stroke-opacity:1;stroke-miterlimit:10;" d="M 127.999219 479.998438 L 159.999219 479.998438 " transform="matrix(1,0,0,-1,-124.3,544.6)"/>
<path style="fill:none;stroke-width:2;stroke-linecap:round;stroke-linejoin:round;stroke:rgb(0%,0%,100%);stroke-opacity:1;stroke-miterlimit:10;" d="M 159.999219 479.998438 L 159.999219 495.998438 " transform="matrix(1,0,0,-1,-124.3,544.6)"/>
<path style="fill:none;stroke-width:2;stroke-linecap:round;stroke-linejoin:round;stroke:rgb(0%,0%,100%);stroke-opacity:1;stroke-miterlimit:10;" d="M 191.999219 495.998438 L 191.999219 479.998438 L 207.999219 479.998438 " transform="matrix(1,0,0,-1,-124.3,544.6)"/>
<path style="fill:none;stroke-width:2;stroke-linecap:round;stroke-linejoin:round;stroke:rgb(100%,0%,0%);stroke-opacity:1;stroke-miterlimit:10;" d="M 159.999219 495.998438 L 191.999219 495.998438 " transform="matrix(1,0,0,-1,-124.3,544.6)"/>
<path style="fill:none;stroke-width:2;stroke-linecap:round;stroke-linejoin:round;stroke:rgb(100%,0%,0%);stroke-opacity:1;stroke-miterlimit:10;" d="M 207.999219 479.998438 L 223.999219 479.998438 L 223.999219 447.998438 " transform="matrix(1,0,0,-1,-124.3,544.6)"/>
<path style=" stroke:none;fill-rule:evenodd;fill:rgb(0%,0%,0%);fill-opacity:1;" d="M 6.699219 96.601562 C 6.699219 94.941406 5.355469 93.601562 3.699219 93.601562 C 2.042969 93.601562 0.699219 94.941406 0.699219 96.601562 C 0.699219 98.257812 2.042969 99.601562 3.699219 99.601562 C 5.355469 99.601562 6.699219 98.257812 6.699219 96.601562 "/>
<path style=" stroke:none;fill-rule:evenodd;fill:rgb(0%,0%,0%);fill-opacity:1;" d="M 6.699219 64.601562 C 6.699219 62.941406 5.355469 61.601562 3.699219 61.601562 C 2.042969 61.601562 0.699219 62.941406 0.699219 64.601562 C 0.699219 66.257812 2.042969 67.601562 3.699219 67.601562 C 5.355469 67.601562 6.699219 66.257812 6.699219 64.601562 "/>
<path style=" stroke:none;fill-rule:evenodd;fill:rgb(0%,0%,0%);fill-opacity:1;" d="M 38.699219 48.601562 C 38.699219 46.941406 37.355469 45.601562 35.699219 45.601562 C 34.042969 45.601562 32.699219 46.941406 32.699219 48.601562 C 32.699219 50.257812 34.042969 51.601562 35.699219 51.601562 C 37.355469 51.601562 38.699219 50.257812 38.699219 48.601562 "/>
<path style=" stroke:none;fill-rule:evenodd;fill:rgb(0%,0%,0%);fill-opacity:1;" d="M 70.699219 48.601562 C 70.699219 46.941406 69.355469 45.601562 67.699219 45.601562 C 66.042969 45.601562 64.699219 46.941406 64.699219 48.601562 C 64.699219 50.257812 66.042969 51.601562 67.699219 51.601562 C 69.355469 51.601562 70.699219 50.257812 70.699219 48.601562 "/>
<path style=" stroke:none;fill-rule:evenodd;fill:rgb(0%,0%,0%);fill-opacity:1;" d="M 86.699219 64.601562 C 86.699219 62.941406 85.355469 61.601562 83.699219 61.601562 C 82.042969 61.601562 80.699219 62.941406 80.699219 64.601562 C 80.699219 66.257812 82.042969 67.601562 83.699219 67.601562 C 85.355469 67.601562 86.699219 66.257812 86.699219 64.601562 "/>
<path style=" stroke:none;fill-rule:evenodd;fill:rgb(0%,0%,0%);fill-opacity:1;" d="M 102.699219 64.601562 C 102.699219 62.941406 101.355469 61.601562 99.699219 61.601562 C 98.042969 61.601562 96.699219 62.941406 96.699219 64.601562 C 96.699219 66.257812 98.042969 67.601562 99.699219 67.601562 C 101.355469 67.601562 102.699219 66.257812 102.699219 64.601562 "/>
<path style=" stroke:none;fill-rule:evenodd;fill:rgb(0%,0%,0%);fill-opacity:1;" d="M 102.699219 96.601562 C 102.699219 94.941406 101.355469 93.601562 99.699219 93.601562 C 98.042969 93.601562 96.699219 94.941406 96.699219 96.601562 C 96.699219 98.257812 98.042969 99.601562 99.699219 99.601562 C 101.355469 99.601562 102.699219 98.257812 102.699219 96.601562 "/>
</g>
</svg>
