<?xml version="1.0" encoding="UTF-8"?>
<svg xmlns="http://www.w3.org/2000/svg" xmlns:xlink="http://www.w3.org/1999/xlink" width="534.8851pt" height="226.671pt" viewBox="0 0 534.8851 226.671" version="1.1">
<defs>
<clipPath id="clip1">
  <path d="M 2 2 L 277 2 L 277 226.671875 L 2 226.671875 Z M 2 2 "/>
</clipPath>
<clipPath id="clip2">
  <path d="M 318 3 L 534.886719 3 L 534.886719 219 L 318 219 Z M 318 3 "/>
</clipPath>
</defs>
<g id="surface1">
<path style=" stroke:none;fill-rule:evenodd;fill:rgb(0%,39.199829%,0%);fill-opacity:1;" d="M 81.378906 3.878906 C 101.207031 1.257812 120.351562 9.691406 138.472656 8.78125 C 156.59375 7.867188 173.6875 -2.386719 187.359375 11.515625 C 201.027344 25.417969 211.273438 63.480469 227.914062 83.539062 C 244.550781 103.597656 267.585938 105.648438 273.859375 114.199219 C 280.132812 122.746094 269.648438 137.789062 252.210938 139.382812 C 234.773438 140.980469 210.386719 129.128906 197.964844 137.789062 C 185.542969 146.449219 185.085938 175.625 178.328125 195.25 C 171.570312 214.875 158.511719 224.949219 146.976562 225.171875 C 135.4375 225.394531 125.425781 215.761719 129.007812 205.289062 C 132.59375 194.8125 149.78125 183.496094 151.722656 172.480469 C 153.664062 161.464844 140.359375 150.757812 122.21875 158.015625 C 104.078125 165.277344 81.105469 190.507812 57.863281 191.992188 C 34.621094 193.472656 11.113281 171.203125 4.992188 148.660156 C -1.132812 126.117188 10.128906 103.304688 19.460938 103.894531 C 28.792969 104.488281 36.203125 128.488281 50.246094 138.863281 C 64.292969 149.238281 84.976562 145.984375 94.917969 131.453125 C 104.859375 116.921875 104.058594 91.113281 113.34375 76.957031 C 122.632812 62.800781 142.007812 60.292969 152.035156 64.964844 C 162.0625 69.636719 162.75 81.488281 155.910156 89.695312 C 149.070312 97.902344 134.714844 102.460938 134.027344 109.183594 C 133.34375 115.90625 146.335938 124.796875 158.53125 119.667969 C 170.726562 114.539062 182.121094 95.394531 182.351562 78.300781 C 182.578125 61.203125 171.636719 46.160156 151.5625 43.117188 C 131.488281 40.074219 102.277344 49.03125 87.652344 67.777344 C 73.027344 86.527344 72.984375 115.0625 64.226562 111.039062 C 55.46875 107.019531 37.996094 70.433594 39.515625 45.304688 C 41.035156 20.175781 61.546875 6.5 81.378906 3.878906 Z M 81.378906 3.878906 "/>
<g clip-path="url(#clip1)" clip-rule="nonzero">
<path style="fill:none;stroke-width:2;stroke-linecap:butt;stroke-linejoin:round;stroke:rgb(0%,0%,0%);stroke-opacity:1;stroke-miterlimit:10;" d="M 104.316806 273.181094 C 124.144931 275.802188 143.289463 267.368594 161.410556 268.27875 C 179.53165 269.192813 196.6254 279.446719 210.297275 265.544375 C 223.965244 251.642031 234.211338 213.579531 250.851963 193.520938 C 267.488681 173.462344 290.523838 171.411563 296.797275 162.860781 C 303.070713 154.313906 292.586338 139.270938 275.148838 137.677188 C 257.711338 136.079531 233.324619 147.931094 220.902744 139.270938 C 208.480869 130.610781 208.023838 101.435 201.266025 81.81 C 194.508213 62.185 181.449619 52.110781 169.914463 51.888125 C 158.3754 51.665469 148.363681 61.298281 151.945713 71.770938 C 155.53165 82.2475 172.71915 93.563906 174.660556 104.579531 C 176.601963 115.595156 163.297275 126.302188 145.15665 119.044375 C 127.016025 111.782656 104.043369 86.552188 80.801181 85.067813 C 57.558994 83.587344 34.051181 105.856875 27.930088 128.399844 C 21.805088 150.942813 33.066806 173.755313 42.398837 173.165469 C 51.730869 172.571719 59.141025 148.571719 73.183994 138.196719 C 87.230869 127.821719 107.914462 131.075625 117.855869 145.606875 C 127.797275 160.138125 126.996494 185.946719 136.28165 200.102969 C 145.570713 214.259219 164.945713 216.767031 174.973056 212.095156 C 185.0004 207.423281 185.6879 195.571719 178.848056 187.364688 C 172.008213 179.157656 157.652744 174.599063 156.965244 167.876406 C 156.28165 161.15375 169.273838 152.263125 181.46915 157.392031 C 193.664463 162.520938 205.058994 181.665469 205.289463 198.759219 C 205.516025 215.856875 194.574619 230.899844 174.5004 233.942813 C 154.426181 236.985781 125.215244 228.02875 110.590244 209.282656 C 95.965244 190.532656 95.922275 161.9975 87.164462 166.020938 C 78.40665 170.040469 60.933994 206.626406 62.453525 231.755313 C 63.973056 256.884219 84.484775 270.56 104.316806 273.181094 Z M 104.316806 273.181094 " transform="matrix(1,0,0,-1,-22.9379,277.06)"/>
</g>
<path style="fill:none;stroke-width:6;stroke-linecap:butt;stroke-linejoin:round;stroke:rgb(0%,0%,0%);stroke-opacity:1;stroke-miterlimit:10;" d="M 73.832431 258.325625 C 73.832431 258.325625 73.832431 258.325625 74.46915 258.919375 C 75.105869 259.509219 76.383212 260.696719 77.859775 261.892031 C 79.336337 263.087344 81.012119 264.298281 83.086337 265.540469 C 85.160556 266.786563 87.633212 268.063906 90.285556 269.165469 C 92.9379 270.267031 95.769931 271.192813 98.141025 271.833438 C 100.508212 272.474063 102.410556 272.825625 104.660556 273.087344 C 106.910556 273.349063 109.508212 273.517031 111.879306 273.56 C 114.246494 273.602969 116.391025 273.517031 118.609775 273.349063 C 120.824619 273.181094 123.109775 272.927188 125.3754 272.6225 C 127.637119 272.317813 129.8754 271.96625 132.211338 271.575625 C 134.543369 271.185 136.976963 270.755313 138.191806 270.544375 C 139.40665 270.329531 139.40665 270.329531 139.40665 270.329531 " transform="matrix(1,0,0,-1,-22.9379,277.06)"/>
<path style=" stroke:none;fill-rule:evenodd;fill:rgb(0%,0%,0%);fill-opacity:1;" d="M 55.695312 18.734375 C 55.695312 16.082031 53.546875 13.933594 50.894531 13.933594 C 48.246094 13.933594 46.09375 16.082031 46.09375 18.734375 C 46.09375 21.382812 48.246094 23.53125 50.894531 23.53125 C 53.546875 23.53125 55.695312 21.382812 55.695312 18.734375 "/>
<path style=" stroke:none;fill-rule:evenodd;fill:rgb(0%,0%,0%);fill-opacity:1;" d="M 121.269531 6.730469 C 121.269531 4.078125 119.121094 1.929688 116.46875 1.929688 C 113.820312 1.929688 111.671875 4.078125 111.671875 6.730469 C 111.671875 9.382812 113.820312 11.53125 116.46875 11.53125 C 119.121094 11.53125 121.269531 9.382812 121.269531 6.730469 "/>
<path style="fill:none;stroke-width:6;stroke-linecap:butt;stroke-linejoin:round;stroke:rgb(0%,0%,0%);stroke-opacity:1;stroke-miterlimit:10;" d="M 227.324619 236.462344 C 227.324619 236.462344 227.324619 236.462344 227.8129 235.40375 C 228.301181 234.349063 229.277744 232.235781 230.789463 229.020938 C 232.301181 225.806094 234.348056 221.489688 235.734775 218.6225 C 237.113681 215.759219 237.832431 214.345156 238.730869 212.642031 C 239.633213 210.938906 240.71915 208.938906 242.074619 206.630313 C 243.430088 204.321719 245.055088 201.704531 246.332431 199.755313 C 247.609775 197.806094 248.539463 196.52875 250.066806 194.708438 C 251.59415 192.892031 253.71915 190.532656 254.785556 189.352969 C 255.848056 188.173281 255.848056 188.173281 255.848056 188.173281 " transform="matrix(1,0,0,-1,-22.9379,277.06)"/>
<path style=" stroke:none;fill-rule:evenodd;fill:rgb(0%,0%,0%);fill-opacity:1;" d="M 209.1875 40.597656 C 209.1875 37.949219 207.035156 35.800781 204.386719 35.800781 C 201.734375 35.800781 199.585938 37.949219 199.585938 40.597656 C 199.585938 43.25 201.734375 45.398438 204.386719 45.398438 C 207.035156 45.398438 209.1875 43.25 209.1875 40.597656 "/>
<path style=" stroke:none;fill-rule:evenodd;fill:rgb(100%,100%,100%);fill-opacity:1;" d="M 236.910156 88.886719 C 236.910156 86.679688 235.121094 84.886719 232.910156 84.886719 C 230.703125 84.886719 228.910156 86.679688 228.910156 88.886719 C 228.910156 91.097656 230.703125 92.886719 232.910156 92.886719 C 235.121094 92.886719 236.910156 91.097656 236.910156 88.886719 "/>
<path style=" stroke:none;fill-rule:evenodd;fill:rgb(0%,0%,0%);fill-opacity:1;" d="M 237.710938 88.886719 C 237.710938 86.234375 235.5625 84.085938 232.910156 84.085938 C 230.261719 84.085938 228.109375 86.234375 228.109375 88.886719 C 228.109375 91.539062 230.261719 93.6875 232.910156 93.6875 C 235.5625 93.6875 237.710938 91.539062 237.710938 88.886719 M 236.109375 88.886719 C 236.109375 87.121094 234.679688 85.6875 232.910156 85.6875 C 231.144531 85.6875 229.710938 87.121094 229.710938 88.886719 C 229.710938 90.65625 231.144531 92.085938 232.910156 92.085938 C 234.679688 92.085938 236.109375 90.65625 236.109375 88.886719 "/>
<path style=" stroke:none;fill-rule:evenodd;fill:rgb(0%,0%,0%);fill-opacity:1;" d="M 203.914062 137.0625 C 203.914062 134.410156 201.765625 132.261719 199.113281 132.261719 C 196.464844 132.261719 194.3125 134.410156 194.3125 137.0625 C 194.3125 139.714844 196.464844 141.863281 199.113281 141.863281 C 201.765625 141.863281 203.914062 139.714844 203.914062 137.0625 "/>
<path style="fill:none;stroke-width:6;stroke-linecap:butt;stroke-linejoin:round;stroke:rgb(0%,0%,0%);stroke-opacity:1;stroke-miterlimit:10;" d="M 115.4379 100.259219 C 115.4379 100.259219 115.4379 100.259219 114.590244 99.696719 C 113.742587 99.138125 112.047275 98.013125 109.851962 96.649844 C 107.652744 95.286563 104.953525 93.685 102.676181 92.423281 C 100.402744 91.165469 98.547275 90.2475 96.613681 89.40375 C 94.680087 88.56 92.664462 87.786563 89.867587 87.067813 C 87.070712 86.349063 83.488681 85.685 80.558994 85.423281 C 77.6254 85.157656 75.340244 85.290469 73.055087 85.634219 C 70.769931 85.977969 68.488681 86.532656 66.387119 87.200625 C 64.289462 87.868594 62.3754 88.649844 60.183994 89.763125 C 57.992587 90.876406 55.527744 92.321719 53.637119 93.540469 C 51.7504 94.759219 50.433994 95.7475 48.933994 97.013125 C 47.433994 98.27875 45.742587 99.813906 44.023837 101.575625 C 42.305087 103.337344 40.551181 105.325625 38.726962 107.7475 C 36.898837 110.173281 35.0004 113.02875 33.359775 115.989688 C 31.71915 118.954531 30.336338 122.024844 29.387119 124.462344 C 28.4379 126.899844 27.922275 128.704531 27.465244 131.200625 C 27.008213 133.700625 26.609775 136.888125 26.4379 139.4975 C 26.266025 142.106875 26.324619 144.138125 26.582431 146.509219 C 26.840244 148.884219 27.293369 151.599063 27.762119 153.735781 C 28.230869 155.868594 28.711338 157.423281 29.512119 159.364688 C 30.3129 161.302188 31.4379 163.626406 32.598056 165.532656 C 33.762119 167.438906 34.96915 168.927188 36.004306 169.985781 C 37.043369 171.044375 37.914462 171.673281 38.476962 172.048281 C 39.035556 172.419375 39.285556 172.536563 39.887119 172.681094 C 40.488681 172.825625 41.445712 172.993594 42.223056 173.013125 C 43.0004 173.02875 43.601962 172.895938 44.328525 172.575625 C 45.058994 172.251406 45.910556 171.743594 47.211337 170.501406 C 48.516025 169.259219 50.266025 167.282656 51.570712 165.669375 C 52.8754 164.056094 53.726962 162.813906 54.734775 161.294375 C 55.742587 159.774844 56.90665 157.981875 58.144931 156.110781 C 59.387119 154.239688 60.703525 152.286563 62.121494 150.333438 C 63.539462 148.376406 65.0629 146.415469 66.855869 144.442813 C 68.648837 142.470156 70.71915 140.485781 72.351962 139.095156 C 73.988681 137.704531 75.191806 136.915469 76.293369 136.274844 C 77.398837 135.630313 78.40665 135.134219 79.535556 134.669375 C 80.668369 134.200625 81.922275 133.759219 83.53165 133.360781 C 85.144931 132.962344 87.113681 132.610781 88.832431 132.419375 C 90.551181 132.227969 92.019931 132.204531 93.582431 132.298281 C 95.144931 132.395938 96.801181 132.606875 98.988681 133.196719 C 101.172275 133.782656 103.891025 134.743594 105.820712 135.567813 C 107.754306 136.392031 108.898837 137.079531 110.133212 137.96625 C 111.363681 138.849063 112.680087 139.935 114.047275 141.337344 C 115.410556 142.739688 116.824619 144.458438 117.961337 146.106875 C 119.101962 147.759219 119.96915 149.34125 120.9379 151.579531 C 121.90665 153.821719 122.96915 156.720156 123.976962 160.067813 C 124.980869 163.411563 125.926181 167.200625 126.773837 170.755313 C 127.617587 174.306094 128.359775 177.6225 129.258213 181.09125 C 130.15665 184.563906 131.207431 188.192813 132.5004 191.52875 C 133.793369 194.864688 135.324619 197.90375 136.090244 199.423281 C 136.855869 200.942813 136.855869 200.942813 136.855869 200.942813 " transform="matrix(1,0,0,-1,-22.9379,277.06)"/>
<path style=" stroke:none;fill-rule:evenodd;fill:rgb(0%,0%,0%);fill-opacity:1;" d="M 118.71875 76.117188 C 118.71875 73.464844 116.570312 71.316406 113.917969 71.316406 C 111.265625 71.316406 109.117188 73.464844 109.117188 76.117188 C 109.117188 78.769531 111.265625 80.917969 113.917969 80.917969 C 116.570312 80.917969 118.71875 78.769531 118.71875 76.117188 "/>
<path style=" stroke:none;fill-rule:evenodd;fill:rgb(0%,0%,0%);fill-opacity:1;" d="M 97.300781 176.800781 C 97.300781 174.148438 95.148438 172 92.5 172 C 89.847656 172 87.699219 174.148438 87.699219 176.800781 C 87.699219 179.453125 89.847656 181.601562 92.5 181.601562 C 95.148438 181.601562 97.300781 179.453125 97.300781 176.800781 "/>
<path style=" stroke:none;fill-rule:evenodd;fill:rgb(0%,39.199829%,0%);fill-opacity:1;" d="M 533.386719 111.1875 C 533.386719 52.207031 485.570312 4.390625 426.585938 4.390625 C 367.605469 4.390625 319.789062 52.207031 319.789062 111.1875 C 319.789062 170.171875 367.605469 217.988281 426.585938 217.988281 C 485.570312 217.988281 533.386719 170.171875 533.386719 111.1875 "/>
<g clip-path="url(#clip2)" clip-rule="nonzero">
<path style="fill:none;stroke-width:2;stroke-linecap:butt;stroke-linejoin:round;stroke:rgb(0%,0%,0%);stroke-opacity:1;stroke-miterlimit:10;" d="M 556.324619 165.8725 C 556.324619 224.852969 508.508213 272.669375 449.523838 272.669375 C 390.543369 272.669375 342.726963 224.852969 342.726963 165.8725 C 342.726963 106.888125 390.543369 59.071719 449.523838 59.071719 C 508.508213 59.071719 556.324619 106.888125 556.324619 165.8725 " transform="matrix(1,0,0,-1,-22.9379,277.06)"/>
</g>
<path style="fill-rule:evenodd;fill:rgb(0%,39.199829%,0%);fill-opacity:1;stroke-width:6;stroke-linecap:butt;stroke-linejoin:round;stroke:rgb(0%,0%,0%);stroke-opacity:1;stroke-miterlimit:10;" d="M 355.277744 216.106875 C 367.996494 239.962344 389.285556 258.110781 414.859775 266.884219 " transform="matrix(1,0,0,-1,-22.9379,277.06)"/>
<path style="fill-rule:evenodd;fill:rgb(0%,39.199829%,0%);fill-opacity:1;stroke-width:6;stroke-linecap:butt;stroke-linejoin:round;stroke:rgb(0%,0%,0%);stroke-opacity:1;stroke-miterlimit:10;" d="M 492.808994 263.505313 C 517.930088 252.368594 537.793369 231.974063 548.262119 206.571719 " transform="matrix(1,0,0,-1,-22.9379,277.06)"/>
<path style="fill-rule:evenodd;fill:rgb(0%,39.199829%,0%);fill-opacity:1;stroke-width:6;stroke-linecap:butt;stroke-linejoin:round;stroke:rgb(0%,0%,0%);stroke-opacity:1;stroke-miterlimit:10;" d="M 452.058994 59.102969 C 420.902744 58.364688 390.980869 71.267031 370.137119 94.435 " transform="matrix(1,0,0,-1,-22.9379,277.06)"/>
<path style=" stroke:none;fill-rule:evenodd;fill:rgb(0%,0%,0%);fill-opacity:1;" d="M 337.140625 60.953125 C 337.140625 58.304688 334.992188 56.15625 332.339844 56.15625 C 329.6875 56.15625 327.539062 58.304688 327.539062 60.953125 C 327.539062 63.605469 329.6875 65.753906 332.339844 65.753906 C 334.992188 65.753906 337.140625 63.605469 337.140625 60.953125 "/>
<path style=" stroke:none;fill-rule:evenodd;fill:rgb(0%,0%,0%);fill-opacity:1;" d="M 396.71875 10.175781 C 396.71875 7.523438 394.570312 5.375 391.921875 5.375 C 389.269531 5.375 387.121094 7.523438 387.121094 10.175781 C 387.121094 12.824219 389.269531 14.972656 391.921875 14.972656 C 394.570312 14.972656 396.71875 12.824219 396.71875 10.175781 "/>
<path style=" stroke:none;fill-rule:evenodd;fill:rgb(0%,0%,0%);fill-opacity:1;" d="M 474.671875 13.554688 C 474.671875 10.90625 472.523438 8.757812 469.871094 8.757812 C 467.21875 8.757812 465.070312 10.90625 465.070312 13.554688 C 465.070312 16.207031 467.21875 18.355469 469.871094 18.355469 C 472.523438 18.355469 474.671875 16.207031 474.671875 13.554688 "/>
<path style=" stroke:none;fill-rule:evenodd;fill:rgb(100%,100%,100%);fill-opacity:1;" d="M 529.324219 70.488281 C 529.324219 68.28125 527.535156 66.488281 525.324219 66.488281 C 523.117188 66.488281 521.324219 68.28125 521.324219 70.488281 C 521.324219 72.699219 523.117188 74.488281 525.324219 74.488281 C 527.535156 74.488281 529.324219 72.699219 529.324219 70.488281 "/>
<path style=" stroke:none;fill-rule:evenodd;fill:rgb(0%,0%,0%);fill-opacity:1;" d="M 530.125 70.488281 C 530.125 67.839844 527.976562 65.6875 525.324219 65.6875 C 522.675781 65.6875 520.527344 67.839844 520.527344 70.488281 C 520.527344 73.140625 522.675781 75.289062 525.324219 75.289062 C 527.976562 75.289062 530.125 73.140625 530.125 70.488281 M 528.527344 70.488281 C 528.527344 68.722656 527.09375 67.289062 525.324219 67.289062 C 523.558594 67.289062 522.125 68.722656 522.125 70.488281 C 522.125 72.257812 523.558594 73.6875 525.324219 73.6875 C 527.09375 73.6875 528.527344 72.257812 528.527344 70.488281 "/>
<path style=" stroke:none;fill-rule:evenodd;fill:rgb(0%,0%,0%);fill-opacity:1;" d="M 433.921875 217.957031 C 433.921875 215.304688 431.769531 213.15625 429.121094 213.15625 C 426.46875 213.15625 424.320312 215.304688 424.320312 217.957031 C 424.320312 220.609375 426.46875 222.757812 429.121094 222.757812 C 431.769531 222.757812 433.921875 220.609375 433.921875 217.957031 "/>
<path style=" stroke:none;fill-rule:evenodd;fill:rgb(0%,0%,0%);fill-opacity:1;" d="M 352 182.625 C 352 179.976562 349.851562 177.828125 347.199219 177.828125 C 344.546875 177.828125 342.398438 179.976562 342.398438 182.625 C 342.398438 185.277344 344.546875 187.425781 347.199219 187.425781 C 349.851562 187.425781 352 185.277344 352 182.625 "/>
<path style=" stroke:none;fill-rule:evenodd;fill:rgb(0%,0%,0%);fill-opacity:1;" d="M 518.222656 173.359375 C 518.222656 170.707031 516.074219 168.558594 513.425781 168.558594 C 510.773438 168.558594 508.625 170.707031 508.625 173.359375 C 508.625 176.011719 510.773438 178.160156 513.425781 178.160156 C 516.074219 178.160156 518.222656 176.011719 518.222656 173.359375 "/>
</g>
</svg>
