<?xml version="1.0" encoding="UTF-8"?>
<!-- Generator: Adobe Illustrator 15.0.0, SVG Export Plug-In . SVG Version: 6.00 Build 0)  -->
<!DOCTYPE svg PUBLIC "-//W3C//DTD SVG 1.1//EN" "http://www.w3.org/Graphics/SVG/1.1/DTD/svg11.dtd">
<svg version="1.1" id="Layer_2" xmlns="http://www.w3.org/2000/svg" xmlns:xlink="http://www.w3.org/1999/xlink" x="0px" y="0px" width="64px" height="64px" viewBox="0 0 64 64" enable-background="new 0 0 64 64" xml:space="preserve">
<g>
	<g>
		<path fill="#DD4B39" d="M33.873,34.258l-1.728-1.342c-0.525-0.436-1.244-1.011-1.244-2.064c0-1.059,0.719-1.731,1.343-2.354    c2.011-1.583,4.021-3.268,4.021-6.818c0-3.651-2.299-5.572-3.398-6.483h2.969l3.116-1.958h-9.441c-2.59,0-6.323,0.613-9.056,2.869    c-2.061,1.777-3.066,4.228-3.066,6.435c0,3.744,2.876,7.54,7.953,7.54c0.48,0,1.004-0.047,1.532-0.096    c-0.237,0.577-0.476,1.058-0.476,1.873c0,1.486,0.763,2.398,1.438,3.263c-2.157,0.148-6.186,0.387-9.155,2.213    c-2.827,1.682-3.688,4.128-3.688,5.855c0,3.556,3.351,6.867,10.3,6.867c8.24,0,12.604-4.561,12.604-9.074    C37.898,37.666,35.98,36.034,33.873,34.258z M27.596,28.736c-4.124,0-5.991-5.33-5.991-8.546c0-1.252,0.237-2.544,1.053-3.554    c0.768-0.961,2.108-1.585,3.357-1.585c3.975,0,6.035,5.377,6.035,8.835c0,0.865-0.095,2.398-1.197,3.507    C30.082,28.163,28.793,28.736,27.596,28.736z M27.643,48.045c-5.126,0-8.432-2.451-8.432-5.861s3.064-4.563,4.12-4.944    c2.011-0.677,4.599-0.771,5.031-0.771c0.479,0,0.719,0,1.101,0.048c3.645,2.594,5.225,3.887,5.225,6.342    C34.688,45.831,32.244,48.045,27.643,48.045z"/>
		<polygon fill="#DD4B39" points="45.973,28.663 45.973,23.861 43.604,23.861 43.604,28.663 38.809,28.663 38.809,31.06     43.604,31.06 43.604,35.891 45.973,35.891 45.973,31.06 50.79,31.06 50.79,28.663   "/>
	</g>
	<path fill="#DD4B39" d="M32,0C14.327,0,0,14.327,0,32s14.327,32,32,32s32-14.327,32-32S49.673,0,32,0z M32,57.886   C17.704,57.886,6.115,46.296,6.115,32C6.115,17.703,17.704,6.114,32,6.114S57.887,17.703,57.887,32   C57.887,46.296,46.296,57.886,32,57.886z"/>
</g>
</svg>