<svg xmlns="http://www.w3.org/2000/svg" xmlns:xlink="http://www.w3.org/1999/xlink" preserveAspectRatio="xMidYMid" width="64" height="64" viewBox="0 0 64 64">
  <defs>
    <style>
      .cls-1 {
        fill: #000;
        fill-rule: evenodd;
      }
    </style>
  </defs>
  <path d="M32.000,64.000 C14.400,64.000 -0.000,49.600 -0.000,32.000 C-0.000,14.400 14.400,-0.000 32.000,-0.000 C49.600,-0.000 64.000,14.400 64.000,32.000 C64.000,49.600 49.600,64.000 32.000,64.000 ZM51.800,30.800 C51.800,27.800 51.400,24.600 51.400,24.600 C51.400,24.600 51.000,22.000 49.800,20.800 C48.400,19.200 46.800,19.200 46.000,19.200 C40.600,18.800 32.400,18.800 32.400,18.800 C32.400,18.800 24.200,18.800 18.800,19.200 C18.000,19.400 16.400,19.400 15.000,20.800 C13.800,22.000 13.400,24.600 13.400,24.600 C13.400,24.600 13.000,27.600 13.000,30.800 L13.000,33.800 C13.000,36.800 13.400,40.000 13.400,40.000 C13.400,40.000 13.800,42.800 15.000,44.000 C16.400,45.400 18.400,45.400 19.200,45.600 C22.400,46.000 32.400,46.000 32.400,46.000 C32.400,46.000 40.600,46.000 46.000,45.400 C46.600,45.400 48.400,45.400 49.800,43.800 C51.000,42.600 51.400,40.000 51.400,40.000 C51.400,40.000 51.800,37.000 51.800,33.800 L51.800,30.800 ZM28.400,26.600 L38.800,32.000 L28.400,37.400 L28.400,26.600 Z" class="cls-1"/>
</svg>