<?xml version="1.0" encoding="UTF-8"?>
<svg xmlns="http://www.w3.org/2000/svg" xmlns:xlink="http://www.w3.org/1999/xlink" width="97.4pt" height="98.2pt" viewBox="0 0 97.4 98.2" version="1.1">
<g id="surface1">
<path style=" stroke:none;fill-rule:evenodd;fill:rgb(100%,0%,30.198669%);fill-opacity:1;" d="M 96.699219 48.699219 C 96.699219 22.191406 75.210938 0.699219 48.699219 0.699219 C 22.191406 0.699219 0.699219 22.191406 0.699219 48.699219 C 0.699219 75.210938 22.191406 96.699219 48.699219 96.699219 C 75.210938 96.699219 96.699219 75.210938 96.699219 48.699219 "/>
<path style="fill-rule:evenodd;fill:rgb(100%,100%,100%);fill-opacity:1;stroke-width:2;stroke-linecap:butt;stroke-linejoin:round;stroke:rgb(100%,0%,30.198669%);stroke-opacity:1;stroke-miterlimit:10;" d="M 157.866406 616.133594 C 157.33125 615.598438 156.26875 615.598438 149.33125 615.598438 C 142.401563 615.598438 129.600781 615.598438 122.667187 615.598438 C 115.733594 615.598438 114.667187 615.598438 114.132031 616.133594 C 113.600781 616.66875 113.600781 617.73125 113.600781 623.067188 C 113.600781 628.399219 113.600781 638.000781 115.733594 643.332813 C 117.866406 648.66875 122.132031 649.73125 124.8 650.801563 C 127.467969 651.867969 128.534375 652.934375 127.999219 655.598438 C 127.467969 658.266406 125.33125 662.532031 126.401562 666.266406 C 127.467969 670.000781 131.733594 673.2 135.999219 673.2 C 140.26875 673.2 144.534375 670.000781 145.600781 666.266406 C 146.667188 662.532031 144.534375 658.266406 143.999219 655.598438 C 143.467969 652.934375 144.534375 651.867969 147.198438 650.801563 C 149.866406 649.73125 154.132031 648.66875 156.26875 643.332813 C 158.401563 638.000781 158.401563 628.399219 158.401563 623.067188 C 158.401563 617.73125 158.401563 616.66875 157.866406 616.133594 Z M 157.866406 616.133594 " transform="matrix(1,0,0,-1,-63.3,704.7)"/>
<path style="fill-rule:evenodd;fill:rgb(100%,100%,100%);fill-opacity:1;stroke-width:2;stroke-linecap:butt;stroke-linejoin:round;stroke:rgb(100%,0%,30.198669%);stroke-opacity:1;stroke-miterlimit:10;" d="M 109.866406 616.133594 C 109.33125 615.598438 108.26875 615.598438 101.33125 615.598438 C 94.401562 615.598438 81.600781 615.598438 74.667187 615.598438 C 67.733594 615.598438 66.667187 615.598438 66.132031 616.133594 C 65.600781 616.66875 65.600781 617.73125 65.600781 623.067188 C 65.600781 628.399219 65.600781 638.000781 67.733594 643.332813 C 69.866406 648.66875 74.132031 649.73125 76.8 650.801563 C 79.467969 651.867969 80.534375 652.934375 79.999219 655.598438 C 79.467969 658.266406 77.335156 662.532031 78.401562 666.266406 C 79.467969 670.000781 83.733594 673.2 87.999219 673.2 C 92.264844 673.2 96.534375 670.000781 97.600781 666.266406 C 98.667187 662.532031 96.534375 658.266406 95.999219 655.598438 C 95.467969 652.934375 96.534375 651.867969 99.198437 650.801563 C 101.866406 649.73125 106.132031 648.66875 108.26875 643.332813 C 110.401562 638.000781 110.401562 628.399219 110.401562 623.067188 C 110.401562 617.73125 110.401562 616.66875 109.866406 616.133594 Z M 109.866406 616.133594 " transform="matrix(1,0,0,-1,-63.3,704.7)"/>
<path style="fill-rule:evenodd;fill:rgb(100%,100%,100%);fill-opacity:1;stroke-width:2;stroke-linecap:butt;stroke-linejoin:round;stroke:rgb(100%,0%,30.198669%);stroke-opacity:1;stroke-miterlimit:10;" d="M 139.33125 608.66875 C 138.667188 608.000781 137.33125 608.000781 128.667188 608.000781 C 119.999219 608.000781 103.999219 608.000781 95.335156 608.000781 C 86.667187 608.000781 85.335156 608.000781 84.667187 608.66875 C 83.999219 609.332813 83.999219 610.66875 83.999219 617.332813 C 83.999219 624.000781 83.999219 636.000781 86.667187 642.66875 C 89.335156 649.332813 94.667187 650.66875 97.999219 652.000781 C 101.33125 653.332813 102.667187 654.66875 101.999219 658.000781 C 101.33125 661.332813 98.667187 666.66875 99.999219 671.332813 C 101.33125 676.000781 106.667187 680.000781 111.999219 680.000781 C 117.33125 680.000781 122.667187 676.000781 123.999219 671.332813 C 125.33125 666.66875 122.667187 661.332813 121.999219 658.000781 C 121.33125 654.66875 122.667187 653.332813 125.999219 652.000781 C 129.33125 650.66875 134.667188 649.332813 137.33125 642.66875 C 139.999219 636.000781 139.999219 624.000781 139.999219 617.332813 C 139.999219 610.66875 139.999219 609.332813 139.33125 608.66875 Z M 139.33125 608.66875 " transform="matrix(1,0,0,-1,-63.3,704.7)"/>
</g>
</svg>
