<?xml version="1.0" encoding="UTF-8"?>
<svg xmlns="http://www.w3.org/2000/svg" xmlns:xlink="http://www.w3.org/1999/xlink" width="97.4pt" height="98.542pt" viewBox="0 0 97.4 98.542" version="1.1">
<defs>
<clipPath id="clip1">
  <path d="M 11 22 L 86 22 L 86 98.542969 L 11 98.542969 Z M 11 22 "/>
</clipPath>
</defs>
<g id="surface1">
<path style=" stroke:none;fill-rule:evenodd;fill:rgb(0%,100%,25.099182%);fill-opacity:1;" d="M 96.699219 48.699219 C 96.699219 22.191406 75.210938 0.699219 48.699219 0.699219 C 22.191406 0.699219 0.699219 22.191406 0.699219 48.699219 C 0.699219 75.210938 22.191406 96.699219 48.699219 96.699219 C 75.210938 96.699219 96.699219 75.210938 96.699219 48.699219 "/>
<path style=" stroke:none;fill-rule:evenodd;fill:rgb(100%,100%,100%);fill-opacity:1;" d="M 16.589844 95.875 C 18.339844 97.429688 23.011719 97.429688 24.761719 95.875 C 26.515625 94.316406 25.347656 91.203125 24.761719 82.640625 C 24.179688 74.078125 24.179688 60.066406 26.125 53.058594 C 28.070312 46.054688 31.964844 46.054688 33.910156 53.058594 C 35.855469 60.066406 35.855469 74.078125 35.273438 82.640625 C 34.6875 91.203125 33.519531 94.316406 35.273438 95.875 C 37.023438 97.429688 41.695312 97.429688 43.445312 95.875 C 45.195312 94.316406 44.027344 91.203125 43.25 82.640625 C 42.472656 74.078125 42.082031 60.066406 44.222656 53.058594 C 46.363281 46.054688 51.035156 46.054688 53.175781 53.058594 C 55.316406 60.066406 54.929688 74.078125 54.148438 82.640625 C 53.371094 91.203125 52.203125 94.316406 53.953125 95.875 C 55.707031 97.429688 60.378906 97.429688 62.128906 95.875 C 63.878906 94.316406 62.710938 91.203125 61.933594 82.640625 C 61.15625 74.078125 60.765625 60.066406 62.90625 53.058594 C 65.046875 46.054688 69.71875 46.054688 71.859375 53.058594 C 74 60.066406 73.609375 74.078125 72.832031 82.640625 C 72.054688 91.203125 70.886719 94.316406 72.636719 95.875 C 74.390625 97.429688 79.058594 97.429688 80.8125 95.875 C 82.5625 94.316406 81.394531 91.203125 80.617188 81.863281 C 79.839844 72.519531 79.449219 56.953125 81.199219 49.167969 C 82.953125 41.382812 86.84375 41.382812 82.5625 38.269531 C 78.28125 35.15625 65.824219 28.929688 58.039062 25.8125 C 50.257812 22.699219 47.144531 22.699219 39.359375 25.8125 C 31.574219 28.929688 19.117188 35.15625 14.835938 38.269531 C 10.554688 41.382812 14.449219 41.382812 16.199219 49.167969 C 17.953125 56.953125 17.5625 72.519531 16.785156 81.863281 C 16.003906 91.203125 14.835938 94.316406 16.589844 95.875 Z M 16.589844 95.875 "/>
<g clip-path="url(#clip1)" clip-rule="nonzero">
<path style="fill:none;stroke-width:2;stroke-linecap:butt;stroke-linejoin:round;stroke:rgb(0%,100%,25.099182%);stroke-opacity:1;stroke-miterlimit:10;" d="M 79.889844 608.825 C 81.639844 607.270313 86.311719 607.270313 88.061719 608.825 C 89.815625 610.383594 88.647656 613.496875 88.061719 622.059375 C 87.479687 630.621875 87.479687 644.633594 89.425 651.641406 C 91.370312 658.645313 95.264844 658.645313 97.210156 651.641406 C 99.155469 644.633594 99.155469 630.621875 98.573437 622.059375 C 97.9875 613.496875 96.819531 610.383594 98.573437 608.825 C 100.323437 607.270313 104.995312 607.270313 106.745312 608.825 C 108.495312 610.383594 107.327344 613.496875 106.55 622.059375 C 105.772656 630.621875 105.382031 644.633594 107.522656 651.641406 C 109.663281 658.645313 114.335156 658.645313 116.475781 651.641406 C 118.616406 644.633594 118.229687 630.621875 117.448437 622.059375 C 116.671094 613.496875 115.503125 610.383594 117.253125 608.825 C 119.007031 607.270313 123.678906 607.270313 125.428906 608.825 C 127.178906 610.383594 126.010937 613.496875 125.233594 622.059375 C 124.45625 630.621875 124.065625 644.633594 126.20625 651.641406 C 128.346875 658.645313 133.01875 658.645313 135.159375 651.641406 C 137.3 644.633594 136.909375 630.621875 136.132031 622.059375 C 135.354688 613.496875 134.186719 610.383594 135.936719 608.825 C 137.690625 607.270313 142.358594 607.270313 144.1125 608.825 C 145.8625 610.383594 144.694531 613.496875 143.917188 622.836719 C 143.139844 632.180469 142.749219 647.746875 144.499219 655.532031 C 146.253125 663.317188 150.14375 663.317188 145.8625 666.430469 C 141.58125 669.54375 129.124219 675.770313 121.339062 678.8875 C 113.557812 682.000781 110.444531 682.000781 102.659375 678.8875 C 94.874219 675.770313 82.417187 669.54375 78.135937 666.430469 C 73.854687 663.317188 77.749219 663.317188 79.499219 655.532031 C 81.253125 647.746875 80.8625 632.180469 80.085156 622.836719 C 79.303906 613.496875 78.135937 610.383594 79.889844 608.825 Z M 79.889844 608.825 " transform="matrix(1,0,0,-1,-63.3,704.7)"/>
</g>
</g>
</svg>
