<?xml version="1.0" encoding="UTF-8"?>
<svg xmlns="http://www.w3.org/2000/svg" xmlns:xlink="http://www.w3.org/1999/xlink" width="66pt" height="66pt" viewBox="0 0 66 66" version="1.1">
<g id="surface1">
<path style="fill:none;stroke-width:2;stroke-linecap:butt;stroke-linejoin:round;stroke:rgb(0%,0%,0%);stroke-opacity:1;stroke-miterlimit:10;" d="M 192 704 L 192 640 L 256 640 L 256 704 Z M 192 704 " transform="matrix(1,0,0,-1,-191,705)"/>
<path style="fill-rule:evenodd;fill:rgb(87.098694%,0.39978%,32.899475%);fill-opacity:1;stroke-width:3;stroke-linecap:butt;stroke-linejoin:round;stroke:rgb(87.098694%,0.39978%,32.899475%);stroke-opacity:1;stroke-miterlimit:10;" d="M 205.949219 650.339844 C 205.949219 650.339844 205.949219 650.339844 207.753906 653.347656 C 209.558594 656.355469 213.171875 662.371094 216.179688 669.59375 C 219.1875 676.8125 221.59375 685.238281 222.796875 689.449219 C 224 693.660156 224 693.660156 224 693.660156 C 224 693.660156 224 693.660156 225.203125 689.449219 C 226.40625 685.238281 228.8125 676.8125 231.820312 669.59375 C 234.828125 662.371094 238.441406 656.355469 240.246094 653.347656 C 242.050781 650.339844 242.050781 650.339844 242.050781 650.339844 C 242.050781 650.339844 242.050781 650.339844 236.03125 650.339844 C 230.015625 650.339844 217.984375 650.339844 211.96875 650.339844 C 205.949219 650.339844 205.949219 650.339844 205.949219 650.339844 Z M 205.949219 650.339844 " transform="matrix(1,0,0,-1,-191,705)"/>
</g>
</svg>
